<svg width="217" height="43" viewBox="0 0 217 43" fill="none" xmlns="http://www.w3.org/2000/svg">
<g clip-path="url(#clip0_5788_617)">
<path d="M108.501 18.2279C108.372 18.0392 108.199 17.884 107.997 17.7752C107.795 17.6664 107.57 17.6073 107.34 17.6027C107.195 17.5904 107.05 17.5904 106.906 17.6027C106.749 17.6109 106.595 17.6513 106.454 17.7211C106.314 17.791 106.189 17.8888 106.088 18.0087C105.934 18.1854 105.804 18.3821 105.703 18.5932C105.589 18.8531 105.474 19.1129 105.384 19.4052C104.348 22.4797 103.306 25.5542 102.259 28.6287C101.76 30.0983 101.269 31.5761 100.77 33.0457C99.5347 29.9684 95.0922 19.1129 94.904 18.78C94.8181 18.605 94.6944 18.451 94.5417 18.3289C94.389 18.2068 94.211 18.1196 94.0204 18.0736C93.7962 18.0175 93.562 18.014 93.3362 18.0633C93.1104 18.1126 92.8993 18.2134 92.7196 18.3578C92.6074 18.4487 92.5008 18.5463 92.4005 18.6501C92.1897 18.8685 92.0724 19.1595 92.0732 19.462C92.0738 19.6954 92.1068 19.9277 92.1714 20.1521C92.2532 20.4282 92.3432 20.6961 92.4496 20.9641L96.1721 29.9765C96.7775 31.4461 97.3911 32.9076 98.0047 34.3772L98.3075 35.1323L99.2238 37.3733L98.7983 38.5506C98.6184 39.0296 98.4302 39.5086 98.2666 39.9958C98.1284 40.357 98.011 40.7257 97.9148 41.1C97.8685 41.2756 97.8622 41.4592 97.8961 41.6375C97.9301 41.8158 98.0035 41.9845 98.1111 42.1312C98.232 42.3055 98.393 42.4488 98.5808 42.549C98.7686 42.6493 98.9778 42.7037 99.191 42.7077H99.5919C99.8742 42.6813 100.135 42.5474 100.32 42.3342C100.466 42.1711 100.587 41.9879 100.68 41.7902C100.786 41.5466 100.885 41.3111 100.975 41.0594C101.689 38.9376 102.406 36.8211 103.126 34.7101C103.216 34.4503 103.323 34.1905 103.413 33.8982C103.928 32.4611 104.468 31.0321 104.983 29.5949C105.499 28.1578 105.982 26.8668 106.472 25.5353C106.857 24.4635 107.25 23.3999 107.642 22.3281C107.863 21.7354 108.092 21.1427 108.305 20.55C108.451 20.1624 108.574 19.7666 108.673 19.3646C108.733 19.1746 108.749 18.9735 108.719 18.7766C108.689 18.5797 108.615 18.3921 108.501 18.2279Z" fill="#4A505F"/>
<path d="M9.36769 37.2596C3.82071 37.2596 0 33.7764 0 27.4515V27.4108C0 21.7273 3.50163 17.7245 8.81953 17.7245C14.4483 17.7245 16.5755 21.5081 16.5755 25.3404C16.5755 27.216 15.9455 28.2715 14.0147 28.2715H3.37891C3.49345 33.0375 5.83333 34.6777 9.79311 34.6777C10.9239 34.7446 12.0526 34.5149 13.0657 34.0119C14.0883 33.4273 14.481 32.6884 15.2665 32.6884C15.3952 32.6835 15.5236 32.7056 15.6432 32.7533C15.7627 32.801 15.8708 32.8731 15.9604 32.9651C16.05 33.057 16.119 33.1667 16.1629 33.2869C16.2069 33.4071 16.2248 33.5352 16.2155 33.6627C16.2237 35.2217 13.5811 37.2596 9.36769 37.2596ZM3.38709 25.8925H13.5811V25.7789C13.5811 21.7923 11.5357 20.0953 8.81953 20.0953C5.75151 20.1034 3.59981 22.2145 3.38709 25.925V25.8925Z" fill="#4A505F"/>
<path d="M48.8921 37.2596C43.3451 37.2596 39.5244 33.7764 39.5244 27.4515V27.4108C39.5244 21.7273 43.026 17.7245 48.3439 17.7245C53.9727 17.7245 56.0999 21.5081 56.0999 25.3404C56.0999 27.216 55.4699 28.2715 53.5391 28.2715H42.9033C43.0179 33.0375 45.3577 34.6777 49.3175 34.6777C50.4485 34.7461 51.5775 34.5164 52.5901 34.0119C53.6209 33.4273 54.0136 32.6884 54.7991 32.6884C54.9271 32.6847 55.0546 32.7077 55.1732 32.7559C55.2918 32.8041 55.3989 32.8764 55.4875 32.9682C55.5762 33.06 55.6445 33.1693 55.6879 33.2889C55.7314 33.4085 55.7491 33.5359 55.7399 33.6627C55.7399 35.2217 53.1055 37.2596 48.8921 37.2596ZM42.9115 25.8925H53.1055V25.7789C53.1055 21.7923 51.0602 20.0953 48.3439 20.0953C45.2677 20.1034 43.1079 22.2145 42.9115 25.925V25.8925Z" fill="#4A505F"/>
<path d="M5.32588 11.3671C2.3315 11.3671 0.220703 9.32911 0.220703 5.63481C0.220703 2.24093 2.2415 0.0324707 5.24407 0.0324707C7.43668 0.0324707 8.6557 0.844419 8.6557 1.69695C8.66414 1.78224 8.65383 1.86831 8.62551 1.94927C8.59718 2.03022 8.5515 2.10411 8.49162 2.16585C8.43174 2.2276 8.35908 2.27571 8.27865 2.30689C8.19822 2.33808 8.11194 2.35159 8.02574 2.34649C7.62485 2.34649 7.46941 2.02172 7.02761 1.77002C6.48493 1.46632 5.86618 1.32266 5.24407 1.35593C3.08419 1.35593 1.70971 2.89047 1.70971 5.20448V5.88651C1.70971 8.72827 2.99419 10.2304 5.36679 10.2304C6.03477 10.2412 6.69689 10.1053 7.30577 9.83252V6.69034H5.72677C5.64059 6.69396 5.55461 6.6795 5.47443 6.64792C5.39426 6.61633 5.3217 6.56832 5.26148 6.50703C5.20127 6.44573 5.15475 6.37254 5.12496 6.2922C5.09518 6.21186 5.08279 6.12618 5.08862 6.04078C5.08296 5.95464 5.09534 5.86828 5.12497 5.78712C5.15461 5.70596 5.20086 5.63177 5.2608 5.56922C5.32075 5.50667 5.39311 5.45713 5.4733 5.4237C5.5535 5.39027 5.6398 5.3737 5.72677 5.37501H7.51031C7.68084 5.36814 7.85096 5.39641 8.00993 5.45804C8.1689 5.51967 8.31328 5.61331 8.43397 5.73308C8.55465 5.85285 8.64902 5.99615 8.71112 6.15391C8.77322 6.31168 8.80171 6.48049 8.79479 6.64973V9.41032C8.79479 10.5389 7.5594 11.3671 5.32588 11.3671Z" fill="#4A505F"/>
<path d="M23.3251 11.2859C20.8707 11.2859 19.2344 9.76758 19.2344 7.01513C19.2344 4.52249 20.7561 2.79306 23.0714 2.79306C23.5218 2.75273 23.9756 2.81039 24.4013 2.96203C24.8269 3.11366 25.214 3.35563 25.5357 3.67103C25.8574 3.98643 26.1059 4.36767 26.2639 4.78818C26.4219 5.20869 26.4855 5.65834 26.4503 6.10577C26.4503 6.9177 26.1804 7.38861 25.3377 7.38861H20.707C20.7561 9.45904 21.787 10.1736 23.5051 10.1736C23.9965 10.204 24.4873 10.1061 24.9286 9.88938C25.3704 9.62956 25.5422 9.31289 25.8858 9.31289C25.942 9.3105 25.998 9.31986 26.0502 9.34034C26.1025 9.36083 26.1498 9.39199 26.1892 9.4318C26.2285 9.47161 26.259 9.5192 26.2786 9.57145C26.2982 9.6237 26.3066 9.67946 26.3031 9.73511C26.3113 10.4009 25.1577 11.2859 23.3251 11.2859ZM20.7152 6.34934H25.1577V6.30062C25.1577 4.56308 24.2659 3.80798 23.0796 3.80798C21.7461 3.80798 20.7807 4.73359 20.7152 6.34934Z" fill="#4A505F"/>
<path d="M48.0572 8.74451C48.0572 10.4496 46.8054 11.2859 44.8501 11.2859C43.0502 11.2859 41.9866 10.5876 41.9866 9.88934C41.9828 9.82404 41.9932 9.75869 42.0172 9.69775C42.0412 9.63682 42.0781 9.58175 42.1255 9.53627C42.1728 9.4908 42.2296 9.456 42.2917 9.43426C42.3539 9.41252 42.42 9.40435 42.4857 9.4103C42.862 9.4103 42.9275 9.70258 43.4102 9.9218C43.8518 10.097 44.3258 10.1773 44.801 10.1573C46.0691 10.1573 46.6991 9.78377 46.6991 8.88252C46.7257 8.68696 46.6914 8.48799 46.6007 8.31235C46.5101 8.13671 46.3674 7.99284 46.1918 7.90009C45.5864 7.59156 44.1956 7.55909 43.3774 7.145C42.9928 6.98707 42.6705 6.70903 42.4594 6.35301C42.2483 5.99699 42.1599 5.58239 42.2075 5.17201C42.2075 3.54814 43.5083 2.73621 45.2264 2.73621C46.6991 2.73621 47.7463 3.23958 47.7463 3.85665C47.753 3.92477 47.7442 3.99355 47.7204 4.0578C47.6967 4.12206 47.6586 4.18014 47.609 4.22776C47.5595 4.27537 47.4997 4.31126 47.4343 4.33277C47.3688 4.35427 47.2993 4.36083 47.2309 4.35195C46.9445 4.35195 46.7563 4.14895 46.4127 4.01092C46.0703 3.89712 45.7101 3.84487 45.3492 3.85665C44.4165 3.85665 43.5411 4.13273 43.5411 5.06645C43.5217 5.26057 43.5653 5.45574 43.6653 5.62364C43.7653 5.79154 43.9167 5.92344 44.0974 6.00017C45.0546 6.44673 46.2409 6.37366 47.0427 6.8121C47.3896 6.99382 47.6724 7.27606 47.8536 7.62126C48.0349 7.96647 48.1059 8.35827 48.0572 8.74451Z" fill="#4A505F"/>
<path d="M53.0809 11.2859C50.6674 11.2859 48.9902 9.76758 48.9902 7.01513C48.9902 4.52249 50.5201 2.79306 52.8355 2.79306C53.2859 2.75273 53.7397 2.81039 54.1653 2.96203C54.5909 3.11366 54.9781 3.35563 55.2998 3.67103C55.6215 3.98643 55.87 4.36767 56.028 4.78818C56.1859 5.20869 56.2495 5.65834 56.2144 6.10577C56.2144 6.9177 55.9362 7.38861 55.1017 7.38861H50.4793C50.5283 9.45904 51.5592 10.1736 53.2691 10.1736C53.7606 10.2052 54.2517 10.1071 54.6927 9.88938C55.1426 9.62956 55.3144 9.31289 55.6581 9.31289C55.7139 9.31038 55.7696 9.31974 55.8214 9.34029C55.8733 9.36085 55.9202 9.39214 55.9589 9.4321C55.9976 9.47206 56.0273 9.51977 56.046 9.57202C56.0646 9.62427 56.0718 9.67987 56.0671 9.73511C56.0671 10.4009 54.9217 11.2859 53.0809 11.2859ZM50.4793 6.34934H54.9217V6.30062C54.9217 4.56308 54.03 3.80798 52.8437 3.80798C51.5019 3.80798 50.5611 4.73359 50.4793 6.34934Z" fill="#4A505F"/>
<path d="M30.0749 17.7245C28.4402 17.6978 26.8479 18.2408 25.5751 19.2591C24.5606 20.0422 23.7661 21.0712 23.268 22.247L23.178 19.6163C23.1952 19.3987 23.1647 19.18 23.0886 18.9752C23.0124 18.7704 22.8925 18.5845 22.7369 18.4301C22.5814 18.2758 22.394 18.1567 22.1877 18.0812C21.9814 18.0056 21.761 17.9753 21.5417 17.9924C21.3253 17.9769 21.1082 18.0088 20.9056 18.0857C20.7031 18.1626 20.52 18.2828 20.3693 18.4377C20.2187 18.5926 20.1042 18.7785 20.034 18.9822C19.9637 19.1858 19.9394 19.4023 19.9627 19.6163V35.5546C19.9627 35.9853 20.1351 36.3983 20.4419 36.7028C20.7488 37.0073 21.165 37.1785 21.599 37.1785C22.0329 37.1785 22.4491 37.0073 22.756 36.7028C23.0629 36.3983 23.2352 35.9853 23.2352 35.5546V26.5096C23.2352 22.6042 25.8369 20.4526 29.1013 20.4526C31.5557 20.4526 32.8075 21.435 32.8075 23.5785V35.5383C32.8075 35.969 32.9798 36.382 33.2867 36.6866C33.5936 36.9911 34.0098 37.1622 34.4437 37.1622C34.8777 37.1622 35.2939 36.9911 35.6008 36.6866C35.9076 36.382 36.08 35.969 36.08 35.5383V24.0901C36.1782 19.8274 33.7401 17.7245 30.0749 17.7245Z" fill="#4A505F"/>
<path d="M38.0924 2.77682C37.3824 2.76554 36.6906 3.00107 36.1371 3.44261C35.6995 3.78734 35.354 4.23344 35.1308 4.7417V3.59688C35.1393 3.50233 35.127 3.40708 35.0949 3.31767C35.0627 3.22827 35.0115 3.14685 34.9446 3.07896C34.8778 3.01108 34.7969 2.95835 34.7076 2.92442C34.6183 2.89049 34.5226 2.87614 34.4272 2.88237C34.332 2.87425 34.2362 2.88743 34.1469 2.92095C34.0575 2.95447 33.9769 3.00749 33.9109 3.07606C33.845 3.14464 33.7954 3.22704 33.7658 3.31718C33.7362 3.40732 33.7274 3.5029 33.7399 3.59688V10.5389C33.7399 10.7284 33.8158 10.9101 33.9508 11.0441C34.0858 11.1781 34.269 11.2534 34.4599 11.2534C34.6509 11.2534 34.834 11.1781 34.969 11.0441C35.104 10.9101 35.1799 10.7284 35.1799 10.5389V6.60914C35.1505 6.26425 35.1955 5.9171 35.3119 5.59083C35.4283 5.26456 35.6134 4.96666 35.855 4.71698C36.0965 4.46729 36.3889 4.27156 36.7126 4.14281C37.0364 4.01407 37.384 3.95528 37.7325 3.97036C38.8124 3.97036 39.3687 4.40068 39.3687 5.3344V10.5389C39.3687 10.7284 39.4446 10.9101 39.5796 11.0441C39.7146 11.1781 39.8978 11.2534 40.0887 11.2534C40.2797 11.2534 40.4628 11.1781 40.5978 11.0441C40.7328 10.9101 40.8087 10.7284 40.8087 10.5389V5.55364C40.7514 3.69431 39.6878 2.77682 38.0924 2.77682Z" fill="#4A505F"/>
<path d="M13.3192 11.3265C14.0268 11.3372 14.7157 11.1017 15.2664 10.6607C15.7024 10.3164 16.0454 9.87003 16.2645 9.36162V10.5064C16.2562 10.6002 16.2683 10.6948 16.2999 10.7836C16.3316 10.8724 16.3821 10.9534 16.448 11.0211C16.514 11.0889 16.5938 11.1418 16.6821 11.1762C16.7704 11.2107 16.8652 11.2259 16.96 11.2209C17.0545 11.2278 17.1494 11.2136 17.2377 11.1795C17.326 11.1455 17.4056 11.0923 17.4706 11.0238C17.5356 10.9554 17.5845 10.8735 17.6136 10.784C17.6427 10.6945 17.6514 10.5997 17.639 10.5064V3.5644C17.6201 3.38907 17.5365 3.22689 17.4044 3.10903C17.2722 2.99117 17.1008 2.92596 16.9231 2.92596C16.7455 2.92596 16.5741 2.99117 16.4419 3.10903C16.3098 3.22689 16.2262 3.38907 16.2073 3.5644V7.49416C16.2365 7.83763 16.1918 8.18334 16.0764 8.50843C15.961 8.83352 15.7773 9.13058 15.5376 9.38C15.2978 9.62942 15.0075 9.82551 14.6857 9.95531C14.364 10.0851 14.0181 10.1456 13.671 10.1329C12.5993 10.1329 12.0348 9.70262 12.0348 8.7689V3.5644C12.0159 3.38907 11.9323 3.22689 11.8001 3.10903C11.668 2.99117 11.4966 2.92596 11.3189 2.92596C11.1412 2.92596 10.9698 2.99117 10.8377 3.10903C10.7055 3.22689 10.6219 3.38907 10.603 3.5644V8.54969C10.6767 10.409 11.7811 11.3265 13.3192 11.3265Z" fill="#4A505F"/>
<path d="M68.0199 17.7245C67.2041 17.7711 66.4148 18.0296 65.7314 18.4742C65.0479 18.9188 64.4941 19.5339 64.1256 20.2577C63.5945 21.0343 63.1475 21.8644 62.792 22.7341L62.7102 19.6001C62.7274 19.3825 62.6969 19.1637 62.6208 18.9589C62.5447 18.7542 62.4247 18.5682 62.2692 18.4139C62.1137 18.2595 61.9263 18.1405 61.7199 18.0649C61.5136 17.9894 61.2932 17.9591 61.0739 17.9762C60.8576 17.9607 60.6404 17.9925 60.4378 18.0695C60.2353 18.1464 60.0522 18.2666 59.9016 18.4215C59.7509 18.5764 59.6364 18.7622 59.5662 18.9659C59.4959 19.1695 59.4716 19.386 59.4949 19.6001V35.5383C59.4949 35.969 59.6673 36.382 59.9742 36.6865C60.281 36.9911 60.6972 37.1622 61.1312 37.1622C61.5652 37.1622 61.9813 36.9911 62.2882 36.6865C62.5951 36.382 62.7675 35.969 62.7675 35.5383V28.8561C62.7675 23.1726 64.8537 21.3132 68.0445 20.8098C69.2635 20.615 69.738 19.9979 69.738 19.186C69.738 18.374 69.3208 17.7245 68.0199 17.7245Z" fill="#4A505F"/>
<path d="M31.6785 2.75244C31.3221 2.77566 30.9778 2.89039 30.6795 3.08539C30.3812 3.28038 30.139 3.54896 29.9768 3.86479C29.7475 4.20469 29.5529 4.56645 29.3959 4.94467V3.5725C29.4044 3.47796 29.3921 3.3827 29.36 3.2933C29.3279 3.2039 29.2766 3.12247 29.2098 3.05459C29.1429 2.9867 29.0621 2.93398 28.9727 2.90005C28.8834 2.86611 28.7878 2.85176 28.6923 2.858C28.5971 2.84988 28.5013 2.86305 28.412 2.89658C28.3226 2.9301 28.242 2.98311 28.1761 3.05169C28.1101 3.12026 28.0605 3.20267 28.0309 3.29281C28.0013 3.38294 27.9925 3.47853 28.0051 3.5725V10.5227C28.0051 10.7121 28.0809 10.8939 28.216 11.0279C28.351 11.1619 28.5341 11.2372 28.7251 11.2372C28.916 11.2372 29.0991 11.1619 29.2341 11.0279C29.3692 10.8939 29.445 10.7121 29.445 10.5227V7.60781C29.445 5.17201 30.3531 4.31948 31.744 4.10025C32.2758 4.01906 32.4803 3.75923 32.4803 3.40198C32.4803 3.04473 32.2349 2.75244 31.6785 2.75244Z" fill="#4A505F"/>
<path d="M87.6307 17.9762C87.4161 17.9676 87.202 18.0041 87.0027 18.0835C86.8033 18.1628 86.6231 18.2831 86.474 18.4365C86.3248 18.5899 86.2101 18.7729 86.1373 18.9734C86.0645 19.174 86.0353 19.3875 86.0517 19.6001L85.9453 21.3376C85.2158 20.2346 84.249 19.3057 83.1146 18.6177C81.8433 18.0013 80.4376 17.7083 79.0239 17.7651C74.5732 17.7651 70.9897 21.1996 70.9897 26.6964C70.9897 32.315 73.8614 36.0336 78.9011 36.0336C80.5056 36.0944 82.0912 35.6727 83.45 34.8238C83.5645 34.7426 83.6791 34.6615 83.7854 34.5721L83.8509 34.5234C84.624 33.8834 85.304 33.1402 85.8717 32.315V34.158C85.8717 38.4126 83.0409 40.207 79.4575 40.207C78.3205 40.2429 77.1865 40.0723 76.1113 39.7036C74.7696 39.1921 74.4177 38.4532 73.5096 38.4532C73.3501 38.4483 73.1913 38.4766 73.0434 38.5362C72.8955 38.5958 72.7618 38.6855 72.6509 38.7994C72.5399 38.9133 72.4542 39.049 72.3992 39.1977C72.3442 39.3464 72.3212 39.5049 72.3315 39.663C72.3315 41.23 74.925 43.0243 79.6129 43.0243C85.5935 43.0243 89.177 39.7766 89.177 33.9226V19.6001C89.1969 19.3895 89.1713 19.1771 89.1019 18.9772C89.0325 18.7772 88.9209 18.5942 88.7745 18.4405C88.6281 18.2868 88.4504 18.1658 88.2531 18.0858C88.0558 18.0057 87.8436 17.9684 87.6307 17.9762ZM74.4014 27.4758V26.2255C74.4014 22.2389 76.5695 20.3633 79.7929 20.3633C83.0164 20.3633 85.8962 22.4337 85.8962 26.8588V27.484C85.8962 31.5436 82.8609 33.6547 79.6375 33.6547C76.2095 33.6222 74.4014 31.3569 74.4014 27.4515V27.4758Z" fill="#4A505F"/>
<path d="M63.9947 2.87427C63.6184 2.87427 63.4057 3.11784 63.2584 3.55629L61.0576 10.0518L58.7259 3.48322C58.6934 3.31341 58.6019 3.16029 58.4674 3.05052C58.3328 2.94074 58.1638 2.88125 57.9896 2.88239C57.4742 2.88239 57.1142 3.28835 57.3515 3.9379L59.8059 10.4902L59.855 10.5958C59.9869 10.9498 60.2504 11.2403 60.5913 11.4077L60.534 11.562C60.4438 11.8984 60.2386 12.1932 59.9536 12.3961C59.6686 12.599 59.3214 12.6973 58.9714 12.6743C58.2514 12.6743 58.2187 12.3983 57.7769 12.3983C57.7123 12.3934 57.6473 12.4024 57.5865 12.4248C57.5257 12.4472 57.4705 12.4823 57.4247 12.5278C57.3789 12.5733 57.3435 12.628 57.3209 12.6884C57.2984 12.7487 57.2893 12.8131 57.2942 12.8773C57.2942 13.4213 57.9814 13.7948 59.045 13.7948C60.5177 13.7948 61.2376 13.064 61.9085 11.2209L64.5838 3.91354C64.8129 3.24776 64.4529 2.87427 63.9947 2.87427Z" fill="#4A505F"/>
</g>
<path d="M127.853 33.8091C127.853 35.6197 124.703 37.3329 121.373 37.3329C115.491 37.3329 111.834 33.4762 111.834 27.2731V27.2162C111.834 21.143 115.319 17.5136 121.161 17.5136C125.489 17.5136 127.755 19.0644 127.755 20.599C127.76 20.7748 127.728 20.9498 127.66 21.1124C127.592 21.2749 127.49 21.4213 127.361 21.5418C127.232 21.6623 127.079 21.7542 126.911 21.8114C126.743 21.8687 126.565 21.8899 126.389 21.8737C125.936 21.8522 125.507 21.6641 125.186 21.3459C124.962 21.1676 124.724 21.0074 124.474 20.8669C123.451 20.3498 122.306 20.117 121.161 20.193C117.111 20.193 114.976 22.369 114.976 26.4936V27.6547C114.976 32.3233 117.176 34.7997 121.349 34.7997C122.43 34.8437 123.5 34.5788 124.433 34.0365C124.761 33.8439 125.063 33.6121 125.333 33.3463C125.669 32.9495 126.147 32.6989 126.667 32.6481C126.823 32.6401 126.98 32.6645 127.126 32.7198C127.273 32.7751 127.406 32.8601 127.518 32.9693C127.629 33.0785 127.717 33.2096 127.774 33.3541C127.832 33.4987 127.859 33.6537 127.853 33.8091ZM143.57 20.5096C143.746 20.5188 143.922 20.4914 144.087 20.4292C144.252 20.367 144.402 20.2713 144.527 20.1483C144.653 20.0252 144.751 19.8776 144.816 19.7147C144.88 19.5519 144.91 19.3774 144.903 19.2024C144.911 19.0285 144.881 18.855 144.816 18.6933C144.751 18.5316 144.652 18.3854 144.526 18.2642C144.4 18.1431 144.25 18.0497 144.085 17.9903C143.92 17.9309 143.744 17.9068 143.57 17.9196H133.858C133.53 17.8985 133.2 17.9445 132.89 18.055C132.58 18.1655 132.296 18.338 132.056 18.5618C131.816 18.7856 131.625 19.0559 131.494 19.3561C131.364 19.6562 131.297 19.9798 131.297 20.3067V34.5074C131.297 34.8343 131.364 35.1578 131.494 35.458C131.625 35.7581 131.816 36.0285 132.056 36.2523C132.296 36.4761 132.58 36.6486 132.89 36.759C133.2 36.8695 133.53 36.9156 133.858 36.8945H143.676C143.844 36.9025 144.012 36.8757 144.169 36.8159C144.326 36.756 144.468 36.6643 144.588 36.5467C144.707 36.429 144.8 36.288 144.862 36.1326C144.923 35.9772 144.951 35.8109 144.944 35.6441C144.951 35.4784 144.923 35.313 144.862 35.1587C144.8 35.0045 144.706 34.865 144.587 34.7492C144.467 34.6335 144.324 34.5441 144.167 34.4871C144.01 34.43 143.843 34.4065 143.676 34.4181H134.439V28.7345H142.972C143.144 28.7401 143.315 28.7108 143.475 28.6485C143.635 28.5861 143.78 28.4919 143.902 28.3718C144.024 28.2516 144.119 28.108 144.183 27.9498C144.247 27.7916 144.278 27.6221 144.273 27.4517C144.279 27.2824 144.249 27.1136 144.186 26.9565C144.122 26.7993 144.026 26.6572 143.903 26.5393C143.78 26.4214 143.634 26.3304 143.474 26.2722C143.314 26.214 143.143 26.1898 142.972 26.2013H134.439V20.5178L143.57 20.5096ZM163.205 17.7166C163.008 17.7094 162.812 17.7432 162.629 17.8159C162.447 17.8885 162.281 17.9984 162.144 18.1384C162.007 18.2785 161.901 18.4455 161.833 18.6288C161.764 18.8121 161.736 19.0075 161.749 19.2024V33.5818L154.214 19.7789C153.6 18.6097 153.15 17.8952 151.677 17.8952H150.736C150.45 17.8728 150.162 17.9095 149.891 18.003C149.62 18.0966 149.371 18.2449 149.16 18.4387C148.949 18.6325 148.782 18.8675 148.667 19.1289C148.553 19.3903 148.494 19.6725 148.495 19.9575V35.5873C148.488 35.7835 148.522 35.979 148.594 36.1618C148.666 36.3446 148.776 36.5108 148.915 36.65C149.055 36.7892 149.222 36.8986 149.405 36.9714C149.589 37.0441 149.786 37.0788 149.984 37.0731C150.181 37.0802 150.377 37.0464 150.56 36.9738C150.743 36.9012 150.909 36.7915 151.047 36.6516C151.185 36.5117 151.292 36.3448 151.361 36.1615C151.43 35.9782 151.46 35.7826 151.448 35.5873V20.9319L159.36 35.1569C159.9 36.1312 160.317 36.8945 161.765 36.8945H162.64C162.908 36.9125 163.175 36.8753 163.427 36.785C163.679 36.6948 163.909 36.5536 164.103 36.3703C164.297 36.187 164.45 35.9658 164.554 35.7206C164.657 35.4753 164.707 35.2115 164.702 34.9459V19.2024C164.709 19.0083 164.676 18.8148 164.605 18.6337C164.534 18.4526 164.427 18.2876 164.29 18.1487C164.153 18.0098 163.989 17.8999 163.808 17.8257C163.628 17.7514 163.433 17.7143 163.238 17.7166H163.205ZM182.063 17.9196H168.564C168.385 17.9082 168.207 17.9339 168.039 17.9949C167.871 18.0559 167.718 18.151 167.59 18.274C167.461 18.397 167.36 18.5453 167.292 18.7093C167.225 18.8734 167.192 19.0496 167.197 19.2268C167.192 19.403 167.224 19.5783 167.292 19.7412C167.36 19.9041 167.462 20.0509 167.591 20.1721C167.72 20.2932 167.873 20.3859 168.041 20.4441C168.209 20.5023 168.387 20.5246 168.564 20.5096H173.775V35.7009C173.772 35.9045 173.812 36.1064 173.892 36.2939C173.972 36.4814 174.091 36.6503 174.24 36.79C174.389 36.9297 174.566 37.0371 174.759 37.1054C174.952 37.1737 175.158 37.2014 175.362 37.1867C175.565 37.1992 175.768 37.1697 175.958 37.1002C176.149 37.0307 176.323 36.9227 176.469 36.783C176.615 36.6433 176.73 36.475 176.807 36.2887C176.884 36.1024 176.922 35.9023 176.917 35.7009V20.5096H182.128C182.304 20.5237 182.48 20.5005 182.645 20.4416C182.811 20.3827 182.962 20.2894 183.088 20.168C183.214 20.0465 183.313 19.8998 183.377 19.7375C183.442 19.5752 183.471 19.4011 183.462 19.2268C183.469 19.049 183.439 18.8716 183.372 18.7063C183.305 18.5411 183.204 18.3918 183.075 18.2682C182.946 18.1447 182.792 18.0497 182.623 17.9896C182.454 17.9295 182.275 17.9056 182.096 17.9196H182.063ZM199.465 34.824C199.686 35.0107 199.846 35.2592 199.923 35.5372C200.001 35.8152 199.992 36.1099 199.898 36.3829C199.786 36.6355 199.599 36.8483 199.363 36.9932C199.126 37.1382 198.851 37.2085 198.573 37.1949C198.326 37.1937 198.081 37.1412 197.856 37.0405C197.63 36.9398 197.429 36.7932 197.264 36.6103L188.813 28.5803V35.7091C188.818 35.9104 188.78 36.1105 188.703 36.2968C188.626 36.4831 188.511 36.6514 188.364 36.7911C188.218 36.9308 188.044 37.0388 187.854 37.1083C187.664 37.1779 187.461 37.2073 187.258 37.1949C187.054 37.2095 186.848 37.1818 186.655 37.1135C186.462 37.0452 186.285 36.9378 186.136 36.7981C185.986 36.6584 185.868 36.4895 185.788 36.302C185.708 36.1145 185.668 35.9126 185.671 35.7091V20.2823C185.67 19.9554 185.737 19.6319 185.868 19.3317C185.998 19.0316 186.189 18.7612 186.429 18.5374C186.67 18.3136 186.953 18.1411 187.263 18.0307C187.573 17.9202 187.903 17.8741 188.232 17.8952H192.65C196.879 17.8952 199.309 19.9332 199.309 23.4732C199.309 26.8021 197.027 28.7264 193.042 28.7914L199.465 34.824ZM196.135 23.457C196.135 21.3541 195.039 20.5015 192.339 20.5015H188.813V26.7047H192.208C195.513 26.6885 196.168 25.4462 196.168 23.4407L196.135 23.457ZM215.697 34.4343H206.329V28.7508H215.067C215.239 28.7563 215.41 28.7271 215.57 28.6648C215.731 28.6025 215.876 28.5084 215.999 28.3884C216.121 28.2684 216.218 28.1249 216.283 27.9666C216.347 27.8084 216.379 27.6387 216.376 27.4679C216.381 27.2982 216.35 27.1293 216.285 26.9722C216.22 26.815 216.123 26.673 216 26.5552C215.877 26.4375 215.73 26.3466 215.569 26.2885C215.409 26.2303 215.237 26.2062 215.067 26.2175H206.329V20.534H215.664C215.84 20.5432 216.016 20.5158 216.181 20.4535C216.346 20.3913 216.496 20.2956 216.621 20.1726C216.747 20.0496 216.845 19.9019 216.91 19.7391C216.975 19.5762 217.005 19.4017 216.997 19.2268C217.005 19.0529 216.975 18.8794 216.91 18.7177C216.845 18.556 216.746 18.4098 216.621 18.2886C216.495 18.1674 216.344 18.0741 216.179 18.0147C216.014 17.9553 215.839 17.9312 215.664 17.9439H205.748C205.419 17.9228 205.09 17.9689 204.78 18.0794C204.47 18.1898 204.186 18.3623 203.946 18.5861C203.706 18.8099 203.515 19.0803 203.384 19.3804C203.254 19.6806 203.187 20.0041 203.187 20.331V34.5318C203.187 34.8586 203.254 35.1822 203.384 35.4823C203.515 35.7825 203.706 36.0528 203.946 36.2766C204.186 36.5004 204.47 36.6729 204.78 36.7834C205.09 36.8939 205.419 36.94 205.748 36.9188H215.729C215.897 36.9269 216.065 36.9001 216.222 36.8402C216.379 36.7803 216.522 36.6886 216.641 36.571C216.76 36.4534 216.854 36.3124 216.915 36.157C216.976 36.0016 217.004 35.8352 216.997 35.6684C217.008 35.5007 216.983 35.3326 216.923 35.1754C216.863 35.0183 216.77 34.8757 216.65 34.7572C216.53 34.6388 216.385 34.5472 216.227 34.4887C216.068 34.4302 215.898 34.4061 215.729 34.4181L215.697 34.4343Z" fill="url(#paint0_linear_5788_617)"/>
<defs>
<linearGradient id="paint0_linear_5788_617" x1="111.834" y1="27.4233" x2="217" y2="27.4233" gradientUnits="userSpaceOnUse">
<stop stop-color="#84BCC3"/>
<stop offset="0.276042" stop-color="#68ADB0"/>
<stop offset="0.640625" stop-color="#6FB482"/>
<stop offset="1" stop-color="#92B661"/>
</linearGradient>
<clipPath id="clip0_5788_617">
<rect width="216.995" height="43" fill="white"/>
</clipPath>
</defs>
</svg>
