<svg width="166" height="48" viewBox="0 0 166 48" fill="none" xmlns="http://www.w3.org/2000/svg">
<g clip-path="url(#clip0_5793_636)">
<g clip-path="url(#clip1_5793_636)">
<path d="M120.828 20.829C120.681 20.6219 120.488 20.4517 120.262 20.3321C120.037 20.2124 119.786 20.1466 119.53 20.14C119.371 20.1237 119.21 20.1237 119.05 20.14C118.883 20.1526 118.719 20.1981 118.569 20.2739C118.419 20.3497 118.286 20.4542 118.178 20.5814C118.007 20.7786 117.86 20.9954 117.742 21.2273C117.622 21.5179 117.491 21.8086 117.393 22.1101C116.236 25.512 115.073 28.9174 113.902 32.3265C113.357 33.9485 112.808 35.5778 112.255 37.2141C110.881 33.8015 105.929 21.7764 105.711 21.4103C105.614 21.2164 105.475 21.0462 105.303 20.9121C105.132 20.7781 104.932 20.6834 104.718 20.6352C104.471 20.5698 104.211 20.564 103.96 20.6183C103.709 20.6726 103.476 20.7855 103.279 20.9474C103.155 21.0465 103.038 21.1545 102.93 21.2704C102.809 21.3864 102.714 21.5256 102.651 21.6793C102.587 21.833 102.556 21.9979 102.559 22.1639C102.557 22.4226 102.594 22.6802 102.668 22.9282C102.753 23.2313 102.855 23.5296 102.973 23.8218L107.118 33.8015L109.158 38.6782C109.278 38.9581 109.387 39.2381 109.496 39.518L110.521 41.994L110.052 43.2966C109.845 43.8349 109.638 44.3732 109.452 44.9007C109.295 45.2975 109.164 45.7039 109.059 46.1172C109.009 46.3116 109.002 46.5145 109.04 46.7118C109.077 46.909 109.159 47.0956 109.278 47.2584C109.411 47.4531 109.589 47.6134 109.798 47.7258C110.007 47.8382 110.24 47.8994 110.477 47.9043H110.925C111.082 47.8935 111.235 47.8518 111.376 47.7815C111.516 47.7113 111.641 47.6139 111.743 47.4952C111.902 47.3138 112.034 47.1108 112.135 46.8923C112.26 46.6261 112.37 46.3529 112.463 46.0741C113.27 43.7416 114.069 41.3983 114.862 39.0443C114.971 38.7644 115.08 38.4737 115.178 38.1938C115.756 36.6005 116.356 35.0179 116.935 33.4246C117.513 31.8313 118.025 30.4103 118.592 28.9031C119.018 27.7081 119.454 26.5347 119.89 25.3505C120.141 24.683 120.403 24.0371 120.632 23.3697C120.793 22.9392 120.931 22.5008 121.047 22.0562C121.104 21.8484 121.114 21.6307 121.076 21.4186C121.038 21.2064 120.954 21.0051 120.828 20.829Z" fill="#4F5262"/>
<path d="M10.4381 41.9079C4.25382 41.9079 0 38.0539 0 31.0455C0 24.7261 3.90472 20.28 9.81635 20.28C16.077 20.28 18.444 24.4785 18.444 28.7201C18.444 30.7979 17.7458 31.9498 15.5971 31.9498H3.76315C3.89403 37.2356 6.52242 39.0443 10.9071 39.0443C12.1653 39.1183 13.4213 38.8659 14.5501 38.3122C15.6408 37.6663 16.1207 36.8373 17.0042 36.8373C17.1499 36.8278 17.2959 36.8491 17.4326 36.8998C17.5693 36.9506 17.6936 37.0296 17.7969 37.1315C17.9002 37.2335 17.9801 37.356 18.0315 37.4909C18.0829 37.6258 18.1045 37.77 18.0949 37.9138C18.0622 39.6579 15.1282 41.9079 10.4381 41.9079ZM3.77406 29.3553H15.1282V29.2261C15.1282 24.8123 12.8485 22.9067 9.82726 22.9067C6.40245 22.9067 3.9922 25.2429 3.77406 29.3553Z" fill="#4F5262"/>
<path d="M54.4479 41.9079C48.2636 41.9079 44.0098 38.0539 44.0098 31.0455C44.0098 24.7261 47.9145 20.28 53.8261 20.28C60.0868 20.28 62.4535 24.4785 62.4535 28.7201C62.4535 30.7979 61.7556 31.9498 59.6069 31.9498H47.7836C47.9144 37.2356 50.5431 39.0443 54.9277 39.0443C56.186 39.1183 57.442 38.8659 58.5708 38.3122C59.6615 37.6663 60.1414 36.8373 61.0249 36.8373C61.1706 36.8278 61.3166 36.8491 61.4533 36.8998C61.59 36.9506 61.7141 37.0296 61.8173 37.1315C61.9206 37.2335 62.0008 37.356 62.0522 37.4909C62.1036 37.6258 62.1252 37.77 62.1156 37.9138C62.0719 39.6579 59.1379 41.9079 54.4479 41.9079ZM47.7836 29.3553H59.138V29.2261C59.138 24.8123 56.8583 22.9067 53.837 22.9067C50.4122 22.9067 48.0017 25.2429 47.7836 29.3553Z" fill="#4F5262"/>
<path d="M5.69345 13.2399C2.35589 13.2399 0 10.9684 0 6.87747C0 3.1203 2.25764 0.676514 5.60611 0.676514C8.04929 0.676514 9.40174 1.58084 9.40174 2.51744C9.41152 2.61269 9.40004 2.7089 9.36819 2.79933C9.33633 2.88976 9.28501 2.97222 9.21747 3.04094C9.14993 3.10965 9.06789 3.16296 8.97728 3.19712C8.88667 3.23129 8.78964 3.24548 8.69289 3.23871C8.25661 3.23871 8.08209 2.88341 7.60218 2.59274C6.99401 2.26783 6.30795 2.1116 5.61702 2.14061C3.20657 2.14061 1.67946 3.84156 1.67946 6.44682V7.20042C1.67946 10.3547 3.10826 12.0126 5.74777 12.0126C6.49899 12.0261 7.24393 11.8754 7.92918 11.5712V8.09398H6.17329C6.077 8.09891 5.98078 8.08345 5.89103 8.04864C5.80128 8.01384 5.72012 7.96044 5.65297 7.89213C5.58583 7.82381 5.53425 7.74215 5.50172 7.65256C5.46919 7.56296 5.45654 7.4675 5.46444 7.37264C5.45669 7.27731 5.46928 7.18146 5.50172 7.09135C5.53416 7.00123 5.58549 6.91894 5.65244 6.84981C5.71939 6.78067 5.80049 6.72625 5.89023 6.6902C5.97998 6.65415 6.07646 6.63725 6.17329 6.64059H8.15845C8.34857 6.63135 8.53846 6.6615 8.71605 6.7291C8.89365 6.7967 9.05492 6.90028 9.18951 7.03313C9.3241 7.16598 9.42911 7.32515 9.4976 7.50044C9.56609 7.67573 9.59644 7.86323 9.58707 8.05088V11.1083C9.55435 12.3141 8.18026 13.2399 5.69345 13.2399Z" fill="#4F5262"/>
<path d="M25.9699 13.1424C23.2758 13.1424 21.4326 11.463 21.4326 8.40557C21.4326 5.6496 23.1231 3.7226 25.7081 3.7226C26.2106 3.67875 26.7168 3.74356 27.1913 3.91262C27.6658 4.08168 28.0971 4.35091 28.4554 4.70144C28.8136 5.05197 29.0902 5.47543 29.2657 5.94226C29.4411 6.40909 29.511 6.90805 29.471 7.40439C29.471 8.30869 29.1657 8.81467 28.2277 8.81467H23.025C23.0795 11.1185 24.2358 11.9044 26.1445 11.9044C26.6915 11.9387 27.2377 11.8272 27.726 11.5814C28.2168 11.3015 28.4131 10.9462 28.8167 10.9462C28.8792 10.9446 28.9413 10.9558 28.9991 10.9793C29.0569 11.0028 29.1091 11.0381 29.1522 11.0827C29.1954 11.1273 29.2286 11.1804 29.2497 11.2385C29.2708 11.2966 29.2793 11.3584 29.2747 11.4199C29.2965 12.1627 28.0204 13.1424 25.9699 13.1424ZM23.0687 7.67353H28.0205V7.61971C28.0205 5.69268 27.0278 4.86374 25.7081 4.86374C25.3397 4.8566 24.9739 4.92566 24.6342 5.06651C24.2944 5.20737 23.9882 5.41686 23.7355 5.68153C23.4827 5.94621 23.289 6.26021 23.1667 6.60328C23.0443 6.94635 22.996 7.31094 23.025 7.67353H23.0687Z" fill="#4F5262"/>
<path d="M53.5646 10.2895C53.5646 12.1734 52.1685 13.0993 49.9871 13.0993C47.9802 13.0993 46.8023 12.3241 46.8023 11.549C46.7989 11.477 46.8112 11.4051 46.8383 11.3382C46.8653 11.2712 46.9065 11.2107 46.9591 11.1608C47.0118 11.1108 47.0748 11.0725 47.1437 11.0485C47.2126 11.0245 47.2858 11.0153 47.3586 11.0215C47.773 11.0215 47.8493 11.3445 48.3838 11.5921C48.8767 11.7818 49.4038 11.8697 49.9325 11.8505C51.3504 11.8505 52.0487 11.4414 52.0487 10.4402C52.0747 10.2253 52.0345 10.0076 51.9334 9.81553C51.8322 9.62348 51.6747 9.46602 51.4815 9.36366C50.8052 9.02993 49.2999 8.98684 48.351 8.53469C47.9321 8.35604 47.5806 8.05222 47.3458 7.66597C47.111 7.27973 47.0048 6.83051 47.0422 6.38159C47.0422 4.59451 48.5039 3.72253 50.4126 3.72253C52.0487 3.72253 53.2155 4.29308 53.2155 4.97131C53.2225 5.04606 53.2124 5.12142 53.1862 5.19189C53.16 5.26235 53.1183 5.32613 53.064 5.37869C53.0097 5.43125 52.9442 5.47122 52.8723 5.49572C52.8004 5.52022 52.7239 5.52866 52.6483 5.52036C52.3211 5.52036 52.114 5.29424 51.6886 5.14353C51.306 5.01628 50.9032 4.95797 50.4997 4.97131C49.4744 4.97131 48.5039 5.27273 48.5039 6.30622C48.4712 6.52703 48.5132 6.7523 48.6237 6.947C48.7342 7.1417 48.9066 7.29491 49.1145 7.38277C50.2052 7.87799 51.5031 7.80267 52.3866 8.29788C52.754 8.48544 53.0599 8.77224 53.2685 9.12488C53.4771 9.47752 53.5798 9.88142 53.5646 10.2895Z" fill="#4F5262"/>
<path d="M59.1168 13.1424C56.4227 13.1424 54.5684 11.463 54.5684 8.40557C54.5684 5.6496 56.27 3.7226 58.8441 3.7226C59.3466 3.67875 59.8526 3.74356 60.327 3.91262C60.8015 4.08168 61.2331 4.35091 61.5914 4.70144C61.9496 5.05197 62.226 5.47543 62.4014 5.94226C62.5768 6.40909 62.647 6.90805 62.607 7.40439C62.607 8.30869 62.3014 8.81467 61.3634 8.81467H56.2153C56.2699 11.1185 57.4152 11.9044 59.3239 11.9044C59.871 11.9404 60.4177 11.8287 60.9054 11.5814C61.4071 11.3015 61.5926 10.9462 61.9961 10.9462C62.0586 10.9446 62.1207 10.9558 62.1785 10.9793C62.2363 11.0028 62.2885 11.0381 62.3316 11.0827C62.3748 11.1273 62.408 11.1804 62.4291 11.2385C62.4502 11.2966 62.4587 11.3584 62.4541 11.4199C62.4323 12.1627 61.2 13.1424 59.1168 13.1424ZM56.2153 7.67353H61.1999V7.61971C61.1999 5.69268 60.2073 4.86374 58.8875 4.86374C58.52 4.85812 58.1555 4.92827 57.817 5.0698C57.4786 5.21133 57.1739 5.4211 56.9223 5.68561C56.6708 5.95012 56.4779 6.26359 56.3562 6.60591C56.2345 6.94823 56.1864 7.31186 56.2153 7.67353Z" fill="#4F5262"/>
<path d="M33.4961 20.2692C31.6769 20.2398 29.905 20.8417 28.4896 21.9701C27.3604 22.8373 26.4742 23.975 25.9155 25.2751L25.8175 22.3577C25.84 22.1178 25.8097 21.876 25.7285 21.6488C25.6474 21.4216 25.5172 21.2145 25.3472 21.0416C25.1772 20.8687 24.9714 20.7343 24.7438 20.6474C24.5162 20.5605 24.2721 20.5233 24.0286 20.5383C23.7853 20.5186 23.5406 20.5528 23.3125 20.6386C23.0844 20.7243 22.8786 20.8594 22.7102 21.0339C22.5418 21.2083 22.4152 21.4177 22.3395 21.6468C22.2638 21.8758 22.2409 22.1188 22.2727 22.3577V40.0131C22.3084 40.4701 22.5175 40.8969 22.8582 41.2083C23.199 41.5197 23.6462 41.6926 24.1106 41.6926C24.5749 41.6926 25.0219 41.5197 25.3626 41.2083C25.7034 40.8969 25.9125 40.4701 25.9482 40.0131V30.0119C25.9482 25.7057 28.8495 23.305 32.4924 23.305C35.2628 23.305 36.6153 24.3816 36.6153 26.7715V40.0131C36.6153 40.4956 36.8097 40.9584 37.1554 41.2996C37.501 41.6408 37.9697 41.8325 38.4586 41.8325C38.9474 41.8325 39.4163 41.6408 39.762 41.2996C40.1077 40.9584 40.3021 40.4956 40.3021 40.0131V27.3206C40.2911 22.6053 37.5753 20.2692 33.4961 20.2692Z" fill="#4F5262"/>
<path d="M42.4172 3.71176C41.6243 3.69922 40.8522 3.96216 40.2358 4.45459C39.756 4.83372 39.3809 5.32614 39.1451 5.88636V4.61603C39.1548 4.51229 39.1414 4.40772 39.1062 4.3095C39.071 4.21129 39.0147 4.12175 38.9411 4.04707C38.8675 3.97239 38.7787 3.91433 38.6802 3.87689C38.5817 3.83944 38.4761 3.82351 38.3707 3.83017C38.2654 3.8213 38.1592 3.83584 38.0603 3.87268C37.9613 3.90952 37.872 3.96771 37.7988 4.04306C37.7256 4.11841 37.6703 4.20898 37.6371 4.30812C37.604 4.40727 37.5939 4.51247 37.6073 4.61603V12.3026C37.6303 12.4966 37.7245 12.6755 37.8723 12.8053C38.0201 12.9351 38.211 13.0068 38.4088 13.0068C38.6067 13.0068 38.7976 12.9351 38.9454 12.8053C39.0932 12.6755 39.1877 12.4966 39.2106 12.3026V7.99642C39.1777 7.6152 39.2273 7.23144 39.3565 6.87072C39.4857 6.51 39.6913 6.18058 39.9597 5.90449C40.228 5.6284 40.5532 5.41198 40.913 5.26962C41.2728 5.12727 41.659 5.06225 42.0463 5.07894C43.2461 5.07894 43.8461 5.55265 43.8461 6.58614V12.3457C43.8691 12.5396 43.9633 12.7185 44.1111 12.8483C44.2589 12.9782 44.4498 13.0499 44.6476 13.0499C44.8455 13.0499 45.0364 12.9782 45.1842 12.8483C45.332 12.7185 45.4265 12.5396 45.4494 12.3457V6.83373C45.5117 6.42078 45.4773 5.99927 45.349 5.60145C45.2207 5.20362 45.0019 4.84008 44.7091 4.53869C44.4164 4.23731 44.0575 4.0061 43.6602 3.86276C43.263 3.71942 42.8379 3.66776 42.4172 3.71176Z" fill="#4F5262"/>
<path d="M14.8336 13.1854C15.6254 13.2029 16.398 12.9436 17.015 12.4534C17.4946 12.0696 17.8695 11.5738 18.1057 11.0108V12.2811C18.0943 12.3857 18.1064 12.4915 18.1409 12.591C18.1753 12.6906 18.2311 12.7815 18.3049 12.8574C18.3787 12.9333 18.4686 12.9924 18.568 13.0304C18.6673 13.0685 18.7737 13.0847 18.8801 13.0778C18.9856 13.0853 19.0915 13.0693 19.19 13.0311C19.2885 12.9929 19.3772 12.9334 19.4494 12.857C19.5216 12.7806 19.5756 12.6893 19.6073 12.5896C19.639 12.4899 19.6475 12.3845 19.6326 12.2811V4.59456C19.6326 4.38614 19.5489 4.18619 19.3996 4.03881C19.2503 3.89143 19.0476 3.80864 18.8364 3.80864C18.6252 3.80864 18.4228 3.89143 18.2735 4.03881C18.1241 4.18619 18.0402 4.38614 18.0402 4.59456V8.90078C18.0748 9.28144 18.0267 9.66496 17.8988 10.0257C17.7709 10.3864 17.5661 10.716 17.2986 10.9923C17.0311 11.2686 16.7067 11.4853 16.3474 11.6277C15.9881 11.7702 15.6023 11.8351 15.2154 11.8182C14.0266 11.8182 13.4375 11.3445 13.4375 10.3111V4.54068C13.4375 4.33226 13.3535 4.13238 13.2042 3.985C13.0549 3.83761 12.8524 3.75482 12.6413 3.75482C12.4301 3.75482 12.2277 3.83761 12.0783 3.985C11.929 4.13238 11.8451 4.33226 11.8451 4.54068V10.0634C11.7796 10.4732 11.8102 10.8923 11.9345 11.2885C12.0589 11.6848 12.2735 12.0476 12.5622 12.3491C12.8508 12.6506 13.2056 12.8828 13.5994 13.0278C13.9931 13.1728 14.4154 13.2267 14.8336 13.1854Z" fill="#4F5262"/>
<path d="M75.7493 20.2692C74.8364 20.3188 73.9526 20.6045 73.1869 21.0977C72.4211 21.5909 71.8002 22.2741 71.3865 23.079C70.7939 23.939 70.2965 24.8593 69.903 25.8242L69.8048 22.3469C69.8273 22.107 69.797 21.8652 69.7158 21.6381C69.6347 21.4109 69.5047 21.2037 69.3348 21.0308C69.1648 20.858 68.959 20.7235 68.7314 20.6366C68.5038 20.5497 68.2597 20.5125 68.0161 20.5275C67.7728 20.5078 67.5282 20.542 67.3001 20.6278C67.072 20.7135 66.8661 20.8486 66.6977 21.0231C66.5294 21.1975 66.4025 21.407 66.3268 21.636C66.2511 21.8651 66.2282 22.108 66.26 22.3469V40.0023C66.26 40.4849 66.4543 40.9476 66.8 41.2888C67.1457 41.63 67.6146 41.8217 68.1035 41.8217C68.5923 41.8217 69.061 41.63 69.4067 41.2888C69.7524 40.9476 69.9467 40.4849 69.9467 40.0023V32.6064C69.9467 26.3301 72.2698 24.2524 75.8146 23.6926C77.178 23.4665 77.7015 22.8206 77.7015 21.9163C77.7015 21.012 77.2 20.2692 75.7493 20.2692Z" fill="#4F5262"/>
<path d="M35.2732 3.69025C34.8777 3.71529 34.4958 3.84168 34.1649 4.05689C33.834 4.27211 33.5656 4.56873 33.3863 4.91753C33.1294 5.29219 32.9136 5.69275 32.7427 6.11249V4.60529C32.7524 4.50013 32.739 4.39421 32.7033 4.29469C32.6675 4.19517 32.6104 4.10445 32.5358 4.02877C32.4612 3.9531 32.3709 3.89422 32.2711 3.85622C32.1713 3.81823 32.0642 3.80201 31.9574 3.80865C31.8515 3.8015 31.7453 3.81756 31.6464 3.8557C31.5475 3.89384 31.4584 3.95316 31.3854 4.0293C31.3125 4.10544 31.2574 4.19654 31.2243 4.29614C31.1913 4.39573 31.1809 4.50128 31.194 4.60529V12.2919C31.2169 12.4858 31.3114 12.6647 31.4592 12.7946C31.607 12.9244 31.7979 12.9961 31.9958 12.9961C32.1936 12.9961 32.3845 12.9244 32.5323 12.7946C32.6801 12.6647 32.7743 12.4858 32.7973 12.2919V9.06223C32.7973 6.32779 33.8118 5.4235 35.3606 5.17589C35.9495 5.079 36.1786 4.79913 36.1786 4.40081C36.1786 4.00248 35.9058 3.69025 35.2732 3.69025Z" fill="#4F5262"/>
<path d="M97.5856 20.5275C97.3487 20.518 97.1123 20.5577 96.892 20.6442C96.6716 20.7306 96.472 20.8619 96.3064 21.0294C96.1408 21.1969 96.0129 21.397 95.9307 21.6166C95.8485 21.8361 95.814 22.0702 95.8295 22.3038L95.7094 24.2309C94.8961 23.0095 93.8199 21.9803 92.5574 21.2165C91.1481 20.5339 89.5888 20.2083 88.0202 20.2692C83.0684 20.2692 79.0762 24.0801 79.0762 30.1304C79.0762 36.3636 82.2829 40.476 87.8891 40.476C89.6736 40.5422 91.4371 40.0771 92.9502 39.1411L93.3317 38.8612L93.4082 38.8074C94.2682 38.0995 95.0245 37.277 95.6551 36.3636V38.3983C95.6551 43.1136 92.492 45.1052 88.5109 45.1052C87.2435 45.1422 85.9798 44.9525 84.7808 44.5454C83.2865 43.9856 82.8937 43.1567 81.8903 43.1567C81.7115 43.1502 81.5333 43.1809 81.3673 43.2468C81.2013 43.3128 81.0513 43.4124 80.9269 43.5393C80.8024 43.6662 80.7062 43.8176 80.6449 43.9835C80.5835 44.1494 80.5582 44.3262 80.5706 44.5024C80.5706 46.2356 83.4609 48.2272 88.6853 48.2272C95.3495 48.2272 99.3306 44.5885 99.3306 38.1399V22.3038C99.3495 22.0704 99.3177 21.8357 99.2374 21.6154C99.1572 21.395 99.0303 21.1941 98.8651 21.026C98.7 20.858 98.5005 20.7265 98.2799 20.6405C98.0592 20.5546 97.8226 20.5161 97.5856 20.5275ZM82.8502 31.0455V29.6674C82.8502 25.2536 85.2607 23.2081 88.86 23.2081C92.4593 23.2081 95.6551 25.5012 95.6551 30.3995V31.0885C95.6941 32.0002 95.54 32.9098 95.2029 33.7595C94.8659 34.6092 94.3531 35.3803 93.6974 36.0235C93.0416 36.6667 92.2572 37.1679 91.3943 37.4953C90.5313 37.8226 89.6087 37.9688 88.6853 37.9246C84.8679 37.8815 82.8502 35.3732 82.8502 31.0455Z" fill="#4F5262"/>
<path d="M71.2663 3.83022C70.8409 3.83022 70.6119 4.0886 70.4373 4.58382L67.9942 11.7644L65.3984 4.4869C65.3605 4.30075 65.258 4.13342 65.1087 4.01361C64.9595 3.8938 64.7728 3.82898 64.5804 3.83022C64.0023 3.83022 63.5986 4.28239 63.8713 4.99291L66.598 12.2596L66.6526 12.3673C66.7964 12.7593 67.09 13.0801 67.4707 13.2608L67.4052 13.4438C67.3027 13.8159 67.073 14.1415 66.7549 14.3652C66.4367 14.589 66.0499 14.697 65.6602 14.6711C64.864 14.6711 64.8204 14.3696 64.3296 14.3696C64.2581 14.3649 64.1862 14.3752 64.1192 14.4001C64.0522 14.4249 63.9914 14.4636 63.9408 14.5136C63.8902 14.5636 63.8509 14.6236 63.8257 14.6898C63.8006 14.7559 63.79 14.8267 63.7949 14.8972C63.7949 15.5001 64.5584 15.9091 65.7363 15.9091C67.3833 15.9091 68.1906 15.1017 68.9323 13.0671L71.9099 4.96058C72.1826 4.23929 71.7789 3.83022 71.2663 3.83022Z" fill="#4F5262"/>
</g>
</g>
<path d="M154.897 4.0805C153.265 6.20559 151.309 8.07034 149.098 9.60904C146.859 11.2502 144.411 12.7498 141.976 14.4168C139.422 16.0801 137.085 18.0449 135.017 20.2671C133.958 21.4473 133.04 22.743 132.281 24.1287C131.509 25.5752 130.982 27.1362 130.723 28.7499C130.22 31.9655 130.706 35.2553 132.117 38.1979C132.818 39.6697 133.745 41.0265 134.867 42.2205C135.983 43.3944 137.26 44.4083 138.663 45.2326C139.358 45.6378 140.08 45.997 140.823 46.3074C141.093 46.4369 141.377 46.5382 141.668 46.6099L141.956 46.6613C142.085 46.6679 142.214 46.6679 142.342 46.6613C142.645 46.6453 142.941 46.5687 143.213 46.4361C143.5 46.2923 143.759 46.1006 143.979 45.8697C144.295 45.5254 144.584 45.1575 144.843 44.7692C145.301 44.0612 145.589 43.6171 146.028 42.9928L147.245 41.2165L152.109 34.1368L153.202 32.5471L151.572 31.4916L147.265 28.7048C149.536 24.9976 151.67 21.284 153.961 17.6348C150.302 21.0717 146.761 24.7145 143.174 28.0934L141.616 29.5479L143.579 30.8737L147.795 33.5962L144.018 39.1054L142.82 40.8818C142.467 41.3838 142.028 42.0531 141.714 42.5423C141.347 42.3735 140.988 42.1866 140.64 41.9823C139.545 41.344 138.549 40.5551 137.681 39.6396C136.83 38.7353 136.128 37.706 135.6 36.5889C134.517 34.3364 134.144 31.8175 134.526 29.3548C134.72 28.1457 135.113 26.976 135.692 25.8922C136.31 24.7675 137.056 23.7159 137.917 22.7579C139.777 20.7703 141.876 19.0132 144.169 17.5254C146.499 15.9357 148.98 14.4168 151.369 12.6469C153.015 11.4562 154.548 10.1229 155.951 8.66296C157.351 11.534 158.575 14.4848 159.617 17.4996C160.955 21.2285 161.52 25.1827 161.28 29.1296C160.949 33.0195 159.667 36.7732 157.542 40.0708C155.378 43.6017 152.028 46.2787 148.07 47.6396C150.331 47.6499 152.562 47.1292 154.577 46.1207C156.643 45.0798 158.498 43.6749 160.049 41.9759C161.615 40.2679 162.908 38.3367 163.885 36.2479C164.909 34.1357 165.562 31.8681 165.816 29.5415C165.901 28.7434 165.941 27.9454 165.947 27.1537V26.9349C165.861 23.2335 165.162 19.5707 163.878 16.0901C162.364 11.9774 160.432 8.02506 158.112 4.2929L156.599 1.67987L154.897 4.0805Z" fill="url(#paint0_linear_5793_636)"/>
<defs>
<linearGradient id="paint0_linear_5793_636" x1="130.53" y1="24.6598" x2="165.947" y2="24.6598" gradientUnits="userSpaceOnUse">
<stop stop-color="#84BCC3"/>
<stop offset="0.276042" stop-color="#68ADB0"/>
<stop offset="0.640625" stop-color="#6FB482"/>
<stop offset="1" stop-color="#92B661"/>
</linearGradient>
<clipPath id="clip0_5793_636">
<rect width="166" height="48" fill="white"/>
</clipPath>
<clipPath id="clip1_5793_636">
<rect width="121.101" height="47.6267" fill="white" transform="translate(0 0.643616)"/>
</clipPath>
</defs>
</svg>
