<svg width="49" height="58" viewBox="0 0 49 58" fill="none" xmlns="http://www.w3.org/2000/svg">
<path d="M46.7528 38.1499C46.7528 48.4046 38.3057 56.7503 27.8451 56.7503C17.3846 56.7503 8.9375 48.4046 8.9375 38.1499C8.9375 27.8952 17.3846 19.5494 27.8451 19.5494C38.3057 19.5494 46.7528 27.8952 46.7528 38.1499Z" stroke="#98CDD7" stroke-width="2.5"/>
<path d="M8.47348 19.0751C19.1714 8.5402 36.5161 8.5402 47.214 19.0751" stroke="#98CDD7" stroke-width="2.5" stroke-linecap="round"/>
<path d="M11.0603 29.94L2 24.407" stroke="#98CDD7" stroke-width="2.5" stroke-linecap="round"/>
<path d="M7.86719 13.5812L7.03164 20.1466L13.6987 20.9694" stroke="#98CDD7" stroke-width="2.5" stroke-linecap="round" stroke-linejoin="round"/>
<path d="M18.9554 45.6924C20.0665 45.6924 20.7554 44.8924 20.7554 43.8924V33.2924C20.7554 31.8035 20.1109 30.9813 18.5332 30.9813C17.1998 30.9813 16.5332 31.6258 15.5776 32.5369L14.1332 33.9369C13.1332 34.848 13.5554 36.248 14.7554 36.248C15.1776 36.248 15.4887 36.0702 15.7998 35.7369L17.1554 34.3146V43.8924C17.1554 44.8924 17.822 45.6924 18.9554 45.6924ZM28.3517 38.3813C26.8184 38.3813 26.2184 37.4924 26.2184 36.1146V35.7813C26.2184 34.1813 26.8406 33.248 28.3517 33.248C29.8406 33.248 30.6628 34.1813 30.6628 35.9591V36.248C30.6628 37.6258 29.774 38.3813 28.3517 38.3813ZM27.6628 45.7591C31.7517 45.7591 34.4184 43.4258 34.4184 38.3813V37.448C34.4184 33.3813 32.2851 30.8924 28.3295 30.8924C24.6406 30.8924 22.574 32.9591 22.574 35.848V35.9591C22.574 38.5369 24.1962 40.5369 27.2184 40.5369C29.0406 40.5369 30.1295 39.7146 30.6628 38.5591V39.0035C30.6628 41.848 29.3962 43.0702 27.4851 43.0702C26.7962 43.0702 26.3295 42.9591 25.9517 42.7813C25.3962 42.5146 25.0628 42.1813 24.4628 42.1813C23.6184 42.1813 23.1517 42.7146 23.1517 43.4258C23.1517 44.6924 24.7073 45.7591 27.6628 45.7591ZM42.0455 34.4035C42.0455 32.5146 40.5566 31.0035 38.601 31.0035C36.6455 31.0035 35.201 32.5146 35.201 34.4035C35.201 36.2924 36.6455 37.8035 38.601 37.8035C40.5566 37.8035 42.0455 36.2924 42.0455 34.4035ZM37.0899 34.4035C37.0899 33.4258 37.7344 32.6924 38.601 32.6924C39.5122 32.6924 40.1566 33.4258 40.1566 34.4035C40.1566 35.448 39.5122 36.1146 38.601 36.1146C37.7344 36.1146 37.0899 35.448 37.0899 34.4035Z" fill="#98CDD7"/>
</svg>
