<svg width="303" height="346" viewBox="0 0 303 346" fill="none" xmlns="http://www.w3.org/2000/svg">
<path d="M285.152 115.563C273.697 104.147 258.176 97.7359 241.994 97.7359C225.813 97.7359 210.292 104.147 198.836 115.563L94.4781 219.799C85.7976 228.068 74.2237 232.617 62.2297 232.475C50.2356 232.333 38.7729 227.511 30.2912 219.039C21.8095 210.567 16.9817 199.118 16.8395 187.138C16.6972 175.158 21.2519 163.597 29.53 154.927L158.852 25.7255V67.3839C158.852 69.3854 159.648 71.305 161.065 72.7203C162.482 74.1356 164.404 74.9307 166.408 74.9307C168.412 74.9307 170.333 74.1356 171.75 72.7203C173.167 71.305 173.963 69.3854 173.963 67.3839V7.57095C173.964 6.57407 173.766 5.58696 173.382 4.66676C172.998 3.74656 172.436 2.91143 171.727 2.20962V2.20962C170.932 1.41399 169.969 0.806336 168.909 0.431259C167.848 0.0561825 166.717 -0.0766867 165.598 0.0422742H106.549C104.545 0.0422742 102.623 0.837363 101.206 2.25266C99.7894 3.66797 98.9934 5.58755 98.9934 7.58908C98.9934 9.59062 99.7894 11.5101 101.206 12.9254C102.623 14.3407 104.545 15.1359 106.549 15.1359H148.105L18.8674 144.216C12.9889 149.829 8.29228 156.557 5.05299 164.007C1.8137 171.457 0.0970034 179.479 0.00399401 187.6C-0.0890154 195.722 1.44328 203.781 4.51111 211.303C7.57894 218.825 12.1205 225.659 17.8689 231.404C23.6174 237.149 30.4569 241.689 37.9861 244.757C45.5153 247.826 53.5824 249.361 61.7138 249.272C69.8451 249.184 77.8766 247.474 85.3372 244.243C92.7978 241.011 99.5367 236.324 105.159 230.455L209.523 126.213C218.209 117.971 229.774 113.445 241.753 113.599C253.732 113.753 265.177 118.574 273.648 127.036C282.118 135.497 286.944 146.929 287.097 158.894C287.25 170.859 282.717 182.411 274.465 191.085L145.191 320.232V278.634C145.191 276.633 144.395 274.713 142.978 273.298C141.561 271.883 139.64 271.087 137.636 271.087C135.632 271.087 133.71 271.883 132.293 273.298C130.876 274.713 130.08 276.633 130.08 278.634V338.453C130.08 340.455 130.876 342.374 132.293 343.79C133.71 345.205 135.632 346 137.636 346H197.519C199.523 346 201.445 345.205 202.862 343.79C204.279 342.374 205.075 340.455 205.075 338.453C205.075 336.452 204.279 334.532 202.862 333.117C201.445 331.702 199.523 330.906 197.519 330.906H155.878L285.152 201.778C296.581 190.336 303 174.833 303 158.67C303 142.507 296.581 127.005 285.152 115.563V115.563Z" fill="url(#paint0_linear_5762_1097)"/>
<defs>
<linearGradient id="paint0_linear_5762_1097" x1="167.423" y1="0.0362275" x2="167.423" y2="340.316" gradientUnits="userSpaceOnUse">
<stop stop-color="#84BCC3"/>
<stop offset="0.276042" stop-color="#68ADB0"/>
<stop offset="0.640625" stop-color="#6FB482"/>
<stop offset="1" stop-color="#92B661"/>
</linearGradient>
</defs>
</svg>
