<svg width="17" height="18" viewBox="0 0 17 18" fill="none" xmlns="http://www.w3.org/2000/svg">
<path fill-rule="evenodd" clip-rule="evenodd" d="M0.0819588 14.4971L1.48254 11.7304C1.79269 11.1175 1.95431 10.4419 1.95431 9.75671V6.04655C1.95431 2.73466 4.69985 -0.0116906 8.05573 3.7424e-05C11.4029 0.0117655 14.1132 2.69373 14.1132 5.99999V7.82065C14.1132 9.779 14.5748 11.7105 15.4617 13.4623L16.0287 14.5822C16.2655 15.0502 15.9206 15.6007 15.3906 15.6007H11.0111C10.7293 16.9688 9.50265 18 8.03374 18C6.56483 18 5.33514 16.9688 5.05326 15.6007H0.773335C0.198891 15.6007 -0.174723 15.0042 0.0819588 14.4971ZM8.03374 16.7985C8.82637 16.7985 9.49433 16.2974 9.74662 15.6007H6.32087C6.57315 16.2974 7.24112 16.7985 8.03374 16.7985ZM1.65188 14.3993H14.4656C14.5834 14.3993 14.6599 14.2769 14.6072 14.1731L14.1094 13.1914C13.3113 11.6178 12.8957 9.88232 12.8957 8.12253V6.04092C12.8957 3.39706 10.7041 1.197 8.02519 1.20158C5.34274 1.20615 3.16784 3.35156 3.16784 5.99999V9.60237C3.16784 10.389 2.98246 11.1648 2.62632 11.8686L1.48242 14.1287C1.41956 14.253 1.51118 14.3993 1.65188 14.3993Z" fill="#292935"/>
</svg>
