<svg width="47" height="44" viewBox="0 0 47 44" fill="none" xmlns="http://www.w3.org/2000/svg">
<path d="M24.4473 40.4464H3.9313C2.54195 40.4464 1.41216 39.3208 1.41216 37.9391V7.99979C1.41216 6.6177 2.54231 5.49251 3.9313 5.49251H6.94884C7.07469 7.7326 7.93318 9.82933 9.4637 9.82933C9.85409 9.82933 10.1696 9.51494 10.1696 9.12675C10.1696 8.73856 9.85373 8.42417 9.4637 8.42417C9.16744 8.42417 8.4815 7.40118 8.36278 5.49251H15.2425C15.3683 7.7326 16.2268 9.82933 17.7573 9.82933C18.1477 9.82933 18.4632 9.51494 18.4632 9.12675C18.4632 8.73856 18.1473 8.42417 17.7573 8.42417C17.4611 8.42417 16.7751 7.40118 16.6564 5.49251H23.5361C23.6619 7.7326 24.5204 9.82933 26.0502 9.82933C26.4406 9.82933 26.7561 9.51494 26.7561 9.12675C26.7561 8.73856 26.4403 8.42417 26.0502 8.42417C25.754 8.42417 25.0684 7.40118 24.95 5.49251H31.8297C31.9555 7.7326 32.814 9.82933 34.3438 9.82933C34.7342 9.82933 35.0497 9.51494 35.0497 9.12675C35.0497 8.73856 34.7339 8.42417 34.3438 8.42417C34.0476 8.42417 33.362 7.40118 33.2436 5.49251H39.677C41.0663 5.49251 42.1961 6.61806 42.1961 7.99979V20.8623C42.1961 21.2508 42.512 21.5648 42.902 21.5648C43.292 21.5648 43.6079 21.2504 43.6079 20.8623V7.99979C43.6079 5.84238 41.8442 4.08701 39.6766 4.08701H36.8409C36.6651 1.96757 35.8023 0 34.3438 0C32.8853 0 32.0208 1.94344 31.8472 4.08701H28.5476C28.3719 1.96757 27.5091 0 26.0506 0C24.5921 0 23.7275 1.94344 23.5539 4.08701H20.2544C20.0786 1.96757 19.2165 0 17.758 0C16.2995 0 15.4343 1.94344 15.2606 4.08701H11.9611C11.7843 1.96757 10.9222 0 9.46335 0C8.00448 0 7.13958 1.94344 6.96595 4.08701H3.9313C1.76368 4.08701 0 5.84238 0 7.99979V37.9391C0 40.0965 1.76368 41.8519 3.9313 41.8519H24.4473C24.8377 41.8519 25.1532 41.5375 25.1532 41.1493C25.1532 40.7611 24.8374 40.4464 24.4473 40.4464ZM34.3431 1.40551C34.6162 1.40551 35.2612 2.34086 35.4237 4.08736H33.2618C33.4215 2.33944 34.0604 1.40551 34.3431 1.40551ZM26.0495 1.40551C26.3226 1.40551 26.9675 2.34086 27.1301 4.08736H24.9682C25.1279 2.33944 25.7664 1.40551 26.0495 1.40551ZM17.7566 1.40551C18.0297 1.40551 18.6739 2.34086 18.8365 4.08736H16.6746C16.8347 2.33944 17.4735 1.40551 17.7566 1.40551ZM9.46299 1.40551C9.73608 1.40551 10.3803 2.34086 10.5429 4.08736H8.38096C8.54104 2.33944 9.17992 1.40551 9.46299 1.40551Z" fill="url(#paint0_linear_6367_6988)"/>
<path d="M21.0938 14.0036C21.0938 13.1321 20.3815 12.4238 19.5058 12.4238H15.0608C14.1859 12.4238 13.4736 13.1321 13.4736 14.0036V17.9206C13.4736 18.7921 14.1859 19.5018 15.0608 19.5018H19.5058C20.3815 19.5018 21.0938 18.7921 21.0938 17.9206V14.0036ZM19.6816 17.9206C19.6816 18.0182 19.6032 18.0962 19.5058 18.0962H15.0608C14.9642 18.0962 14.8858 18.0182 14.8858 17.9206V14.0036C14.8858 13.9074 14.9642 13.8293 15.0608 13.8293H19.5058C19.6032 13.8293 19.6816 13.9074 19.6816 14.0036V17.9206Z" fill="url(#paint1_linear_6367_6988)"/>
<path d="M24.108 12.4238C23.2324 12.4238 22.5201 13.1321 22.5201 14.0036V17.9206C22.5201 18.7921 23.2324 19.5018 24.108 19.5018H28.5531C29.4287 19.5018 30.141 18.7921 30.141 17.9206V14.0036C30.141 13.1321 29.4287 12.4238 28.5531 12.4238H24.108ZM28.7288 14.0036V17.9206C28.7288 18.0182 28.6504 18.0962 28.5531 18.0962H24.108C24.0107 18.0962 23.9323 18.0182 23.9323 17.9206V14.0036C23.9323 13.9074 24.0107 13.8293 24.108 13.8293H28.5531C28.6504 13.8293 28.7288 13.9074 28.7288 14.0036Z" fill="url(#paint2_linear_6367_6988)"/>
<path d="M33.1506 12.4238C32.275 12.4238 31.5627 13.1321 31.5627 14.0036V17.9206C31.5627 18.7921 32.275 19.5018 33.1506 19.5018H37.5957C38.4705 19.5018 39.1829 18.7921 39.1829 17.9206V14.0036C39.1829 13.1321 38.4705 12.4238 37.5957 12.4238H33.1506ZM37.7707 14.0036V17.9206C37.7707 18.0182 37.6923 18.0962 37.5957 18.0962H33.1506C33.0533 18.0962 32.9749 18.0182 32.9749 17.9206V14.0036C32.9749 13.9074 33.0533 13.8293 33.1506 13.8293H37.5957C37.6923 13.8293 37.7707 13.9074 37.7707 14.0036Z" fill="url(#paint3_linear_6367_6988)"/>
<path d="M12.0473 22.65C12.0473 21.7786 11.3349 21.0703 10.4593 21.0703H6.01431C5.13942 21.0703 4.4271 21.7786 4.4271 22.65V26.5681C4.4271 27.4396 5.13942 28.1479 6.01431 28.1479H10.4593C11.3349 28.1479 12.0473 27.4396 12.0473 26.5681V22.65ZM10.6351 26.5681C10.6351 26.6643 10.5567 26.7424 10.4593 26.7424H6.01431C5.91769 26.7424 5.83926 26.6643 5.83926 26.5681V22.65C5.83926 22.5539 5.91769 22.4758 6.01431 22.4758H10.4593C10.5567 22.4758 10.6351 22.5539 10.6351 22.65V26.5681Z" fill="url(#paint4_linear_6367_6988)"/>
<path d="M21.0938 22.65C21.0938 21.7786 20.3815 21.0703 19.5058 21.0703H15.0608C14.1859 21.0703 13.4736 21.7786 13.4736 22.65V26.5681C13.4736 27.4396 14.1859 28.1479 15.0608 28.1479H19.5058C20.3815 28.1479 21.0938 27.4396 21.0938 26.5681V22.65ZM19.6816 26.5681C19.6816 26.6643 19.6032 26.7424 19.5058 26.7424H15.0608C14.9642 26.7424 14.8858 26.6643 14.8858 26.5681V22.65C14.8858 22.5539 14.9642 22.4758 15.0608 22.4758H19.5058C19.6032 22.4758 19.6816 22.5539 19.6816 22.65V26.5681Z" fill="url(#paint5_linear_6367_6988)"/>
<path d="M10.4593 29.7178H6.01431C5.13942 29.7178 4.4271 30.4274 4.4271 31.2989V35.216C4.4271 36.0874 5.13942 36.7971 6.01431 36.7971H10.4593C11.3349 36.7971 12.0473 36.0874 12.0473 35.216V31.2989C12.0473 30.4274 11.3349 29.7178 10.4593 29.7178ZM10.6351 35.2156C10.6351 35.3132 10.5567 35.3913 10.4593 35.3913H6.01431C5.91769 35.3913 5.83926 35.3132 5.83926 35.2156V31.2986C5.83926 31.201 5.91769 31.1229 6.01431 31.1229H10.4593C10.5567 31.1229 10.6351 31.201 10.6351 31.2986V35.2156Z" fill="url(#paint6_linear_6367_6988)"/>
<path d="M19.5058 29.7178H15.0608C14.1859 29.7178 13.4736 30.4274 13.4736 31.2989V35.216C13.4736 36.0874 14.1859 36.7971 15.0608 36.7971H19.5058C20.3815 36.7971 21.0938 36.0874 21.0938 35.216V31.2989C21.0938 30.4274 20.3815 29.7178 19.5058 29.7178ZM19.6816 35.2156C19.6816 35.3132 19.6032 35.3913 19.5058 35.3913H15.0608C14.9642 35.3913 14.8858 35.3132 14.8858 35.2156V31.2986C14.8858 31.201 14.9642 31.1229 15.0608 31.1229H19.5058C19.6032 31.1229 19.6816 31.201 19.6816 31.2986V35.2156Z" fill="url(#paint7_linear_6367_6988)"/>
<path d="M35.481 21.0713C34.4628 21.0713 33.4521 21.2044 32.4756 21.4666C32.0991 21.5666 31.8763 21.9523 31.9779 22.3271C32.0805 22.7046 32.4674 22.9253 32.8438 22.8224C33.6995 22.5932 34.5868 22.4764 35.481 22.4764C41.054 22.4764 45.5878 26.9889 45.5878 32.5364C45.5878 38.0839 41.054 42.595 35.481 42.595C29.9079 42.595 25.3741 38.0825 25.3741 32.5364C25.3741 30.2658 26.1185 28.1226 27.4936 26.369L27.6287 28.6211C27.6508 28.993 27.9617 29.2811 28.3329 29.2811C28.3475 29.2811 28.361 29.2811 28.3756 29.2797C28.7653 29.2563 29.0616 28.9242 29.038 28.536L28.7974 24.5285C28.7856 24.3322 28.6911 24.1484 28.5368 24.0249C28.3824 23.9015 28.1831 23.8465 27.9867 23.8766L23.9873 24.4834C23.6019 24.5409 23.3363 24.9007 23.3958 25.2836C23.4543 25.6678 23.8094 25.934 24.1998 25.8722L26.3467 25.5472C24.7994 27.5385 23.9627 29.9663 23.9627 32.5368C23.9627 38.8582 29.13 44.0005 35.4813 44.0005C41.8327 44.0005 47 38.8582 47 32.5368C47 26.2154 41.8323 21.0713 35.481 21.0713Z" fill="url(#paint8_linear_6367_6988)"/>
<path d="M30.4902 31.3943C30.2143 31.6689 30.2143 32.1136 30.4902 32.3878L34.0635 35.9437C34.2015 36.081 34.3819 36.1495 34.5627 36.1495C34.7434 36.1495 34.9238 36.081 35.0618 35.9437L40.5525 30.4788C40.8284 30.2042 40.8284 29.7596 40.5525 29.4853C40.2765 29.2106 39.8298 29.2106 39.5542 29.4853L34.5627 34.4533L31.4884 31.3943C31.2125 31.1197 30.7658 31.1197 30.4902 31.3943Z" fill="url(#paint9_linear_6367_6988)"/>
<defs>
<linearGradient id="paint0_linear_6367_6988" x1="-8.75443e-08" y1="22.0002" x2="47" y2="22.0002" gradientUnits="userSpaceOnUse">
<stop stop-color="#84BCC3"/>
<stop offset="0.276042" stop-color="#68ADB0"/>
<stop offset="0.640625" stop-color="#6FB482"/>
<stop offset="1" stop-color="#92B661"/>
</linearGradient>
<linearGradient id="paint1_linear_6367_6988" x1="-8.75443e-08" y1="22.0002" x2="47" y2="22.0002" gradientUnits="userSpaceOnUse">
<stop stop-color="#84BCC3"/>
<stop offset="0.276042" stop-color="#68ADB0"/>
<stop offset="0.640625" stop-color="#6FB482"/>
<stop offset="1" stop-color="#92B661"/>
</linearGradient>
<linearGradient id="paint2_linear_6367_6988" x1="-8.75443e-08" y1="22.0002" x2="47" y2="22.0002" gradientUnits="userSpaceOnUse">
<stop stop-color="#84BCC3"/>
<stop offset="0.276042" stop-color="#68ADB0"/>
<stop offset="0.640625" stop-color="#6FB482"/>
<stop offset="1" stop-color="#92B661"/>
</linearGradient>
<linearGradient id="paint3_linear_6367_6988" x1="-8.75443e-08" y1="22.0002" x2="47" y2="22.0002" gradientUnits="userSpaceOnUse">
<stop stop-color="#84BCC3"/>
<stop offset="0.276042" stop-color="#68ADB0"/>
<stop offset="0.640625" stop-color="#6FB482"/>
<stop offset="1" stop-color="#92B661"/>
</linearGradient>
<linearGradient id="paint4_linear_6367_6988" x1="-8.75443e-08" y1="22.0002" x2="47" y2="22.0002" gradientUnits="userSpaceOnUse">
<stop stop-color="#84BCC3"/>
<stop offset="0.276042" stop-color="#68ADB0"/>
<stop offset="0.640625" stop-color="#6FB482"/>
<stop offset="1" stop-color="#92B661"/>
</linearGradient>
<linearGradient id="paint5_linear_6367_6988" x1="-8.75443e-08" y1="22.0002" x2="47" y2="22.0002" gradientUnits="userSpaceOnUse">
<stop stop-color="#84BCC3"/>
<stop offset="0.276042" stop-color="#68ADB0"/>
<stop offset="0.640625" stop-color="#6FB482"/>
<stop offset="1" stop-color="#92B661"/>
</linearGradient>
<linearGradient id="paint6_linear_6367_6988" x1="-8.75443e-08" y1="22.0002" x2="47" y2="22.0002" gradientUnits="userSpaceOnUse">
<stop stop-color="#84BCC3"/>
<stop offset="0.276042" stop-color="#68ADB0"/>
<stop offset="0.640625" stop-color="#6FB482"/>
<stop offset="1" stop-color="#92B661"/>
</linearGradient>
<linearGradient id="paint7_linear_6367_6988" x1="-8.75443e-08" y1="22.0002" x2="47" y2="22.0002" gradientUnits="userSpaceOnUse">
<stop stop-color="#84BCC3"/>
<stop offset="0.276042" stop-color="#68ADB0"/>
<stop offset="0.640625" stop-color="#6FB482"/>
<stop offset="1" stop-color="#92B661"/>
</linearGradient>
<linearGradient id="paint8_linear_6367_6988" x1="-8.75443e-08" y1="22.0002" x2="47" y2="22.0002" gradientUnits="userSpaceOnUse">
<stop stop-color="#84BCC3"/>
<stop offset="0.276042" stop-color="#68ADB0"/>
<stop offset="0.640625" stop-color="#6FB482"/>
<stop offset="1" stop-color="#92B661"/>
</linearGradient>
<linearGradient id="paint9_linear_6367_6988" x1="-8.75443e-08" y1="22.0002" x2="47" y2="22.0002" gradientUnits="userSpaceOnUse">
<stop stop-color="#84BCC3"/>
<stop offset="0.276042" stop-color="#68ADB0"/>
<stop offset="0.640625" stop-color="#6FB482"/>
<stop offset="1" stop-color="#92B661"/>
</linearGradient>
</defs>
</svg>
