<svg width="35" height="35" viewBox="0 0 35 35" fill="none" xmlns="http://www.w3.org/2000/svg">
<g clip-path="url(#clip0_5826_874)">
<path d="M16.4056 25.1237C16.4068 25.1252 16.408 25.1262 16.4091 25.1272C16.426 25.1438 16.4433 25.1602 16.4608 25.1762C16.4701 25.1846 16.4798 25.1926 16.4893 25.2006C16.4988 25.2088 16.5083 25.2172 16.518 25.2252C16.5299 25.235 16.5423 25.2442 16.5545 25.2536C16.5621 25.2594 16.5695 25.2655 16.5771 25.2711C16.5905 25.2809 16.6041 25.2903 16.6178 25.2998C16.6246 25.3045 16.6316 25.3094 16.6384 25.3141C16.6524 25.3235 16.6666 25.3323 16.6809 25.3411C16.6879 25.3454 16.6949 25.3502 16.7021 25.3543C16.7161 25.3627 16.7303 25.3707 16.7446 25.3784C16.7524 25.3827 16.7602 25.3873 16.7683 25.3916C16.7817 25.3987 16.7953 25.4055 16.8089 25.4123C16.8182 25.4168 16.8273 25.4215 16.8367 25.426C16.8491 25.4319 16.8617 25.4373 16.8743 25.4428C16.8852 25.4475 16.8961 25.4524 16.9071 25.4569C16.9182 25.4614 16.9293 25.4657 16.9407 25.47C16.9535 25.475 16.966 25.4799 16.9788 25.4844C16.9887 25.4879 16.9986 25.4912 17.0085 25.4944C17.0227 25.4991 17.0372 25.5039 17.0516 25.5084C17.0539 25.509 17.0564 25.51 17.0586 25.5106C17.065 25.5125 17.0716 25.5141 17.078 25.5157C17.0937 25.52 17.1091 25.5244 17.125 25.5282C17.1333 25.5303 17.1415 25.5319 17.1498 25.534C17.1661 25.5377 17.1823 25.5414 17.1988 25.5446C17.2073 25.5463 17.2158 25.5477 17.2242 25.5491C17.2403 25.552 17.2566 25.5549 17.2729 25.5573C17.2826 25.5588 17.2925 25.5598 17.3021 25.561C17.3172 25.5629 17.3323 25.5649 17.3475 25.5664C17.3605 25.5676 17.3735 25.5684 17.3867 25.5692C17.3989 25.5701 17.4108 25.5713 17.423 25.5719C17.4486 25.5731 17.4739 25.5737 17.4995 25.5737C17.5251 25.5737 17.5504 25.5731 17.576 25.5719C17.5882 25.5713 17.6001 25.5703 17.6121 25.5692C17.6251 25.5682 17.6383 25.5676 17.6513 25.5664C17.6665 25.5649 17.6814 25.5629 17.6964 25.561C17.7061 25.5598 17.716 25.5588 17.7257 25.5573C17.742 25.5549 17.7581 25.552 17.7744 25.5491C17.7828 25.5477 17.7913 25.5463 17.7997 25.5446C17.8162 25.5414 17.8323 25.5377 17.8486 25.534C17.8568 25.5321 17.8651 25.5303 17.8733 25.5282C17.889 25.5244 17.9047 25.52 17.9201 25.5157C17.929 25.5133 17.9379 25.5108 17.9467 25.5082C17.9612 25.5039 17.9754 25.4991 17.9896 25.4944C17.9995 25.4912 18.0096 25.4879 18.0195 25.4844C18.0323 25.4799 18.0449 25.475 18.0575 25.47C18.0688 25.4657 18.0802 25.4614 18.0913 25.4567C18.1022 25.4522 18.1129 25.4475 18.1239 25.4426C18.1365 25.4371 18.149 25.4315 18.1616 25.4256C18.1709 25.4213 18.18 25.4166 18.189 25.4121C18.2029 25.4053 18.2165 25.3983 18.2301 25.3911C18.2379 25.3871 18.2455 25.3825 18.2534 25.3782C18.2678 25.3702 18.282 25.3623 18.2963 25.3539C18.3033 25.3498 18.3101 25.3452 18.3171 25.3409C18.3315 25.3319 18.346 25.3229 18.3602 25.3135C18.367 25.309 18.3736 25.3043 18.3804 25.2995C18.3942 25.2899 18.408 25.2805 18.4216 25.2704C18.4291 25.2649 18.4363 25.2592 18.4437 25.2534C18.4561 25.2438 18.4687 25.2344 18.4808 25.2245C18.4903 25.2168 18.4994 25.2088 18.5087 25.2008C18.5183 25.1924 18.5282 25.1842 18.5379 25.1756C18.5551 25.1602 18.5718 25.1442 18.5883 25.128C18.5899 25.1264 18.5915 25.1249 18.5932 25.1233L28.2374 15.5388C28.8414 14.9386 28.8414 13.9654 28.2374 13.3652C27.6334 12.7649 26.6542 12.7649 26.0502 13.3652L19.046 20.326V1.53696C19.046 0.688147 18.3536 0 17.4995 0C16.6454 0 15.953 0.688147 15.953 1.53696V20.3266L8.94879 13.3658C8.34482 12.7656 7.36555 12.7656 6.76157 13.3658C6.1576 13.966 6.1576 14.9392 6.76157 15.5395L16.4056 25.1237Z" fill="#70B483"/>
<path d="M33.4535 27.0674C32.5994 27.0674 31.9069 27.7556 31.9069 28.6044V30.8658C31.9069 31.4504 31.4283 31.9261 30.84 31.9261H4.15998C3.57168 31.9261 3.09308 31.4504 3.09308 30.8658V28.6044C3.09308 27.7556 2.40064 27.0674 1.54654 27.0674C0.692436 27.0674 0 27.7554 0 28.6044V30.8658C0 33.1454 1.86616 35 4.15998 35H30.84C33.1338 35 35 33.1454 35 30.8658V28.6044C35 27.7556 34.3076 27.0674 33.4535 27.0674Z" fill="#70B483"/>
</g>
<defs>
<clipPath id="clip0_5826_874">
<rect width="35" height="35" fill="white"/>
</clipPath>
</defs>
</svg>
