<svg width="48" height="48" viewBox="0 0 48 48" fill="none" xmlns="http://www.w3.org/2000/svg">
<path d="M24 48C37.2542 48 48 37.2553 48 24C48 10.7447 37.2542 0 24 0C10.7458 0 0 10.7447 0 24C0 37.2553 10.7447 48 24 48Z" fill="#96C9C3"/>
<path d="M12.8768 13.0284L10.1054 10.8215C10.0162 10.7503 9.90893 10.7176 9.80281 10.7289C9.69783 10.7413 9.59962 10.7966 9.5285 10.8869C9.45625 10.9772 9.42464 11.0845 9.43819 11.1895C9.45173 11.2922 9.50818 11.387 9.59736 11.4593L10.6698 12.3127L9.60413 13.6504L8.53282 12.797C8.34656 12.6491 8.10498 12.6762 7.95597 12.8625C7.81034 13.0453 7.83856 13.2858 8.02483 13.4348L10.7962 15.6418C10.8764 15.705 10.9667 15.7366 11.0559 15.7366C11.1733 15.7366 11.2884 15.6824 11.3731 15.5763C11.4453 15.486 11.4769 15.3787 11.4634 15.2738C11.4499 15.171 11.3934 15.0751 11.3042 15.004L10.1742 14.1042L11.2399 12.7665L12.3699 13.6662C12.5562 13.8141 12.7989 13.787 12.9467 13.6008C13.0924 13.4179 13.0641 13.1774 12.8779 13.0284H12.8768Z" fill="white"/>
<path d="M15.3133 8.88664C14.9261 8.3572 14.4723 8.01289 14.0016 7.89322C13.5015 7.76566 12.9788 7.88645 12.49 8.24431C11.5293 8.94647 11.439 10.0246 12.2462 11.1297L12.2529 11.1399C12.6717 11.7122 13.1414 12.0577 13.6516 12.1672C13.7645 12.1909 13.8774 12.2033 13.9903 12.2033C14.3662 12.2033 14.7432 12.0712 15.0977 11.8127C16.0584 11.1105 16.1408 10.0212 15.319 8.8968L15.3122 8.88777L15.3133 8.88664ZM15.1462 10.4976C15.1327 10.7719 14.9792 11.0123 14.6755 11.2336C14.373 11.4548 14.0975 11.5282 13.8311 11.4582C13.5511 11.3837 13.2723 11.1534 12.9799 10.7527L12.7891 10.4919C12.2992 9.82135 12.3444 9.26481 12.9257 8.84036C13.1515 8.67554 13.3728 8.592 13.585 8.592C13.6573 8.592 13.7284 8.60103 13.7995 8.62135C14.058 8.69247 14.3075 8.89116 14.5412 9.21176L14.7319 9.47253C15.0255 9.87328 15.1609 10.2086 15.1462 10.4976Z" fill="white"/>
<path d="M19.7734 5.46508C19.7238 5.32284 19.6278 5.21108 19.5036 5.15238C19.3795 5.09368 19.2316 5.08916 19.0871 5.13884L18.9934 5.17157C18.6671 5.28559 18.6039 5.46395 18.605 5.73601L18.657 8.7061L16.8666 6.34448C16.6837 6.09838 16.494 6.04307 16.1926 6.14918L16.0989 6.18192C15.7987 6.28691 15.6609 6.568 15.7648 6.86489L16.8711 10.0348C16.9083 10.1409 16.9783 10.2267 17.0686 10.2741C17.1228 10.3023 17.1815 10.317 17.2425 10.317C17.2865 10.317 17.3317 10.3091 17.3757 10.2933C17.4807 10.2572 17.5608 10.1827 17.6015 10.0856C17.6399 9.99415 17.641 9.88465 17.6037 9.77853L16.8203 7.53432L18.3883 9.56292C18.5418 9.7616 18.7258 9.8203 18.9505 9.74241L19.0385 9.71193C19.2519 9.63742 19.3591 9.47374 19.3558 9.22538L19.3162 6.62896L20.1098 8.90365C20.1471 9.01202 20.2205 9.09669 20.3164 9.14297C20.4124 9.18926 20.5241 9.19377 20.6325 9.15539C20.8538 9.07863 20.9576 8.85963 20.8786 8.63498L19.7723 5.46508H19.7734Z" fill="white"/>
<path d="M24.1204 8.07047L22.5231 8.1653L22.4621 7.13915L23.9285 7.05222C24.0267 7.04658 24.1148 7.00368 24.1757 6.93143C24.2367 6.86031 24.266 6.76549 24.2604 6.66502C24.248 6.45617 24.0899 6.31394 23.8856 6.32635L22.4181 6.41328L22.3571 5.38713L23.9421 5.2923C24.1509 5.27988 24.292 5.11394 24.2796 4.89832C24.2672 4.68609 24.1046 4.54159 23.898 4.55401L22.102 4.66125C21.9338 4.67141 21.7836 4.74141 21.6809 4.85768C21.5782 4.97395 21.5262 5.13087 21.5364 5.29907L21.717 8.32786C21.7374 8.66201 21.9846 8.89456 22.3119 8.89456C22.3255 8.89456 22.3402 8.89456 22.3537 8.89343L24.1622 8.78506C24.2604 8.77941 24.3473 8.73764 24.4072 8.66765C24.467 8.59766 24.4952 8.50622 24.4884 8.40462C24.4828 8.30189 24.4433 8.21497 24.3744 8.15401C24.3078 8.09531 24.2175 8.06596 24.1204 8.0716V8.07047Z" fill="white"/>
<path d="M27.4577 4.89145L26.5275 4.73341C26.3615 4.70519 26.2001 4.73905 26.0725 4.82936C25.9461 4.91967 25.8603 5.06078 25.8321 5.22673L25.28 8.46887C25.2405 8.70368 25.3816 8.90236 25.6153 8.94188C25.6413 8.94639 25.6661 8.94865 25.691 8.94865C25.8885 8.94865 26.0477 8.81318 26.0827 8.60547L26.2723 7.48675L26.8898 7.59173C27.8415 7.75429 28.4725 7.35354 28.6193 6.49446C28.766 5.62635 28.3427 5.04272 27.4554 4.89258L27.4577 4.89145ZM27.8313 6.35335C27.7726 6.69653 27.6259 6.99681 26.9485 6.8828L26.392 6.78797L26.6121 5.49202L27.2714 5.6049C27.7444 5.68506 27.9058 5.9018 27.8291 6.35335H27.8313Z" fill="white"/>
<path d="M31.1503 9.76256L29.7133 9.16312L30.9358 6.23142C31.0273 6.01242 30.9347 5.78664 30.7157 5.6952C30.499 5.60489 30.2755 5.69972 30.184 5.91872L28.9185 8.95428C28.7842 9.27714 28.9208 9.6079 29.2425 9.74224L30.8749 10.423C30.9268 10.4444 30.9776 10.4557 31.0273 10.4557C31.0713 10.4557 31.1142 10.4478 31.1537 10.4309C31.2384 10.3959 31.305 10.327 31.3434 10.2356C31.4235 10.0425 31.3422 9.84384 31.1492 9.76369L31.1503 9.76256Z" fill="white"/>
<path d="M35.6963 8.43275L35.5473 8.32099C35.3215 8.15166 35.0856 8.15617 34.8259 8.33341L31.8717 10.3722C31.7543 10.4546 31.682 10.5765 31.6798 10.7007C31.6775 10.8158 31.7339 10.9219 31.8378 10.9987C31.9857 11.1093 32.1561 11.1014 32.3447 10.9727L33.1338 10.4241L34.3428 11.3272L34.0369 12.2755C33.9748 12.464 34.0233 12.6299 34.1757 12.7428C34.2525 12.8004 34.336 12.8297 34.4195 12.8297C34.4568 12.8297 34.4941 12.8241 34.5302 12.8117C34.6521 12.771 34.7514 12.6672 34.7898 12.5407L35.8905 9.12588C35.9864 8.82786 35.9232 8.60095 35.6974 8.43162L35.6963 8.43275ZM35.0811 9.06266L34.5832 10.5991L33.7603 9.98496L35.0811 9.06266Z" fill="white"/>
<path d="M40.0486 12.9393C39.9843 12.858 39.8951 12.8061 39.7969 12.7948C39.6919 12.7824 39.5813 12.8174 39.4876 12.8919L37.3958 14.5513L38.6048 11.9222C38.7132 11.6975 38.8238 11.465 38.5958 11.1782L38.4806 11.0326C38.4727 11.0224 38.4648 11.0134 38.4569 11.0044H38.4558C38.2571 10.7809 37.9625 10.7549 37.7254 10.9423L35.1098 13.016C35.0217 13.086 34.9642 13.1809 34.9495 13.2813C34.9337 13.3852 34.963 13.4913 35.0319 13.5771C35.1008 13.664 35.1967 13.7159 35.3017 13.7227C35.401 13.7295 35.5049 13.6945 35.593 13.6245L37.7401 11.9222L36.4961 14.6755C36.4001 14.8877 36.2996 15.1079 36.5152 15.3788L36.6236 15.5154C36.7275 15.6463 36.8663 15.7141 37.0097 15.7141C37.1203 15.7141 37.2332 15.6746 37.3348 15.5933L39.9696 13.5037C40.0622 13.4303 40.1198 13.3321 40.1322 13.226C40.1435 13.1255 40.1141 13.0251 40.0475 12.9415L40.0486 12.9393Z" fill="white"/>
<path d="M18.9268 38.3422L18.0181 38.0092C17.6602 37.8783 17.3058 38.0397 17.1748 38.3953L16.1035 41.3146C15.9951 41.6081 16.1306 41.9005 16.4252 42.0088C16.4941 42.0337 16.5618 42.0461 16.6273 42.0461C16.8429 42.0461 17.0292 41.914 17.1127 41.6849L17.4029 40.8935L17.868 41.064C18.849 41.423 19.5681 41.1351 19.892 40.2523C20.0512 39.8177 20.0523 39.4327 19.892 39.1087C19.7295 38.7769 19.4044 38.5195 18.9246 38.3434L18.9268 38.3422ZM18.8907 39.8967C18.7699 40.2252 18.5871 40.4058 18.0847 40.2218L17.7009 40.0807L18.096 39.0049L18.5498 39.1708C18.7519 39.2453 18.8749 39.339 18.9246 39.4587C18.9697 39.5682 18.9596 39.7116 18.8907 39.8967Z" fill="white"/>
<path d="M22.7906 42.5452L21.5285 42.3894L21.8774 39.5514C21.9157 39.2409 21.7171 38.9869 21.4066 38.9486C21.0939 38.9102 20.849 39.1044 20.8106 39.4204L20.4313 42.5057C20.4098 42.684 20.4516 42.8545 20.5509 42.9866C20.6537 43.1232 20.8128 43.2101 20.9991 43.2327L22.68 43.4392C22.7048 43.4426 22.7297 43.4438 22.7534 43.4438C22.9927 43.4438 23.1677 43.2936 23.197 43.052C23.2298 42.7868 23.0616 42.5779 22.7895 42.5452H22.7906Z" fill="white"/>
<path d="M27.5871 39.3967C27.5521 39.0806 27.3072 38.8842 26.99 38.9192C26.8274 38.9373 26.6965 39.0073 26.6107 39.1213C26.5294 39.2285 26.4955 39.3651 26.5125 39.5164L26.7518 41.6568C26.7856 41.9616 26.7552 42.1738 26.6592 42.3059C26.5655 42.4346 26.3939 42.5079 26.1207 42.5384C25.8487 42.5689 25.6658 42.5339 25.545 42.4278C25.4208 42.3194 25.3441 42.1173 25.3102 41.8114L25.072 39.6778C25.0551 39.5299 24.9885 39.4001 24.8835 39.3132C24.774 39.2229 24.6283 39.1834 24.4748 39.2003C24.1621 39.2353 23.9691 39.4803 24.0041 39.7975L24.2253 41.7775C24.2976 42.4199 24.52 42.8827 24.888 43.1548C25.151 43.3489 25.4897 43.4472 25.8983 43.4472C26.0022 43.4472 26.1094 43.4404 26.2212 43.428C26.7924 43.3647 27.2022 43.1819 27.472 42.8692C27.7689 42.526 27.8829 42.0259 27.8107 41.3824L27.5883 39.3967H27.5871Z" fill="white"/>
<path d="M31.8256 40.4761C31.6574 40.0256 31.3944 39.7716 30.9981 39.6757C30.7317 39.6136 30.4269 39.6633 30.1312 39.7118C29.9201 39.7468 29.7202 39.7784 29.5599 39.7637C29.4019 39.7536 29.3454 39.6859 29.3059 39.5809C29.2269 39.3686 29.2653 39.1937 29.7078 39.0277C29.8817 38.9634 29.9991 38.9521 30.095 38.9464C30.1549 38.9464 30.2068 38.9532 30.2565 38.9589C30.3581 38.9713 30.4642 38.9837 30.5929 38.9351C30.7114 38.8911 30.8006 38.8144 30.8514 38.7128C30.9022 38.6112 30.9056 38.4915 30.8627 38.3764C30.7103 37.9688 30.1176 37.8785 29.3872 38.1517C28.9786 38.3041 28.6636 38.5378 28.4751 38.8256C28.2561 39.1609 28.2222 39.556 28.3757 39.9669C28.5586 40.4591 28.8578 40.7289 29.289 40.7944C29.5317 40.8317 29.8331 40.7888 30.0984 40.7504C30.3118 40.7199 30.5127 40.6906 30.6369 40.7131C30.7667 40.7244 30.8198 40.7685 30.8706 40.9039C30.9078 41.0044 31.0218 41.3103 30.4416 41.5271C30.2508 41.5982 30.077 41.623 29.9133 41.5982C29.8309 41.5925 29.7677 41.5733 29.7056 41.5553C29.6051 41.5248 29.4911 41.4909 29.3477 41.544C29.2326 41.5869 29.1468 41.6625 29.1005 41.7619C29.0531 41.8635 29.0519 41.9786 29.0948 42.096C29.1851 42.3387 29.4674 42.525 29.92 42.525C30.1616 42.525 30.4506 42.4719 30.7859 42.3478C31.2465 42.1762 31.575 41.9335 31.7601 41.6264C31.9622 41.2923 31.9836 40.905 31.8233 40.4761H31.8256Z" fill="white"/>
<path d="M14.5213 38.8121C14.4321 38.8121 14.3429 38.7873 14.2628 38.7342C9.24605 35.4368 6.25 29.8883 6.25 23.8917C6.25 21.1914 6.8404 18.5984 8.00654 16.1848C8.11943 15.95 8.40165 15.8518 8.63645 15.9658C8.87126 16.0787 8.96947 16.361 8.85546 16.5958C7.75254 18.8806 7.19262 21.3359 7.19262 23.8928C7.19262 29.57 10.0295 34.8249 14.7798 37.9474C14.9977 38.0908 15.0575 38.3832 14.9142 38.601C14.8238 38.7388 14.6737 38.8133 14.5202 38.8133" fill="white"/>
<path d="M33.425 38.8468C33.2703 38.8468 33.1202 38.7712 33.0299 38.6323C32.8876 38.4145 32.9486 38.1221 33.1676 37.9798C37.9506 34.8607 40.8056 29.5945 40.8056 23.8914C40.8056 21.2577 40.2141 18.7358 39.0457 16.3968C38.9294 16.1631 39.0242 15.8809 39.2568 15.7635C39.4893 15.6472 39.7727 15.742 39.8889 15.9746C41.1228 18.4457 41.7482 21.1087 41.7482 23.8903C41.7482 29.9129 38.733 35.4749 33.6812 38.7689C33.6022 38.8209 33.513 38.8457 33.4238 38.8457" fill="white"/>
<path d="M24.0011 14.5895C23.8713 14.5895 23.7437 14.629 23.6365 14.7024L17.203 19.0745C17.1161 19.1332 17.045 19.2134 16.9953 19.3059C16.9456 19.3985 16.9208 19.5024 16.9208 19.6074V30.0235C16.9208 30.194 16.9896 30.3577 17.1104 30.4785C17.2312 30.5993 17.396 30.667 17.5676 30.667H30.4346C30.6062 30.667 30.7699 30.5993 30.8918 30.4785C31.0126 30.3577 31.0815 30.194 31.0815 30.0235V19.6062C31.0815 19.5012 31.0555 19.3974 31.0069 19.3048C30.9573 19.2122 30.8862 19.1321 30.7992 19.0734L24.3657 14.7024C24.2585 14.629 24.1321 14.5895 24.0022 14.5895M30.4357 32.1899H17.5688C16.9919 32.1899 16.4399 31.9607 16.0323 31.5543C15.6248 31.1479 15.3957 30.597 15.3945 30.0224V19.6062C15.3945 19.2529 15.4803 18.9052 15.6463 18.5936C15.8111 18.2809 16.0515 18.0145 16.3439 17.8158L22.7774 13.4437C23.1387 13.1987 23.5654 13.0666 24.0022 13.0666C24.4391 13.0666 24.8658 13.1976 25.2271 13.4437L31.6606 17.8158C31.953 18.0145 32.1923 18.282 32.3582 18.5936C32.523 18.9052 32.61 19.2529 32.61 19.6062V30.0224C32.61 30.597 32.3797 31.1479 31.9721 31.5543C31.5646 31.9607 31.0115 32.1887 30.4357 32.1899Z" fill="white"/>
<path d="M22.6372 26.7477C22.3516 26.7477 22.0682 26.6923 21.8041 26.584C21.5399 26.4745 21.3006 26.3153 21.0985 26.1132L19.6637 24.6829C19.5249 24.5396 19.4481 24.3465 19.4492 24.1478C19.4504 23.948 19.5316 23.7573 19.6727 23.6161C19.8139 23.475 20.0058 23.3949 20.2067 23.3926C20.4077 23.3915 20.5996 23.4671 20.7441 23.606L22.1789 25.0363C22.2997 25.1571 22.4645 25.2248 22.6361 25.2248C22.8077 25.2248 22.9725 25.1571 23.0933 25.0363L27.2419 20.9012C27.313 20.8289 27.3965 20.7725 27.4902 20.733C27.5839 20.6935 27.6833 20.6732 27.7838 20.6732C27.8842 20.6732 27.9847 20.6923 28.0773 20.7307C28.171 20.7691 28.2556 20.8256 28.3267 20.8967C28.3979 20.9678 28.4543 21.0525 28.4927 21.145C28.5311 21.2376 28.5503 21.3381 28.5503 21.4385C28.5503 21.539 28.5299 21.6383 28.4904 21.7309C28.4509 21.8235 28.3945 21.907 28.3222 21.9781L24.1736 26.1132C23.9727 26.3153 23.7322 26.4756 23.4692 26.584C23.205 26.6923 22.9228 26.7488 22.6372 26.7477Z" fill="white"/>
</svg>
