<svg width="48" height="48" viewBox="0 0 48 48" fill="none" xmlns="http://www.w3.org/2000/svg">
<path d="M24 48C37.2548 48 48 37.2548 48 24C48 10.7452 37.2548 0 24 0C10.7452 0 0 10.7452 0 24C0 37.2548 10.7452 48 24 48Z" fill="url(#paint0_linear_1_11065)"/>
<path d="M12.8779 12.9955L10.1065 10.7886C10.0173 10.7174 9.90893 10.6836 9.80394 10.696C9.69896 10.7084 9.60074 10.7637 9.52962 10.854C9.384 11.0369 9.41335 11.2774 9.59849 11.4252L10.6709 12.2787L9.60526 13.6164L8.53282 12.763C8.44364 12.6918 8.3364 12.6591 8.23028 12.6704C8.1253 12.6828 8.02709 12.7381 7.95597 12.8284C7.81034 13.0113 7.83856 13.2518 8.02483 13.4008L10.7962 15.6077C10.8764 15.671 10.9667 15.7026 11.0559 15.7026C11.1733 15.7026 11.2884 15.6484 11.3731 15.5423C11.5187 15.3594 11.4894 15.1178 11.3031 14.9699L10.1731 14.0702L11.2387 12.7325L12.3688 13.6322C12.555 13.7801 12.7977 13.753 12.9456 13.5667C13.0179 13.4764 13.0495 13.3692 13.0359 13.2642C13.0224 13.1615 12.9659 13.0655 12.8768 12.9944L12.8779 12.9955Z" fill="white"/>
<path d="M15.3206 8.86286L15.3139 8.85383C14.9267 8.32438 14.4728 7.98008 14.0021 7.86041C13.502 7.73285 12.9793 7.85364 12.4905 8.2115C12.0017 8.56935 11.7274 9.02994 11.6981 9.54471C11.6698 10.0301 11.8595 10.5663 12.2467 11.0958L12.2546 11.1059C12.6723 11.6783 13.143 12.0237 13.6533 12.1332C13.7662 12.1569 13.8791 12.1694 13.9919 12.1694C14.3679 12.1694 14.7449 12.0373 15.0994 11.7788C16.0601 11.0766 16.1425 9.98723 15.3206 8.86286ZM15.1468 10.4659C15.1332 10.7402 14.9797 10.9806 14.676 11.2019C14.3735 11.4232 14.0969 11.4965 13.8316 11.4265C13.5517 11.352 13.2728 11.1218 12.9793 10.721L12.7886 10.4602C12.2986 9.78967 12.3438 9.23313 12.9252 8.80867C13.1498 8.64386 13.3688 8.56258 13.5822 8.56258C13.9197 8.56258 14.2403 8.76916 14.5406 9.18008L14.7314 9.44085C15.0249 9.8416 15.1603 10.1769 15.1457 10.4659H15.1468Z" fill="white"/>
<path d="M16.87 10.0008C16.9083 10.1126 16.9828 10.1995 17.0788 10.2458C17.1296 10.2706 17.1849 10.2831 17.2414 10.2831C17.2854 10.2831 17.3305 10.2752 17.3746 10.2605C17.5857 10.1871 17.6816 9.97036 17.6026 9.74572L16.8203 7.5015L18.3883 9.5301C18.5418 9.72878 18.7258 9.78749 18.9505 9.70959L19.0385 9.67911C19.2519 9.60461 19.3591 9.44092 19.3558 9.19257L19.3174 6.59614L20.111 8.87083C20.1482 8.97921 20.2216 9.06387 20.3176 9.11016C20.4135 9.15644 20.5253 9.16096 20.6336 9.12257C20.742 9.08532 20.8267 9.01082 20.8707 8.91486C20.9136 8.82116 20.917 8.71053 20.8797 8.60216L19.7734 5.43226C19.7238 5.29003 19.6278 5.17827 19.5036 5.11956C19.3795 5.06086 19.2316 5.05635 19.0871 5.10602L18.9934 5.13876C18.6671 5.25277 18.6039 5.43114 18.605 5.7032L18.657 8.67328L16.8666 6.31166C16.6837 6.06557 16.494 6.01025 16.1926 6.11637L16.0989 6.1491C15.7987 6.25409 15.6609 6.53518 15.7648 6.83208L16.8711 10.002L16.87 10.0008Z" fill="white"/>
<path d="M22.3119 8.86047C22.3255 8.86047 22.3401 8.86047 22.3537 8.85934L24.1621 8.75097C24.2581 8.74532 24.3428 8.70581 24.4026 8.63808C24.4636 8.56809 24.494 8.47326 24.4884 8.36941C24.476 8.16056 24.3247 8.02397 24.1192 8.03639L22.523 8.13121L22.4621 7.10506L23.9285 7.01814C24.1305 7.00572 24.2728 6.83977 24.2604 6.63093C24.2479 6.42209 24.0888 6.27985 23.8844 6.29227L22.418 6.37919L22.3571 5.35304L23.942 5.25821C24.1509 5.24579 24.2931 5.07985 24.2795 4.86423C24.2671 4.652 24.1068 4.50751 23.898 4.51992L22.1019 4.62717C21.7531 4.64749 21.516 4.91616 21.5364 5.26498L21.717 8.29377C21.7373 8.62792 21.9845 8.86047 22.3119 8.86047Z" fill="white"/>
<path d="M26.0827 8.5728L26.2735 7.45408L26.891 7.55907C27.8437 7.72163 28.4736 7.32088 28.6204 6.4618C28.6926 6.0396 28.6306 5.68513 28.4375 5.40742C28.2366 5.12069 27.9069 4.93555 27.4576 4.85992L26.5275 4.70187C26.3615 4.67365 26.2001 4.70752 26.0725 4.79783C25.9461 4.88814 25.8603 5.02925 25.8321 5.19519L25.28 8.43734C25.2405 8.67215 25.3816 8.87083 25.6153 8.91034C25.6413 8.91486 25.6661 8.91711 25.691 8.91711C25.8885 8.91711 26.0477 8.78165 26.0827 8.57393V8.5728ZM26.392 6.75531L26.6121 5.46048L27.2714 5.57337C27.5209 5.61627 27.6846 5.6998 27.7704 5.8285C27.8471 5.94477 27.8663 6.1062 27.8302 6.32182C27.7715 6.665 27.6247 6.96641 26.9485 6.85126L26.392 6.75644V6.75531Z" fill="white"/>
<path d="M29.2436 9.70939L30.876 10.3901C30.9279 10.4116 30.9787 10.4228 31.0284 10.4228C31.0724 10.4228 31.1153 10.4149 31.1548 10.398C31.2395 10.363 31.3061 10.2941 31.3445 10.2027C31.4246 10.0097 31.3445 9.81099 31.1503 9.73084L29.7132 9.1314L30.9358 6.1997C31.0273 5.97957 30.9347 5.75492 30.7146 5.66348C30.6107 5.62058 30.5001 5.61833 30.4041 5.65784C30.307 5.69848 30.228 5.77976 30.184 5.887L28.9185 8.92256C28.7842 9.24542 28.9208 9.57618 29.2436 9.71052V9.70939Z" fill="white"/>
<path d="M35.6963 8.39866L35.5473 8.2869C35.3215 8.11757 35.0856 8.12208 34.8259 8.29932L31.8717 10.3381C31.7543 10.4205 31.682 10.5435 31.6798 10.6666C31.6775 10.7817 31.7339 10.8867 31.8378 10.9646C31.9868 11.0752 32.1561 11.0673 32.3447 10.9398L33.1338 10.3911L34.3428 11.2942L34.0369 12.2425C33.9748 12.431 34.0233 12.597 34.1757 12.7099C34.2525 12.7674 34.336 12.7968 34.4195 12.7968C34.4568 12.7968 34.4941 12.7911 34.5313 12.7787C34.6532 12.7381 34.7526 12.6342 34.7898 12.5078L35.8905 9.09292C35.9853 8.7949 35.9221 8.56686 35.6963 8.39866ZM35.0811 9.02858L34.5832 10.565L33.7603 9.95087L35.0811 9.02858Z" fill="white"/>
<path d="M40.0455 12.9055C39.9811 12.8242 39.8919 12.7723 39.7937 12.761C39.6887 12.7486 39.5781 12.7835 39.4844 12.8581L37.3926 14.5175L38.6016 11.8883C38.71 11.6637 38.8206 11.4311 38.5926 11.1433L38.4774 10.9977C38.4695 10.9875 38.4616 10.9785 38.4537 10.9694H38.4526C38.2539 10.7459 37.9593 10.72 37.7222 10.9073L35.1066 12.9811C34.9203 13.129 34.8876 13.3649 35.0287 13.5433C35.0976 13.6302 35.1935 13.6821 35.2985 13.6889C35.399 13.6957 35.5017 13.6607 35.5898 13.5907L37.7369 11.8883L36.4929 14.6417C36.3969 14.8539 36.2964 15.074 36.5121 15.345L36.6204 15.4816C36.7243 15.6125 36.8631 15.6803 37.0065 15.6803C37.1171 15.6803 37.23 15.6407 37.3316 15.5595L39.9664 13.4699C40.0545 13.3999 40.1121 13.3051 40.1267 13.2046C40.1425 13.1008 40.1132 12.9946 40.0443 12.9089L40.0455 12.9055Z" fill="white"/>
<path d="M18.549 38.3752C18.5061 38.2431 18.4091 38.1359 18.2702 38.0647C17.9812 37.918 17.69 38.0139 17.5432 38.3029L16.569 40.2232C16.4301 40.4963 16.289 40.6578 16.1355 40.7142C15.9865 40.7695 15.8025 40.7379 15.5575 40.6138C15.3137 40.4896 15.1793 40.3598 15.1364 40.2051C15.0924 40.0459 15.1387 39.836 15.2776 39.5616L16.2484 37.6471C16.3895 37.3671 16.2902 37.0623 16.0113 36.9201C15.8702 36.8489 15.7246 36.8365 15.5902 36.8839C15.4638 36.9291 15.3577 37.0273 15.29 37.1605L14.3891 38.9374C13.8303 40.0392 14.0866 40.8723 15.1522 41.413C15.5045 41.5914 15.8296 41.6805 16.1287 41.6805C16.7361 41.6805 17.2294 41.3114 17.603 40.5742L18.5061 38.7917C18.5761 38.6551 18.5908 38.5073 18.5479 38.3752H18.549Z" fill="white"/>
<path d="M20.8959 42.2956L19.6564 42.0145L20.2897 39.225C20.3585 38.9191 20.1881 38.647 19.8821 38.5781C19.5751 38.5093 19.3109 38.6764 19.2409 38.9868L18.5535 42.019C18.5139 42.194 18.5388 42.3678 18.6246 42.5089C18.7126 42.6545 18.8628 42.7573 19.0456 42.799L20.6983 43.1738C20.7424 43.184 20.7852 43.1885 20.827 43.1885C21.0392 43.1885 21.2029 43.0587 21.2526 42.8397C21.3113 42.5789 21.1657 42.3554 20.8981 42.2944L20.8959 42.2956Z" fill="white"/>
<path d="M24.8925 39.2116L22.3175 39.1484C22.0511 39.1428 21.8468 39.3358 21.84 39.609C21.8366 39.7411 21.8807 39.8619 21.9642 39.9488C22.0466 40.0346 22.164 40.0831 22.2938 40.0865L23.0378 40.1046L22.9678 42.9268C22.9644 43.0758 23.0129 43.2135 23.1055 43.314C23.2015 43.4178 23.3392 43.4777 23.495 43.4811C23.5006 43.4811 23.5051 43.4811 23.5108 43.4811C23.6598 43.4811 23.7952 43.4291 23.8923 43.3332C23.9894 43.2372 24.0447 43.1029 24.0492 42.9539L24.1192 40.1317L24.8688 40.1509C25.142 40.1599 25.3396 39.9657 25.3463 39.6959C25.3497 39.5638 25.3057 39.4431 25.2233 39.3539C25.1397 39.2658 25.0223 39.215 24.8925 39.2116Z" fill="white"/>
<path d="M29.503 41.878L28.4475 41.1341C28.9916 40.8564 29.2185 40.38 29.0876 39.7715C28.9137 38.961 28.259 38.6167 27.2904 38.8244L26.3749 39.022C26.1931 39.0603 26.043 39.1608 25.9504 39.303C25.859 39.4453 25.8296 39.6203 25.868 39.7986L26.5205 42.8376C26.5521 42.9832 26.6311 43.1051 26.7451 43.1819C26.8287 43.2383 26.9292 43.2665 27.0341 43.2665C27.0759 43.2665 27.1188 43.262 27.1628 43.253C27.4699 43.1875 27.6381 42.9234 27.5715 42.6118L27.3435 41.5518L28.8268 42.6411C28.9916 42.7789 29.1508 42.8252 29.328 42.7868C29.5312 42.7427 29.6791 42.6073 29.7209 42.4244C29.766 42.2291 29.6847 42.0214 29.503 41.8792V41.878ZM27.4134 39.7196C27.6166 39.6756 27.7634 39.6823 27.8594 39.7388C27.9485 39.7907 28.0084 39.898 28.0445 40.0662C28.084 40.2502 28.0738 40.3766 28.014 40.4635C27.9474 40.5595 27.8086 40.6295 27.5862 40.6769L27.1741 40.7649L26.9698 39.8144L27.4112 39.7196H27.4134Z" fill="white"/>
<path d="M31.92 37.602C31.6298 37.3107 31.3533 37.2543 31.0259 37.4213L30.7391 37.5681C30.4118 37.7352 30.2887 37.9937 30.3519 38.3798L30.8441 41.6366C30.869 41.8183 30.9638 41.9651 31.1049 42.0385C31.1681 42.0712 31.2359 42.0881 31.307 42.0881C31.3849 42.0881 31.465 42.0678 31.544 42.0272C31.7608 41.9165 31.8545 41.7134 31.8105 41.456L31.6987 40.7707L32.98 40.1171L33.4789 40.6172C33.6505 40.7978 33.8763 40.8373 34.0987 40.7233C34.2658 40.6375 34.3719 40.4998 34.3967 40.3339C34.4216 40.1713 34.3629 39.9997 34.2375 39.8778L31.92 37.5997V37.602ZM32.3196 39.4578L31.544 39.853L31.3104 38.4509L32.3196 39.4578Z" fill="white"/>
<path d="M24.0011 14.5895C23.8713 14.5895 23.7437 14.629 23.6365 14.7024L17.203 19.0745C17.1161 19.1332 17.045 19.2134 16.9953 19.3059C16.9456 19.3985 16.9208 19.5024 16.9208 19.6074V30.0235C16.9208 30.194 16.9896 30.3577 17.1104 30.4785C17.2312 30.5993 17.396 30.667 17.5676 30.667H30.4346C30.6062 30.667 30.7699 30.5993 30.8918 30.4785C31.0126 30.3577 31.0815 30.194 31.0815 30.0235V19.6062C31.0815 19.5012 31.0555 19.3974 31.0069 19.3048C30.9573 19.2122 30.8862 19.1321 30.7992 19.0734L24.3657 14.7024C24.2585 14.629 24.1321 14.5895 24.0022 14.5895M30.4357 32.1899H17.5688C16.9919 32.1899 16.4399 31.9607 16.0323 31.5543C15.6248 31.1479 15.3957 30.597 15.3945 30.0224V19.6062C15.3945 19.2529 15.4803 18.9052 15.6463 18.5936C15.8111 18.2809 16.0515 18.0145 16.3439 17.8158L22.7774 13.4437C23.1387 13.1987 23.5654 13.0666 24.0022 13.0666C24.4391 13.0666 24.8658 13.1976 25.2271 13.4437L31.6606 17.8158C31.953 18.0145 32.1923 18.282 32.3582 18.5936C32.523 18.9052 32.61 19.2529 32.61 19.6062V30.0224C32.61 30.597 32.3797 31.1479 31.9721 31.5543C31.5646 31.9607 31.0115 32.1887 30.4357 32.1899Z" fill="white"/>
<path d="M22.6372 26.7477C22.3516 26.7477 22.0682 26.6923 21.8041 26.584C21.5399 26.4745 21.3006 26.3153 21.0985 26.1132L19.6637 24.6829C19.5249 24.5396 19.4481 24.3465 19.4492 24.1479C19.4504 23.948 19.5316 23.7573 19.6727 23.6161C19.8139 23.475 20.0058 23.3949 20.2067 23.3926C20.4077 23.3915 20.5996 23.4671 20.7441 23.606L22.1789 25.0363C22.2997 25.1571 22.4645 25.2248 22.6361 25.2248C22.8077 25.2248 22.9725 25.1571 23.0933 25.0363L27.2419 20.9012C27.313 20.8289 27.3965 20.7725 27.4902 20.733C27.5839 20.6935 27.6833 20.6732 27.7838 20.6732C27.8842 20.6732 27.9847 20.6923 28.0773 20.7307C28.171 20.7691 28.2556 20.8256 28.3267 20.8967C28.3979 20.9678 28.4543 21.0525 28.4927 21.145C28.5311 21.2376 28.5503 21.3381 28.5503 21.4385C28.5503 21.539 28.5299 21.6383 28.4904 21.7309C28.4509 21.8235 28.3945 21.907 28.3222 21.9781L24.1736 26.1132C23.9727 26.3153 23.7322 26.4756 23.4692 26.584C23.205 26.6923 22.9228 26.7488 22.6372 26.7477Z" fill="white"/>
<path d="M13.5296 37.8413C13.4303 37.8413 13.3298 37.8097 13.244 37.7443C8.82895 34.3621 6.29688 29.237 6.29688 23.6818C6.29688 20.9883 6.88615 18.402 8.0489 15.9941C8.16179 15.7604 8.44288 15.6622 8.67768 15.7751C8.91136 15.888 9.00957 16.1691 8.89669 16.4028C7.79603 18.682 7.23836 21.1305 7.23836 23.6807C7.23836 28.9401 9.6361 33.7943 13.8175 36.9969C14.0241 37.155 14.0624 37.4507 13.9044 37.6562C13.8118 37.777 13.6719 37.8402 13.5307 37.8402L13.5296 37.8413Z" fill="white"/>
<path d="M34.4706 37.8411C34.3295 37.8411 34.1895 37.7778 34.097 37.6571C33.9389 37.4505 33.9784 37.1558 34.1839 36.9978C38.3652 33.7952 40.763 28.9421 40.763 23.6815C40.763 21.1314 40.2053 18.6817 39.1047 16.4036C38.9918 16.1699 39.09 15.8889 39.3237 15.776C39.5573 15.6631 39.8384 15.7613 39.9525 15.995C41.1152 18.4029 41.7045 20.9891 41.7045 23.6826C41.7045 29.2379 39.1724 34.363 34.7573 37.7451C34.6716 37.8106 34.5711 37.8422 34.4717 37.8422L34.4706 37.8411Z" fill="white"/>
<defs>
<linearGradient id="paint0_linear_1_11065" x1="-8.9407e-08" y1="24" x2="48" y2="24" gradientUnits="userSpaceOnUse">
<stop stop-color="#84BCC3"/>
<stop offset="0.359375" stop-color="#6FB482"/>
<stop offset="0.6875" stop-color="#92B661"/>
<stop offset="1" stop-color="#CCDE91"/>
</linearGradient>
</defs>
</svg>
