<svg width="91" height="95" viewBox="0 0 91 95" fill="none" xmlns="http://www.w3.org/2000/svg">
<g clip-path="url(#clip0_6527_942)">
<path d="M17.1308 21.7451L10.0617 16.0829C9.83418 15.9004 9.55775 15.8135 9.28995 15.8454C9.02216 15.8773 8.77165 16.0192 8.59024 16.2509C8.21879 16.7201 8.29366 17.337 8.76589 17.7164L11.5014 19.9059L8.78317 23.338L6.04767 21.1484C5.82019 20.966 5.54664 20.882 5.27597 20.9109C5.00818 20.9428 4.75766 21.0847 4.57626 21.3164C4.20481 21.7856 4.27679 22.4025 4.7519 22.7848L11.821 28.447C12.0255 28.6092 12.2558 28.6903 12.4833 28.6903C12.7828 28.6903 13.0765 28.5513 13.2924 28.279C13.6639 27.8098 13.589 27.19 13.1139 26.8106L10.2315 24.5023L12.9498 21.0702L15.8321 23.3786C16.3072 23.758 16.9263 23.6884 17.3035 23.2106C17.4878 22.9789 17.5684 22.7037 17.5339 22.4344C17.4993 22.1708 17.3554 21.9246 17.1279 21.7422L17.1308 21.7451Z" fill="white"/>
<path d="M23.3566 11.1419L23.3393 11.1187C22.3517 9.76038 21.1941 8.87702 19.9934 8.57002C18.7178 8.24275 17.3846 8.55264 16.1378 9.47076C14.891 10.3889 14.1912 11.5705 14.1164 12.8912C14.0444 14.1366 14.5281 15.5123 15.5158 16.8707L15.536 16.8967C16.6014 18.3651 17.8021 19.2514 19.1036 19.5323C19.3916 19.5932 19.6795 19.625 19.9675 19.625C20.9263 19.625 21.8881 19.2862 22.7922 18.6229C25.2427 16.8214 25.4529 14.0266 23.3566 11.1419ZM22.9132 15.2546C22.8786 15.9584 22.487 16.5753 21.7124 17.1429C20.9407 17.7106 20.2353 17.8989 19.5586 17.7193C18.8445 17.5281 18.1332 16.9373 17.3846 15.9091L16.898 15.2401C15.6483 13.5197 15.7634 12.0919 17.2464 11.0029C17.8194 10.58 18.378 10.3715 18.9222 10.3715C19.7832 10.3715 20.601 10.9015 21.3669 11.9557L21.8535 12.6248C22.6022 13.6529 22.9477 14.5131 22.9103 15.2546H22.9132Z" fill="white"/>
<path d="M27.3128 14.0613C27.4107 14.3481 27.6007 14.5711 27.8455 14.6898C27.9751 14.7535 28.1162 14.7854 28.2601 14.7854C28.3724 14.7854 28.4876 14.7651 28.5999 14.7275C29.1384 14.5392 29.3831 13.9831 29.1816 13.4068L27.1861 7.64902L31.1857 12.8536C31.5773 13.3633 32.0466 13.5139 32.6197 13.3141L32.8443 13.2359C33.3885 13.0447 33.662 12.6248 33.6534 11.9876L33.5555 5.32622L35.5798 11.1622C35.6748 11.4402 35.8619 11.6574 36.1067 11.7762C36.3515 11.8949 36.6365 11.9065 36.913 11.808C37.1894 11.7125 37.4053 11.5213 37.5176 11.2751C37.6271 11.0347 37.6357 10.7509 37.5407 10.4729L34.7188 2.34019C34.5921 1.97526 34.3473 1.68853 34.0306 1.53792C33.7139 1.38732 33.3366 1.37573 32.9681 1.50317L32.7291 1.58716C31.8969 1.87968 31.7357 2.33729 31.7385 3.03529L31.871 10.6553L27.3041 4.59637C26.8377 3.96498 26.3539 3.82307 25.5851 4.09532L25.3461 4.17931C24.5802 4.44866 24.2289 5.16983 24.4938 5.93154L27.3157 14.0642L27.3128 14.0613Z" fill="white"/>
<path d="M41.1961 11.1361C41.2307 11.1361 41.2681 11.1361 41.3027 11.1332L45.9156 10.8552C46.1603 10.8407 46.3763 10.7393 46.5289 10.5655C46.6844 10.386 46.7622 10.1427 46.7478 9.87624C46.7161 9.34043 46.3302 8.98998 45.8062 9.02184L41.7346 9.26513L41.5791 6.63243L45.3195 6.40942C45.835 6.37756 46.1978 5.95181 46.1661 5.41601C46.1344 4.8802 45.7284 4.51527 45.2072 4.54713L41.4668 4.77014L41.3113 2.13745L45.3541 1.89416C45.8868 1.8623 46.2496 1.43655 46.2151 0.88337C46.1834 0.338875 45.7745 -0.0318456 45.2418 1.32284e-05L40.6606 0.275157C39.7708 0.32729 39.1661 1.0166 39.2179 1.91154L39.6787 9.68219C39.7305 10.5395 40.3611 11.1361 41.1961 11.1361Z" fill="white"/>
<path d="M50.8181 10.3975L51.3047 7.52736L52.8798 7.79671C55.31 8.21377 56.9168 7.1856 57.2911 4.98155C57.4754 3.89835 57.317 2.98893 56.8246 2.27645C56.3121 1.5408 55.4713 1.06582 54.3253 0.871769L51.9526 0.466293C51.5293 0.393887 51.1175 0.480775 50.7921 0.712475C50.4696 0.944175 50.2508 1.30621 50.1788 1.73196L48.7707 10.05C48.67 10.6524 49.0299 11.1622 49.626 11.2635C49.6922 11.2751 49.7555 11.2809 49.8189 11.2809C50.3228 11.2809 50.7288 10.9334 50.8181 10.4004V10.3975ZM51.607 5.73458L52.1685 2.41258L53.8501 2.7022C54.4865 2.81226 54.904 3.02658 55.1229 3.35675C55.3187 3.65507 55.3676 4.06923 55.2755 4.62242C55.1257 5.50288 54.7514 6.27618 53.0266 5.98076L51.607 5.73747V5.73458Z" fill="white"/>
<path d="M58.8743 13.3141L63.038 15.0605C63.1704 15.1155 63.3 15.1445 63.4267 15.1445C63.539 15.1445 63.6484 15.1242 63.7492 15.0808C63.9652 14.991 64.1351 14.8143 64.233 14.5797C64.4374 14.0845 64.233 13.5747 63.7377 13.3691L60.0721 11.8312L63.1906 4.30963C63.4238 3.74486 63.1877 3.1685 62.6262 2.93391C62.3613 2.82385 62.0791 2.81806 61.8344 2.91942C61.5867 3.02369 61.3852 3.23222 61.2729 3.50736L58.045 11.2954C57.7023 12.1237 58.0507 12.9723 58.8743 13.317V13.3141Z" fill="white"/>
<path d="M75.3313 9.95154L74.9512 9.66481C74.3753 9.23037 73.7735 9.24195 73.1112 9.69667L65.5756 14.9273C65.2762 15.1387 65.0919 15.4544 65.0861 15.7701C65.0803 16.0655 65.2243 16.3349 65.4892 16.5347C65.8693 16.8186 66.3012 16.7983 66.7821 16.471L68.7949 15.0634L71.8788 17.3804L71.0984 19.8133C70.9401 20.297 71.0639 20.7227 71.4526 21.0123C71.6484 21.16 71.8615 21.2353 72.0746 21.2353C72.1696 21.2353 72.2646 21.2209 72.3597 21.189C72.6706 21.0847 72.924 20.8183 73.0191 20.4939L75.8265 11.7327C76.0684 10.9681 75.9072 10.3831 75.3313 9.95154ZM73.762 11.5676L72.4921 15.5094L70.393 13.9339L73.762 11.5676Z" fill="white"/>
<path d="M86.4371 21.5134C86.2729 21.3048 86.0455 21.1716 85.7949 21.1426C85.5271 21.1108 85.245 21.2006 85.006 21.3917L79.6703 25.6492L82.7542 18.9038C83.0306 18.3275 83.3128 17.7309 82.7312 16.9923L82.4375 16.6187C82.4173 16.5926 82.3972 16.5695 82.377 16.5463H82.3741C81.8673 15.9728 81.1158 15.9062 80.5111 16.387L73.8394 21.7074C73.3642 22.0868 73.2807 22.6921 73.6407 23.1497C73.8163 23.3728 74.0611 23.506 74.3289 23.5234C74.5851 23.5407 74.8472 23.451 75.0718 23.2714L80.5485 18.9038L77.3754 25.9678C77.1306 26.5123 76.8743 27.0771 77.4243 27.7722L77.7007 28.1226C77.9656 28.4586 78.3198 28.6324 78.6855 28.6324C78.9677 28.6324 79.2557 28.531 79.5148 28.3225L86.2355 22.9615C86.4601 22.7819 86.6069 22.5386 86.6444 22.2809C86.6847 22.0144 86.6098 21.7422 86.4342 21.5221L86.4371 21.5134Z" fill="white"/>
<path d="M45.499 25.8346C45.1678 25.8346 44.8424 25.9359 44.5689 26.1242L28.1588 37.3414C27.937 37.492 27.7556 37.6976 27.6289 37.9351C27.5022 38.1726 27.4389 38.4391 27.4389 38.7084V65.4321C27.4389 65.8695 27.6145 66.2894 27.9226 66.5993C28.2308 66.9092 28.6512 67.083 29.0888 67.083H61.9091C62.3468 67.083 62.7643 66.9092 63.0753 66.5993C63.3834 66.2894 63.559 65.8695 63.559 65.4321V38.7055C63.559 38.4362 63.4928 38.1697 63.369 37.9322C63.2423 37.6947 63.0609 37.4891 62.8391 37.3385L46.429 26.1242C46.1555 25.9359 45.833 25.8346 45.5018 25.8346M61.912 70.99H29.0888C27.6174 70.99 26.2094 70.4021 25.1699 69.3595C24.1304 68.3168 23.5458 66.9034 23.543 65.4292V38.7055C23.543 37.799 23.7618 36.9069 24.1851 36.1076C24.6055 35.3053 25.2188 34.6218 25.9646 34.1121L42.3747 22.8949C43.2962 22.2664 44.3846 21.9275 45.499 21.9275C46.6133 21.9275 47.7018 22.2635 48.6232 22.8949L65.0333 34.1121C65.7791 34.6218 66.3895 35.3082 66.8128 36.1076C67.2332 36.9069 67.4549 37.799 67.4549 38.7055V65.4292C67.4549 66.9034 66.8675 68.3168 65.828 69.3595C64.7886 70.4021 63.3776 70.9872 61.9091 70.99" fill="white"/>
<path d="M42.0223 57.0272C41.2938 57.0272 40.571 56.8853 39.8972 56.6073C39.2234 56.3263 38.613 55.9179 38.0976 55.3995L34.4378 51.73C34.0836 51.3621 33.8878 50.8669 33.8907 50.3571C33.8935 49.8445 34.1009 49.355 34.4608 48.993C34.8207 48.631 35.3102 48.4253 35.8228 48.4195C36.3353 48.4167 36.8248 48.6107 37.1934 48.9669L40.8532 52.6365C41.1613 52.9464 41.5817 53.1202 42.0194 53.1202C42.4571 53.1202 42.8775 52.9464 43.1856 52.6365L53.7677 42.0275C53.9491 41.8422 54.1621 41.6973 54.4011 41.596C54.6401 41.4946 54.8935 41.4425 55.1498 41.4425C55.4061 41.4425 55.6624 41.4917 55.8985 41.5902C56.1375 41.6887 56.3534 41.8335 56.5348 42.0159C56.7162 42.1984 56.8602 42.4156 56.9581 42.6531C57.056 42.8906 57.105 43.1484 57.105 43.4061C57.105 43.6639 57.0531 43.9188 56.9524 44.1563C56.8516 44.3938 56.7076 44.6081 56.5233 44.7905L45.9413 55.3995C45.4287 55.9179 44.8154 56.3292 44.1445 56.6073C43.4707 56.8853 42.7508 57.0301 42.0223 57.0272Z" fill="white"/>
<path d="M45.4986 95C20.4097 95 0 74.4684 0 49.2334C0 42.5286 1.40806 36.0699 4.18675 30.0341C4.52077 29.3072 5.37598 28.9915 6.09873 29.3274C6.82147 29.6634 7.13534 30.5236 6.80132 31.2506C4.20115 36.904 2.88235 42.9543 2.88235 49.2334C2.88235 72.8726 22.0021 92.1008 45.5014 92.1008C69.0008 92.1008 88.1205 72.8697 88.1205 49.2334C88.1205 42.9051 86.7816 36.8114 84.1411 31.1231C83.8042 30.3991 84.1152 29.536 84.8379 29.1971C85.5578 28.8583 86.4159 29.171 86.7528 29.898C89.5718 35.9715 91.0029 42.4793 91.0029 49.2334C91.0029 74.4684 70.5932 94.9971 45.5043 94.9971L45.4986 95Z" fill="white"/>
</g>
<defs>
<clipPath id="clip0_6527_942">
<rect width="91" height="95" fill="white"/>
</clipPath>
</defs>
</svg>
