<svg width="48" height="48" viewBox="0 0 48 48" fill="none" xmlns="http://www.w3.org/2000/svg">
<path d="M24 48C37.2542 48 48 37.2553 48 24C48 10.7447 37.2542 0 24 0C10.7458 0 0 10.7447 0 24C0 37.2553 10.7447 48 24 48Z" fill="#E8C200"/>
<path d="M12.8818 12.991L10.1104 10.784C10.0212 10.7129 9.91283 10.6801 9.80785 10.6914C9.70286 10.7038 9.60465 10.7592 9.53353 10.8495C9.38791 11.0323 9.41726 11.2728 9.60239 11.4207L10.6748 12.2741L9.60917 13.6118L8.53673 12.7584C8.35046 12.6105 8.10888 12.6376 7.95987 12.8239C7.81425 13.0068 7.84247 13.2472 8.02873 13.3962L10.8001 15.6032C10.8803 15.6664 10.9706 15.698 11.0598 15.698C11.1772 15.698 11.2923 15.6438 11.377 15.5377C11.5226 15.3548 11.4944 15.1144 11.3081 14.9654L10.1781 14.0656L11.2438 12.7279L12.3738 13.6276C12.5601 13.7755 12.8028 13.7484 12.9507 13.5622C13.0229 13.4719 13.0545 13.3646 13.041 13.2596C13.0274 13.1569 12.971 13.0609 12.8818 12.9898V12.991Z" fill="white"/>
<path d="M15.3206 8.85821L15.3139 8.84918C14.9267 8.31973 14.4728 7.97542 14.0021 7.85576C13.502 7.7282 12.9805 7.84899 12.4905 8.20684C12.0017 8.5647 11.7274 9.02528 11.6981 9.54005C11.6698 10.0255 11.8595 10.5617 12.2467 11.0911L12.2546 11.1013C12.6734 11.6736 13.143 12.0191 13.6533 12.1286C13.7662 12.1523 13.8791 12.1647 13.9919 12.1647C14.3679 12.1647 14.7449 12.0326 15.0994 11.7741C16.0601 11.0719 16.1425 9.98257 15.3206 8.85821ZM15.1479 10.4612C15.1344 10.7355 14.9808 10.976 14.6772 11.1972C14.3746 11.4185 14.0981 11.4919 13.8328 11.4219C13.5528 11.3474 13.274 11.1171 12.9816 10.7163L12.7908 10.4556C12.3009 9.78502 12.346 9.22848 12.9274 8.80402C13.1532 8.6392 13.3744 8.55567 13.5867 8.55567C13.6589 8.55567 13.73 8.56583 13.8012 8.58502C14.0597 8.65614 14.3092 8.85482 14.5428 9.17542L14.7336 9.43619C15.0271 9.83695 15.1626 10.1722 15.1479 10.4612Z" fill="white"/>
<path d="M16.87 9.99755C16.9072 10.1037 16.9772 10.1895 17.0675 10.2369C17.1217 10.2651 17.1804 10.2798 17.2414 10.2798C17.2854 10.2798 17.3305 10.2719 17.3746 10.2572C17.4796 10.2211 17.5597 10.1466 17.6003 10.0495C17.6387 9.95691 17.6399 9.84854 17.6026 9.74242L16.8203 7.49821L18.3883 9.5268C18.5418 9.72549 18.7258 9.78419 18.9505 9.7063L19.0385 9.67582C19.2519 9.60131 19.3591 9.43762 19.3558 9.18927L19.3162 6.59284L20.1098 8.86754C20.1471 8.97591 20.2205 9.06058 20.3164 9.10686C20.4124 9.15314 20.5241 9.15766 20.6325 9.11928C20.8538 9.04251 20.9576 8.82351 20.8797 8.59886L19.7734 5.42897C19.7238 5.28673 19.6278 5.17497 19.5036 5.11627C19.3795 5.05757 19.2316 5.05305 19.0871 5.10272L18.9934 5.13546C18.6671 5.24948 18.6039 5.42784 18.605 5.6999L18.657 8.66998L16.8666 6.30837C16.6837 6.06227 16.494 6.00696 16.1926 6.11307L16.0989 6.14581C15.7987 6.25079 15.6609 6.53188 15.7648 6.82878L16.8711 9.99868L16.87 9.99755Z" fill="white"/>
<path d="M22.3119 8.85591C22.3255 8.85591 22.3401 8.85591 22.3537 8.85479L24.1621 8.74641C24.2604 8.74077 24.3473 8.699 24.4071 8.62901C24.4669 8.55902 24.4952 8.46758 24.4884 8.36598C24.4827 8.26325 24.4432 8.17633 24.3744 8.11537C24.3078 8.05667 24.2175 8.02619 24.1204 8.03296L22.523 8.12779L22.4621 7.10163L23.9285 7.01471C24.0267 7.00907 24.1147 6.96617 24.1757 6.89392C24.2367 6.8228 24.266 6.72797 24.2604 6.6275C24.2479 6.41866 24.0899 6.27642 23.8856 6.28884L22.418 6.37576L22.3571 5.34961L23.942 5.25478C24.1509 5.24237 24.292 5.07642 24.2795 4.86081C24.2671 4.64858 24.1046 4.50295 23.898 4.5165L22.1019 4.62374C21.7531 4.64406 21.516 4.91273 21.5364 5.26156L21.717 8.29035C21.7373 8.62449 21.9845 8.85704 22.3119 8.85704V8.85591Z" fill="white"/>
<path d="M25.6204 8.90452C25.6463 8.90904 25.6712 8.9113 25.696 8.9113C25.8924 8.9113 26.0527 8.77583 26.0877 8.56812L26.2774 7.4494L26.8949 7.55438C27.3679 7.63453 27.7585 7.58148 28.0565 7.39521C28.3601 7.20556 28.5509 6.88947 28.6243 6.45711C28.6966 6.03491 28.6345 5.68044 28.4414 5.40274C28.2405 5.116 27.9109 4.93087 27.4616 4.85523L26.5314 4.69719C26.3654 4.66897 26.204 4.70283 26.0764 4.79314C25.95 4.88345 25.8642 5.02456 25.836 5.19051L25.2839 8.43265C25.2444 8.66746 25.3855 8.86614 25.6192 8.90565L25.6204 8.90452ZM26.397 6.74949L26.6172 5.45467L27.2764 5.56756C27.7494 5.64771 27.9109 5.86445 27.8341 6.316C27.7754 6.65918 27.6286 6.96059 26.9513 6.84545L26.3948 6.75062L26.397 6.74949Z" fill="white"/>
<path d="M29.2436 9.70598L30.876 10.3867C30.9279 10.4081 30.9787 10.4194 31.0284 10.4194C31.0724 10.4194 31.1153 10.4115 31.1548 10.3946C31.2395 10.3596 31.3061 10.2907 31.3445 10.1993C31.3818 10.109 31.3851 10.013 31.3535 9.9295C31.3197 9.83919 31.2474 9.76807 31.1503 9.72743L29.7133 9.12799L30.9358 6.19629C31.0273 5.97729 30.9347 5.75151 30.7146 5.66007C30.6096 5.61604 30.5001 5.61491 30.4041 5.65443C30.3071 5.69507 30.228 5.77634 30.184 5.88359L28.9185 8.91915C28.7842 9.24201 28.9208 9.57277 29.2425 9.70711L29.2436 9.70598Z" fill="white"/>
<path d="M35.6963 8.39532L35.5473 8.28356C35.3215 8.11423 35.0856 8.11874 34.8259 8.29598L31.8717 10.3347C31.7531 10.4171 31.682 10.5391 31.6798 10.6632C31.6775 10.7784 31.7339 10.8845 31.8378 10.9613C31.9868 11.0719 32.1561 11.064 32.3447 10.9364L33.1338 10.3878L34.3428 11.2909L34.0369 12.2392C33.9748 12.4277 34.0233 12.5936 34.1757 12.7065C34.2525 12.7641 34.336 12.7934 34.4195 12.7934C34.4568 12.7934 34.4941 12.7878 34.5302 12.7754C34.6521 12.7347 34.7514 12.6309 34.7898 12.5044L35.8905 9.08958C35.9864 8.79156 35.9232 8.56352 35.6974 8.39532H35.6963ZM35.0811 9.02523L34.5832 10.5616L33.7603 9.94753L35.0811 9.02523Z" fill="white"/>
<path d="M40.0494 12.9014C39.985 12.8201 39.8947 12.7682 39.7976 12.758C39.6915 12.7456 39.582 12.7806 39.4883 12.8551L37.3965 14.5146L38.6055 11.8854C38.7139 11.6608 38.8245 11.4282 38.5965 11.1404L38.4814 10.9947C38.4735 10.9846 38.4656 10.9755 38.4577 10.9665H38.4565C38.2578 10.7441 37.9632 10.7159 37.7261 10.9044L35.1105 12.9782C34.9243 13.1261 34.8915 13.362 35.0326 13.5404C35.1015 13.6273 35.1974 13.6792 35.3024 13.686C35.4018 13.6928 35.5056 13.6578 35.5937 13.5878L37.7408 11.8854L36.4968 14.6388C36.4008 14.851 36.3004 15.0711 36.516 15.342L36.6243 15.4786C36.7124 15.5904 36.8321 15.6593 36.9619 15.6739C36.9788 15.6762 36.9946 15.6762 37.0116 15.6762C37.1244 15.6762 37.2385 15.6344 37.3367 15.5565L39.9715 13.467C40.0595 13.397 40.1171 13.3022 40.1318 13.2017C40.1476 13.0978 40.1182 12.9917 40.0494 12.9048V12.9014Z" fill="white"/>
<path d="M18.5119 38.5208C18.3607 38.2442 18.0717 38.006 17.6528 37.8118L16.8141 37.4235C16.6436 37.3445 16.4619 37.3343 16.3016 37.3953C16.1458 37.454 16.0182 37.577 15.9426 37.7396L14.711 40.4037C14.6353 40.5674 14.6241 40.7424 14.6782 40.8982C14.7347 41.0596 14.8589 41.1917 15.0293 41.2696L15.8523 41.65C16.2575 41.8374 16.5985 41.93 16.8852 41.93C16.9857 41.93 17.0805 41.9187 17.1686 41.8961C17.4779 41.816 17.7104 41.597 17.882 41.2267C18.0197 40.9298 18.0694 40.5279 17.6833 40.143C18.0491 40.1215 18.3268 39.9093 18.5119 39.5085C18.6767 39.1529 18.6767 38.821 18.5131 38.5208H18.5119ZM16.4596 39.1823L16.8152 38.4113L17.2487 38.6111C17.4067 38.6844 17.5072 38.768 17.5479 38.8594C17.5874 38.9475 17.5761 39.0558 17.5129 39.1902C17.4496 39.3268 17.3729 39.4081 17.2781 39.4374C17.1731 39.4701 17.0297 39.4453 16.8525 39.3629L16.4585 39.1812L16.4596 39.1823ZM16.9281 40.7537C16.8186 40.9907 16.7226 41.1228 16.1718 40.8688L15.7665 40.6814L16.1176 39.9228L16.5115 40.1046C17.0591 40.3574 17.0274 40.5415 16.9281 40.7537Z" fill="white"/>
<path d="M22.0035 39.615C21.9493 39.2063 21.7642 38.9952 21.4029 38.9298L21.0857 38.8722C20.7245 38.8067 20.4705 38.9377 20.2865 39.2831L18.7038 42.1719C18.6135 42.3311 18.5999 42.506 18.6677 42.6494C18.7309 42.7849 18.8573 42.8763 19.0244 42.9068C19.2637 42.9497 19.4613 42.8458 19.5821 42.6144L19.9083 42.0014L21.3228 42.2577L21.4165 42.9576C21.4425 43.206 21.5994 43.373 21.8443 43.4182C21.8838 43.425 21.9222 43.4283 21.9606 43.4283C22.0995 43.4283 22.2236 43.3809 22.3185 43.2895C22.437 43.1755 22.4934 43.0039 22.4686 42.83L22.0058 39.6139L22.0035 39.615ZM21.0033 39.9198L21.1964 41.332L20.3395 41.1762L21.0033 39.9187V39.9198Z" fill="white"/>
<path d="M26.1337 40.9792C25.8966 40.8426 25.5896 40.8019 25.2938 40.7624C25.0816 40.7342 24.8807 40.7071 24.7316 40.6473C24.5838 40.5908 24.5488 40.5107 24.542 40.3989C24.5273 40.1732 24.6154 40.0162 25.0872 39.9858C25.2735 39.9745 25.3875 39.997 25.4823 40.0196C25.5399 40.0377 25.5873 40.058 25.6325 40.0783C25.7273 40.1201 25.8244 40.1619 25.9621 40.154C26.0886 40.1461 26.1958 40.0975 26.2726 40.0162C26.3505 39.9327 26.3888 39.8198 26.3809 39.6979C26.3538 39.2644 25.812 39.0059 25.033 39.0556C24.0588 39.1176 23.4865 39.6719 23.5384 40.5017C23.5723 41.0255 23.78 41.372 24.174 41.5572C24.3952 41.6633 24.6966 41.7096 24.9619 41.7502C25.1742 41.7829 25.3751 41.8134 25.488 41.8699C25.6088 41.9195 25.6472 41.9748 25.6562 42.1205C25.6652 42.2695 25.6235 42.379 25.5264 42.4557C25.427 42.5336 25.2724 42.5799 25.0658 42.5935C24.8615 42.607 24.6887 42.5799 24.5397 42.5088C24.463 42.4795 24.4077 42.4433 24.3535 42.4072C24.2654 42.3496 24.1661 42.2842 24.0148 42.2932C23.7631 42.309 23.5982 42.4964 23.614 42.7481C23.6378 43.1161 24.0645 43.4842 24.9439 43.4842C25.0127 43.4842 25.085 43.4819 25.1606 43.4774C26.1924 43.4108 26.7512 42.8678 26.6948 41.9861C26.6643 41.5064 26.4859 41.1869 26.1337 40.9803V40.9792Z" fill="white"/>
<path d="M28.2484 39.0771C28.1739 38.7734 27.8984 38.6063 27.5936 38.6808C27.2888 38.7553 27.1229 39.0308 27.1974 39.3345L27.9808 42.5224C28.0429 42.7775 28.2473 42.9367 28.4922 42.9367C28.5385 42.9367 28.5871 42.9311 28.6356 42.9187C28.9393 42.8441 29.1063 42.5687 29.0318 42.2639L28.2495 39.0759L28.2484 39.0771Z" fill="white"/>
<path d="M33.3066 40.2015C33.2592 40.0976 33.179 40.0186 33.0819 39.9802C32.9815 39.9396 32.8674 39.9452 32.7602 39.9938C32.6112 40.0615 32.5514 40.1834 32.4983 40.2895C32.4746 40.3358 32.4509 40.3844 32.4159 40.4352C32.3425 40.5514 32.2432 40.6745 32.0197 40.7761C31.4473 41.0391 30.9856 40.7975 30.6481 40.0604L30.5261 39.7951C30.2383 39.1663 30.3771 38.7181 30.9371 38.4608C31.1888 38.3456 31.3423 38.3411 31.4496 38.3513C31.4958 38.3546 31.5365 38.3625 31.5805 38.3716C31.6821 38.3919 31.7984 38.4145 31.9384 38.3513C32.1709 38.244 32.2578 38.0047 32.1506 37.7687C31.9485 37.3262 31.2723 37.263 30.5081 37.613C29.9482 37.8692 29.5688 38.27 29.4108 38.7723C29.2573 39.2611 29.3182 39.8301 29.588 40.4182L29.5926 40.4295C29.8793 41.0549 30.2902 41.4941 30.7824 41.6995C30.9969 41.7898 31.2249 41.8338 31.4597 41.8338C31.7555 41.8338 32.0637 41.7627 32.373 41.6205C32.7229 41.4602 33.0119 41.2243 33.1858 40.9556C33.3596 40.688 33.4037 40.4126 33.3077 40.2015H33.3066Z" fill="white"/>
<path d="M13.66 38.1579C13.5618 38.1579 13.4624 38.1274 13.3778 38.0642C8.84755 34.6753 6.25 29.4915 6.25 23.8426C6.25 21.1423 6.84153 18.5493 8.00654 16.1346C8.11943 15.8998 8.40165 15.8016 8.63645 15.9156C8.87126 16.0285 8.96947 16.3107 8.85546 16.5455C7.75254 18.8303 7.19262 21.2857 7.19262 23.8426C7.19262 29.1923 9.65245 34.1007 13.9422 37.309C14.151 37.4648 14.1928 37.7605 14.037 37.9694C13.9444 38.0924 13.8022 38.1579 13.6588 38.1579" fill="white"/>
<path d="M33.9716 38.4286C33.8237 38.4286 33.6781 38.3586 33.5866 38.2299C33.4365 38.0177 33.4862 37.723 33.6995 37.5717C38.1518 34.421 40.8103 29.2892 40.8103 23.8434C40.8103 21.2098 40.2177 18.6878 39.0504 16.3477C38.9341 16.1151 39.029 15.8318 39.2615 15.7155C39.4941 15.5992 39.7774 15.694 39.8937 15.9266C41.1276 18.3977 41.753 21.0619 41.753 23.8434C41.753 29.5951 38.9466 35.016 34.2448 38.3416C34.1624 38.4003 34.0664 38.4286 33.9727 38.4286" fill="white"/>
<path d="M23.9972 14.5897C23.8674 14.5897 23.7398 14.6292 23.6326 14.7026L17.1991 19.0747C17.1122 19.1334 17.041 19.2136 16.9914 19.3062C16.9417 19.3987 16.9169 19.5026 16.9169 19.6076V30.0237C16.9169 30.1942 16.9857 30.3579 17.1065 30.4787C17.2273 30.5995 17.3921 30.6672 17.5637 30.6672H30.4307C30.6023 30.6672 30.766 30.5995 30.8879 30.4787C31.0087 30.3579 31.0775 30.1942 31.0775 30.0237V19.6064C31.0775 19.5015 31.0516 19.3976 31.003 19.305C30.9534 19.2125 30.8823 19.1323 30.7953 19.0736L24.3618 14.7026C24.2546 14.6292 24.1282 14.5897 23.9983 14.5897M30.4318 32.1901H17.5648C16.988 32.1901 16.436 31.9609 16.0284 31.5545C15.6209 31.1481 15.3918 30.5972 15.3906 30.0226V19.6064C15.3906 19.2531 15.4764 18.9054 15.6424 18.5938C15.8072 18.2811 16.0476 18.0147 16.34 17.816L22.7735 13.4439C23.1347 13.1989 23.5615 13.0668 23.9983 13.0668C24.4352 13.0668 24.8619 13.1978 25.2232 13.4439L31.6567 17.816C31.949 18.0147 32.1884 18.2823 32.3543 18.5938C32.5191 18.9054 32.6061 19.2531 32.6061 19.6064V30.0226C32.6061 30.5972 32.3758 31.1481 31.9682 31.5545C31.5607 31.9609 31.0076 32.1889 30.4318 32.1901Z" fill="white"/>
<path d="M22.6411 26.7472C22.3555 26.7472 22.0721 26.6919 21.808 26.5836C21.5438 26.4741 21.3045 26.3149 21.1024 26.1128L19.6676 24.6825C19.5288 24.5392 19.452 24.3461 19.4531 24.1474C19.4543 23.9476 19.5355 23.7568 19.6767 23.6157C19.8178 23.4746 20.0097 23.3945 20.2106 23.3922C20.4116 23.3911 20.6035 23.4667 20.748 23.6056L22.1828 25.0359C22.3036 25.1567 22.4684 25.2244 22.64 25.2244C22.8116 25.2244 22.9764 25.1567 23.0972 25.0359L27.2458 20.9008C27.3169 20.8285 27.4005 20.7721 27.4942 20.7326C27.5879 20.6931 27.6872 20.6727 27.7877 20.6727C27.8881 20.6727 27.9886 20.6919 28.0812 20.7303C28.1749 20.7687 28.2595 20.8251 28.3307 20.8963C28.4018 20.9674 28.4582 21.052 28.4966 21.1446C28.535 21.2372 28.5542 21.3377 28.5542 21.4381C28.5542 21.5386 28.5339 21.6379 28.4943 21.7305C28.4548 21.8231 28.3984 21.9066 28.3261 21.9777L24.1775 26.1128C23.9766 26.3149 23.7361 26.4752 23.4731 26.5836C23.2089 26.6919 22.9267 26.7484 22.6411 26.7472Z" fill="white"/>
</svg>
