<svg width="40" height="40" viewBox="0 0 40 40" fill="none" xmlns="http://www.w3.org/2000/svg">
<circle cx="20" cy="20" r="20" fill="url(#paint0_linear_5788_1594)"/>
<path fill-rule="evenodd" clip-rule="evenodd" d="M23.5234 11.2822H16.476C13.6119 11.2822 11.2817 13.6124 11.2817 16.4765V23.5239C11.2817 26.388 13.6119 28.7181 16.476 28.7181H23.5234C26.3875 28.7181 28.7176 26.388 28.7176 23.5239V16.4765C28.7176 13.6124 26.3875 11.2822 23.5234 11.2822ZM26.9634 23.5237C26.9634 25.4237 25.4232 26.9639 23.5232 26.9639H16.4758C14.5759 26.9639 13.0356 25.4237 13.0356 23.5237V16.4763C13.0356 14.5763 14.5759 13.0361 16.4758 13.0361H23.5232C25.4232 13.0361 26.9634 14.5763 26.9634 16.4763V23.5237ZM15.4902 20.0003C15.4902 17.5138 17.5132 15.4908 19.9998 15.4908C22.4863 15.4908 24.5093 17.5137 24.5093 20.0003C24.5093 22.4869 22.4863 24.5098 19.9998 24.5098C17.5132 24.5098 15.4902 22.4868 15.4902 20.0003ZM19.9996 22.7556C18.4778 22.7556 17.2441 21.522 17.2441 20.0001C17.2441 18.4783 18.4778 17.2446 19.9996 17.2446C21.5215 17.2446 22.7551 18.4783 22.7551 20.0001C22.7551 21.5219 21.5214 22.7556 19.9996 22.7556ZM24.5181 16.605C25.1149 16.605 25.5987 16.1212 25.5987 15.5244C25.5987 14.9276 25.1149 14.4438 24.5181 14.4438C23.9213 14.4438 23.4375 14.9276 23.4375 15.5244C23.4375 16.1212 23.9213 16.605 24.5181 16.605Z" fill="white"/>
<defs>
<linearGradient id="paint0_linear_5788_1594" x1="0.133641" y1="-0.0668204" x2="6.24504e-07" y2="39.9332" gradientUnits="userSpaceOnUse">
<stop stop-color="#7024C4"/>
<stop offset="0.415461" stop-color="#C21975"/>
<stop offset="0.702206" stop-color="#C74C4D"/>
<stop offset="1" stop-color="#E09B3D"/>
</linearGradient>
</defs>
</svg>
