<svg width="1190" height="1569" viewBox="0 0 1190 1569" fill="none" xmlns="http://www.w3.org/2000/svg">
<g style="mix-blend-mode:multiply" opacity="0.2">
<path d="M818.731 81.9538C763.874 154.501 698.148 218.161 623.863 270.69C548.642 326.717 466.38 377.912 384.56 434.818C298.752 491.602 220.236 558.675 150.762 634.54C115.174 674.83 84.3234 719.062 58.821 766.37C32.8723 815.75 15.1922 869.041 6.47681 924.127C-10.4092 1033.9 5.90114 1146.21 53.3224 1246.67C76.8684 1296.91 108.031 1343.23 145.703 1383.99C183.195 1424.07 226.133 1458.68 273.267 1486.82C296.614 1500.66 320.863 1512.92 345.85 1523.51C354.922 1527.93 364.432 1531.39 374.224 1533.84L383.9 1535.6C388.223 1535.82 392.556 1535.82 396.878 1535.6C407.052 1535.05 417.008 1532.44 426.133 1527.91C435.766 1523 444.471 1516.46 451.865 1508.57C462.5 1496.82 472.209 1484.26 480.899 1471C496.295 1446.83 505.968 1431.67 520.705 1410.36L561.617 1349.72L725.034 1108.03L761.768 1053.76L707.003 1017.73L562.277 922.588C638.598 796.031 710.299 669.256 787.28 544.677C664.331 662.005 545.341 786.365 424.812 901.716L372.462 951.372L438.446 996.632L580.094 1089.57L453.186 1277.65L412.934 1338.29C401.057 1355.43 386.322 1378.28 375.765 1394.98C363.427 1389.22 351.385 1382.84 339.691 1375.86C302.908 1354.07 269.431 1327.14 240.275 1295.89C211.683 1265.01 188.087 1229.88 170.334 1191.74C133.967 1114.84 121.409 1028.85 134.266 944.779C140.758 903.504 153.985 863.571 173.417 826.572C194.182 788.175 219.27 752.276 248.196 719.571C310.68 651.718 381.218 591.732 458.244 540.942C536.544 486.672 619.903 434.818 700.183 374.396C755.469 333.75 806.996 288.233 854.144 238.392C901.185 336.406 942.311 437.142 977.31 540.062C1022.25 667.359 1041.25 802.35 1033.18 937.09C1022.06 1069.89 978.973 1198.03 907.589 1310.61C834.876 1431.15 722.31 1522.53 589.33 1568.99C665.298 1569.35 740.251 1551.57 807.954 1517.14C877.392 1481.61 939.717 1433.65 991.83 1375.64C1044.43 1317.33 1087.88 1251.41 1120.71 1180.1C1155.13 1107.99 1177.07 1030.58 1185.6 951.152C1188.46 923.907 1189.78 896.663 1190 869.638V862.166C1187.1 735.808 1163.62 610.766 1120.49 491.944C1069.6 351.541 1004.68 216.615 926.727 89.2048L875.918 0L818.731 81.9538Z" fill="#70B483"/>
</g>
</svg>
