<svg width="42" height="54" viewBox="0 0 42 54" fill="none" xmlns="http://www.w3.org/2000/svg">
<path d="M28.8964 2.82059C26.9603 5.31743 24.6405 7.5084 22.0187 9.31627C19.3638 11.2446 16.4605 13.0065 13.5727 14.9651C10.5442 16.9194 7.77303 19.2278 5.321 21.8389C4.06497 23.2255 2.97612 24.7478 2.07604 26.376C1.1602 28.0755 0.536196 29.9096 0.228593 31.8055C-0.367385 35.5837 0.208275 39.4491 1.88197 42.9064C2.713 44.6357 3.81285 46.2298 5.14248 47.6326C6.4657 49.0119 7.98117 50.2033 9.64472 51.1717C10.4687 51.6479 11.3246 52.0698 12.2065 52.4345C12.5266 52.5867 12.8623 52.7057 13.2079 52.7899L13.5494 52.8504C13.702 52.8581 13.8549 52.8581 14.0075 52.8504C14.3665 52.8316 14.7179 52.7416 15.04 52.5857C15.38 52.4168 15.6872 52.1916 15.9482 51.9203C16.3235 51.5157 16.6662 51.0834 16.9729 50.6272C17.5163 49.7954 17.8577 49.2736 18.3778 48.5401L19.8218 46.453L25.5894 38.1349L26.8859 36.2671L24.953 35.0269L19.8451 31.7526C22.5388 27.3969 25.0694 23.0337 27.7864 18.746C23.447 22.7841 19.2473 27.0642 14.9934 31.0342L13.1457 32.7432L15.4746 34.3009L20.4739 37.4997L15.9948 43.9727L14.5741 46.0598C14.155 46.6496 13.6349 47.436 13.2623 48.0107C12.8268 47.8124 12.4018 47.5928 11.9891 47.3528C10.6909 46.6028 9.50933 45.6759 8.48031 44.6003C7.47117 43.5378 6.63836 42.3285 6.0118 41.0159C4.72824 38.3694 4.28503 35.4098 4.7388 32.5163C4.96794 31.0957 5.43475 29.7214 6.12059 28.448C6.85348 27.1265 7.73893 25.891 8.75985 24.7654C10.9652 22.4301 13.4547 20.3655 16.1733 18.6175C18.9369 16.7497 21.8789 14.9651 24.7123 12.8855C26.6636 11.4866 28.4822 9.92005 30.1463 8.20469C31.8065 11.578 33.258 15.045 34.4933 18.5872C36.0794 22.9684 36.7499 27.6143 36.4651 32.2517C36.0726 36.8221 34.552 41.2325 32.0326 45.107C29.4662 49.2555 25.4933 52.4008 20.7999 53.9998C23.4811 54.0119 26.1265 53.4001 28.516 52.2152C30.9668 50.9922 33.1665 49.3415 35.0058 47.3453C36.8622 45.3385 38.3958 43.0694 39.5546 40.6152C40.7694 38.1336 41.5437 35.4693 41.8446 32.7356C41.9455 31.798 41.9922 30.8603 42 29.9302V29.673C41.8976 25.3242 41.069 21.0206 39.5468 16.9312C37.7505 12.0989 35.4594 7.45519 32.708 3.07015L30.9148 0L28.8964 2.82059Z" fill="url(#paint0_linear_1_9742)"/>
<defs>
<linearGradient id="paint0_linear_1_9742" x1="-7.82311e-08" y1="27" x2="42" y2="27" gradientUnits="userSpaceOnUse">
<stop stop-color="#84BCC3"/>
<stop offset="0.276042" stop-color="#68ADB0"/>
<stop offset="0.640625" stop-color="#6FB482"/>
<stop offset="1" stop-color="#92B661"/>
</linearGradient>
</defs>
</svg>
