<svg width="36" height="44" viewBox="0 0 36 44" fill="none" xmlns="http://www.w3.org/2000/svg">
<g clip-path="url(#clip0_5762_1318)">
<path d="M22.3458 28.6625C17.3872 29.8693 12.2168 29.8693 7.25814 28.6625C7.00364 28.6091 6.73859 28.6564 6.51752 28.7949C6.29645 28.9333 6.13617 29.1523 6.06963 29.4068C6.00978 29.6676 6.05449 29.9418 6.19396 30.1692C6.33343 30.3966 6.55627 30.5587 6.81359 30.6199C9.43544 31.247 12.1217 31.5554 14.8156 31.5388C17.5065 31.5549 20.1897 31.2464 22.8085 30.6199C22.9392 30.5937 23.0634 30.5413 23.1738 30.4658C23.2842 30.3902 23.3785 30.2931 23.4512 30.18C23.5239 30.067 23.5736 29.9403 23.5972 29.8075C23.6208 29.6747 23.618 29.5385 23.5888 29.4068C23.5571 29.2743 23.4995 29.1496 23.4195 29.04C23.3394 28.9304 23.2384 28.8382 23.1225 28.7688C23.0067 28.6994 22.8782 28.6542 22.7448 28.636C22.6114 28.6177 22.4757 28.6267 22.3458 28.6625Z" fill="url(#paint0_linear_5762_1318)"/>
<path d="M14.8156 35.1688C14.5317 35.1669 14.2537 35.2505 14.0167 35.409C13.7798 35.5674 13.5947 35.7935 13.4848 36.0587C13.3749 36.3238 13.3452 36.6161 13.3995 36.8983C13.4538 37.1806 13.5896 37.4401 13.7897 37.6441C13.9898 37.8481 14.2452 37.9873 14.5235 38.0441C14.8018 38.1009 15.0905 38.0726 15.353 37.963C15.6154 37.8534 15.8398 37.6673 15.9978 37.4283C16.1557 37.1894 16.24 36.9083 16.24 36.6207C16.24 36.2372 16.0902 35.8693 15.8233 35.5973C15.5565 35.3252 15.1942 35.1712 14.8156 35.1688Z" fill="url(#paint1_linear_5762_1318)"/>
<path d="M36 15.8889C35.9889 14.0954 35.3411 12.3658 34.1751 11.0161C33.0091 9.66631 31.4027 8.78644 29.6492 8.5372V8.36259C29.648 7.26242 29.4327 6.17328 29.0157 5.15743C28.5987 4.14158 27.9881 3.21896 27.2188 2.4423C26.4495 1.66564 25.5366 1.05019 24.5323 0.631123C23.5281 0.212059 22.4521 -0.00239578 21.3659 2.01877e-05H8.25605C6.06715 0.0024526 3.96858 0.884288 2.42079 2.45205C0.873004 4.01981 0.00240143 6.14545 0 8.36259L0 35.6374C0.00240143 37.8546 0.873004 39.9802 2.42079 41.548C3.96858 43.1158 6.06715 43.9976 8.25605 44H21.3659C23.5548 43.9976 25.6534 43.1158 27.2012 41.548C28.749 39.9802 29.6196 37.8546 29.622 35.6374V23.2866C31.3873 23.0404 33.0053 22.156 34.1775 20.7965C35.3496 19.4369 35.9969 17.6939 36 15.8889ZM21.3659 41.9783H8.25605C6.59651 41.9759 5.00563 41.307 3.83215 40.1184C2.65868 38.9298 1.99837 37.3184 1.99597 35.6374V8.36259C1.99837 6.68164 2.65868 5.07023 3.83215 3.88162C5.00563 2.693 6.59651 2.02417 8.25605 2.02174H21.3659C22.188 2.02174 23.002 2.18575 23.7616 2.50441C24.5211 2.82307 25.2112 3.29013 25.7925 3.87893C26.3738 4.46774 26.8349 5.16675 27.1495 5.93605C27.4641 6.70536 27.626 7.5299 27.626 8.36259V8.50044C25.8617 8.74503 24.2445 9.62867 23.0738 10.9879C21.9031 12.347 21.258 14.0897 21.258 15.8935C21.258 17.6973 21.9031 19.44 23.0738 20.7992C24.2445 22.1583 25.8617 23.042 27.626 23.2866V35.6374C27.6236 37.3184 26.9633 38.9298 25.7898 40.1184C24.6163 41.307 23.0255 41.9759 21.3659 41.9783ZM28.624 21.5222C27.524 21.5222 26.4488 21.1918 25.5342 20.5728C24.6196 19.9538 23.9068 19.074 23.4858 18.0447C23.0649 17.0153 22.9548 15.8827 23.1694 14.7899C23.384 13.6972 23.9136 12.6934 24.6914 11.9056C25.4692 11.1178 26.4602 10.5813 27.539 10.3639C28.6178 10.1465 29.7361 10.2581 30.7523 10.6845C31.7685 11.1108 32.6371 11.8329 33.2482 12.7592C33.8593 13.6856 34.1855 14.7748 34.1855 15.8889C34.1831 17.3822 33.5964 18.8136 32.5539 19.8695C31.5114 20.9254 30.0983 21.5197 28.624 21.5222Z" fill="url(#paint2_linear_5762_1318)"/>
<path d="M30.3568 13.4352L27.635 16.1921L26.8911 15.4386C26.7981 15.3445 26.6878 15.2698 26.5664 15.2188C26.445 15.1679 26.3148 15.1417 26.1834 15.1417C26.052 15.1417 25.9218 15.1679 25.8004 15.2188C25.679 15.2698 25.5687 15.3445 25.4757 15.4386C25.3828 15.5327 25.3091 15.6445 25.2588 15.7675C25.2085 15.8904 25.1826 16.0223 25.1826 16.1554C25.1826 16.2885 25.2085 16.4203 25.2588 16.5433C25.3091 16.6663 25.3828 16.778 25.4757 16.8722L26.9274 18.3793C27.1143 18.5673 27.367 18.6728 27.6305 18.6728C27.8939 18.6728 28.1467 18.5673 28.3336 18.3793L31.754 14.8688C31.8469 14.7747 31.9206 14.6629 31.9709 14.54C32.0212 14.417 32.0471 14.2852 32.0471 14.152C32.0471 14.0189 32.0212 13.8871 31.9709 13.7641C31.9206 13.6411 31.8469 13.5294 31.754 13.4352C31.661 13.3411 31.5507 13.2664 31.4293 13.2155C31.3079 13.1646 31.1777 13.1383 31.0463 13.1383C30.9149 13.1383 30.7847 13.1646 30.6633 13.2155C30.5419 13.2664 30.4316 13.3411 30.3386 13.4352H30.3568Z" fill="url(#paint3_linear_5762_1318)"/>
</g>
<defs>
<linearGradient id="paint0_linear_5762_1318" x1="6.0437" y1="30.0831" x2="23.613" y2="30.0831" gradientUnits="userSpaceOnUse">
<stop stop-color="#98D6DE"/>
<stop offset="0.276042" stop-color="#73C1C5"/>
<stop offset="0.640625" stop-color="#78C88E"/>
<stop offset="1" stop-color="#A4CC6D"/>
</linearGradient>
<linearGradient id="paint1_linear_5762_1318" x1="13.373" y1="36.6207" x2="16.24" y2="36.6207" gradientUnits="userSpaceOnUse">
<stop stop-color="#98D6DE"/>
<stop offset="0.276042" stop-color="#73C1C5"/>
<stop offset="0.640625" stop-color="#78C88E"/>
<stop offset="1" stop-color="#A4CC6D"/>
</linearGradient>
<linearGradient id="paint2_linear_5762_1318" x1="-6.70552e-08" y1="22" x2="36" y2="22" gradientUnits="userSpaceOnUse">
<stop stop-color="#98D6DE"/>
<stop offset="0.276042" stop-color="#73C1C5"/>
<stop offset="0.640625" stop-color="#78C88E"/>
<stop offset="1" stop-color="#A4CC6D"/>
</linearGradient>
<linearGradient id="paint3_linear_5762_1318" x1="25.1826" y1="15.9055" x2="32.0471" y2="15.9055" gradientUnits="userSpaceOnUse">
<stop stop-color="#98D6DE"/>
<stop offset="0.276042" stop-color="#73C1C5"/>
<stop offset="0.640625" stop-color="#78C88E"/>
<stop offset="1" stop-color="#A4CC6D"/>
</linearGradient>
<clipPath id="clip0_5762_1318">
<rect width="36" height="44" fill="white"/>
</clipPath>
</defs>
</svg>
