<svg width="50" height="60" viewBox="0 0 50 60" fill="none" xmlns="http://www.w3.org/2000/svg">
<g clip-path="url(#clip0_6367_2955)">
<path d="M31.0364 39.0852C24.1494 40.7309 16.9683 40.7309 10.0813 39.0852C9.72777 39.0123 9.35965 39.077 9.05261 39.2658C8.74557 39.4546 8.52295 39.7532 8.43055 40.1002C8.34741 40.4558 8.40951 40.8297 8.60322 41.1398C8.79694 41.4499 9.10644 41.6709 9.46382 41.7544C13.1053 42.6095 16.8362 43.0301 20.5777 43.0075C24.3151 43.0294 28.0417 42.6087 31.679 41.7544C31.8605 41.7187 32.033 41.6472 32.1863 41.5442C32.3396 41.4412 32.4706 41.3087 32.5716 41.1546C32.6726 41.0004 32.7415 40.8277 32.7744 40.6466C32.8072 40.4655 32.8032 40.2798 32.7627 40.1002C32.7187 39.9195 32.6388 39.7494 32.5275 39.6C32.4163 39.4505 32.2761 39.3248 32.1151 39.2301C31.9542 39.1355 31.7758 39.0739 31.5905 39.049C31.4052 39.0241 31.2168 39.0364 31.0364 39.0852Z" fill="#67B4B8"/>
<path d="M20.5777 47.9574C20.1835 47.9549 19.7973 48.0689 19.4682 48.2849C19.1392 48.501 18.882 48.8093 18.7294 49.1709C18.5768 49.5325 18.5356 49.931 18.611 50.3159C18.6863 50.7007 18.875 51.0547 19.1529 51.3329C19.4308 51.611 19.7855 51.8008 20.1721 51.8783C20.5586 51.9557 20.9596 51.9172 21.3241 51.7677C21.6886 51.6182 22.0003 51.3645 22.2196 51.0386C22.439 50.7128 22.5561 50.3295 22.5561 49.9373C22.5561 49.4144 22.3481 48.9127 21.9774 48.5417C21.6068 48.1707 21.1036 47.9607 20.5777 47.9574Z" fill="#67B4B8"/>
<path d="M50 21.6667C49.9845 19.221 49.0849 16.8625 47.4655 15.0219C45.846 13.1813 43.6148 11.9815 41.1794 11.6416V11.4035C41.1778 9.90327 40.8788 8.41808 40.2996 7.03283C39.7204 5.64758 38.8723 4.38945 37.8039 3.33038C36.7354 2.2713 35.4675 1.43204 34.0727 0.860592C32.6779 0.289141 31.1834 -0.00329748 29.6749 -2.98889e-06H11.4667C8.42659 0.00331394 5.51192 1.20582 3.36221 3.34367C1.21251 5.48152 0.00333532 8.38013 0 11.4035L0 48.5965C0.00333532 51.6199 1.21251 54.5185 3.36221 56.6563C5.51192 58.7942 8.42659 59.9967 11.4667 60H29.6749C32.715 59.9967 35.6297 58.7942 37.7794 56.6563C39.9291 54.5185 41.1383 51.6199 41.1416 48.5965V31.7544C43.5935 31.4187 45.8407 30.2127 47.4687 28.3588C49.0967 26.5049 49.9958 24.128 50 21.6667ZM29.6749 57.2431H11.4667C9.16182 57.2398 6.95226 56.3277 5.32244 54.7069C3.69261 53.0861 2.77551 50.8887 2.77218 48.5965V11.4035C2.77551 9.1113 3.69261 6.91392 5.32244 5.29309C6.95226 3.67225 9.16182 2.7602 11.4667 2.75689H29.6749C30.8167 2.75689 31.9473 2.98054 33.0022 3.41507C34.057 3.84961 35.0155 4.48651 35.8229 5.28942C36.6302 6.09234 37.2707 7.04553 37.7076 8.09459C38.1446 9.14364 38.3695 10.268 38.3695 11.4035V11.5915C35.919 11.925 33.6729 13.13 32.0469 14.9834C30.4209 16.8368 29.525 19.2133 29.525 21.6729C29.525 24.1326 30.4209 26.509 32.0469 28.3625C33.6729 30.2159 35.919 31.4209 38.3695 31.7544V48.5965C38.3661 50.8887 37.449 53.0861 35.8192 54.7069C34.1894 56.3277 31.9798 57.2398 29.6749 57.2431ZM39.7555 29.3484C38.2278 29.3484 36.7344 28.8978 35.4642 28.0538C34.1939 27.2097 33.2039 26.01 32.6192 24.6063C32.0346 23.2027 31.8816 21.6581 32.1797 20.168C32.4777 18.6779 33.2134 17.3092 34.2936 16.2349C35.3739 15.1606 36.7502 14.429 38.2486 14.1326C39.747 13.8362 41.3001 13.9883 42.7115 14.5697C44.1229 15.1511 45.3293 16.1357 46.1781 17.3989C47.0268 18.6622 47.4798 20.1474 47.4798 21.6667C47.4765 23.703 46.6616 25.6549 45.2138 27.0948C43.7659 28.5347 41.8031 29.3451 39.7555 29.3484Z" fill="#67B4B8"/>
<path d="M42.1629 18.3208L38.3827 22.0802L37.3494 21.0526C37.2203 20.9243 37.0671 20.8224 36.8985 20.753C36.7298 20.6835 36.5491 20.6478 36.3665 20.6478C36.184 20.6478 36.0033 20.6835 35.8346 20.753C35.666 20.8224 35.5127 20.9243 35.3837 21.0526C35.2546 21.181 35.1522 21.3334 35.0824 21.5011C35.0125 21.6688 34.9766 21.8485 34.9766 22.0301C34.9766 22.2116 35.0125 22.3913 35.0824 22.5591C35.1522 22.7268 35.2546 22.8792 35.3837 23.0075L37.3998 25.0626C37.6595 25.319 38.0105 25.4629 38.3764 25.4629C38.7422 25.4629 39.0933 25.319 39.3529 25.0626L44.1034 20.2757C44.2325 20.1473 44.3349 19.9949 44.4047 19.8272C44.4746 19.6595 44.5106 19.4798 44.5106 19.2982C44.5106 19.1167 44.4746 18.937 44.4047 18.7692C44.3349 18.6015 44.2325 18.4492 44.1034 18.3208C43.9744 18.1924 43.8211 18.0906 43.6525 18.0211C43.4839 17.9517 43.3031 17.9159 43.1206 17.9159C42.938 17.9159 42.7573 17.9517 42.5887 18.0211C42.42 18.0906 42.2668 18.1924 42.1377 18.3208H42.1629Z" fill="#67B4B8"/>
</g>
<defs>
<clipPath id="clip0_6367_2955">
<rect width="50" height="60" fill="white"/>
</clipPath>
</defs>
</svg>
