<svg width="19" height="20" viewBox="0 0 19 20" fill="none" xmlns="http://www.w3.org/2000/svg">
<path d="M15.9655 18.3904H2.49691C2.29023 18.3917 2.0904 18.317 1.93601 18.1809C1.78162 18.0448 1.6836 17.8569 1.66087 17.6534L1.0004 7.83608C0.996919 7.7264 1.01616 7.61717 1.05694 7.51514C1.09772 7.41311 1.15918 7.32043 1.23751 7.24283C1.31585 7.16524 1.40942 7.10436 1.51243 7.06397C1.61544 7.02357 1.72571 7.00452 1.83644 7.00797H16.764C16.9857 7.00797 17.1983 7.09521 17.3551 7.25051C17.5119 7.40582 17.6 7.61645 17.6 7.83608L16.8016 17.6617C16.7769 17.8637 16.6781 18.0496 16.5239 18.184C16.3697 18.3184 16.1709 18.3919 15.9655 18.3904V18.3904Z" stroke="#B8B8C0" stroke-width="1.5" stroke-linecap="round" stroke-linejoin="round"/>
<path d="M5.11914 9.69522V5.14058C5.11914 4.04243 5.55956 2.98926 6.3435 2.21275C7.12745 1.43624 8.19069 1 9.29935 1C10.408 1 11.4713 1.43624 12.2552 2.21275C13.0391 2.98926 13.4796 4.04243 13.4796 5.14058V9.69522" stroke="#B8B8C0" stroke-width="1.5" stroke-linecap="round" stroke-linejoin="round"/>
</svg>
