<svg width="45" height="45" viewBox="0 0 45 45" fill="none" xmlns="http://www.w3.org/2000/svg">
<path d="M36.6 42.4999H5.91432C5.44344 42.5028 4.98818 42.3311 4.63642 42.018C4.28467 41.705 4.06136 41.2727 4.00957 40.8047L2.50482 18.2238C2.49689 17.9715 2.54072 17.7203 2.63363 17.4856C2.72655 17.2509 2.86656 17.0377 3.04504 16.8592C3.22352 16.6808 3.43669 16.5408 3.67137 16.4478C3.90606 16.3549 4.15729 16.3111 4.40958 16.319H38.419C38.9242 16.319 39.4087 16.5197 39.7659 16.8769C40.1231 17.2341 40.3238 17.7186 40.3238 18.2238L38.5048 40.8237C38.4486 41.2883 38.2234 41.716 37.8721 42.0251C37.5208 42.3343 37.0679 42.5033 36.6 42.4999V42.4999Z" stroke="url(#paint0_linear_6527_908)" stroke-width="1.5" stroke-linecap="round" stroke-linejoin="round"/>
<path d="M11.8867 22.5V12.0238C11.8867 9.49793 12.8901 7.07551 14.6762 5.28945C16.4623 3.50339 18.8846 2.5 21.4105 2.5C23.9364 2.5 26.3588 3.50339 28.1449 5.28945C29.9309 7.07551 30.9343 9.49793 30.9343 12.0238V22.5" stroke="url(#paint1_linear_6527_908)" stroke-width="1.5" stroke-linecap="round" stroke-linejoin="round"/>
<defs>
<linearGradient id="paint0_linear_6527_908" x1="2.50391" y1="29.409" x2="40.3238" y2="29.409" gradientUnits="userSpaceOnUse">
<stop stop-color="#84BCC3"/>
<stop offset="0.276042" stop-color="#68ADB0"/>
<stop offset="0.640625" stop-color="#6FB482"/>
<stop offset="1" stop-color="#92B661"/>
</linearGradient>
<linearGradient id="paint1_linear_6527_908" x1="11.8867" y1="12.5" x2="30.9343" y2="12.5" gradientUnits="userSpaceOnUse">
<stop stop-color="#84BCC3"/>
<stop offset="0.276042" stop-color="#68ADB0"/>
<stop offset="0.640625" stop-color="#6FB482"/>
<stop offset="1" stop-color="#92B661"/>
</linearGradient>
</defs>
</svg>
