<svg width="46" height="47" viewBox="0 0 46 47" fill="none" xmlns="http://www.w3.org/2000/svg">
<path d="M12.3906 11.4122C12.3906 8.82629 13.4355 6.34639 15.2954 4.5179C17.1554 2.6894 19.678 1.66205 22.3083 1.66205C24.9386 1.66205 27.4612 2.6894 29.3211 4.5179C31.1811 6.34639 32.226 8.82629 32.226 11.4122C32.226 16.7964 27.785 22.6642 22.3083 22.6642C16.8316 22.6642 12.3906 16.7836 12.3906 11.4122Z" stroke="url(#paint0_linear_6527_901)" stroke-width="1.7" stroke-miterlimit="10"/>
<path d="M42.1433 46C40.6923 38.8241 32.3747 31.9985 22.308 31.9985C12.2413 31.9985 3.91075 38.8241 2.47266 46" stroke="url(#paint1_linear_6527_901)" stroke-width="1.7" stroke-miterlimit="10" stroke-linecap="round"/>
<defs>
<linearGradient id="paint0_linear_6527_901" x1="12.3906" y1="12.1631" x2="32.226" y2="12.1631" gradientUnits="userSpaceOnUse">
<stop stop-color="#84BCC3"/>
<stop offset="0.276042" stop-color="#68ADB0"/>
<stop offset="0.640625" stop-color="#6FB482"/>
<stop offset="1" stop-color="#92B661"/>
</linearGradient>
<linearGradient id="paint1_linear_6527_901" x1="2.47266" y1="38.9992" x2="42.1433" y2="38.9992" gradientUnits="userSpaceOnUse">
<stop stop-color="#84BCC3"/>
<stop offset="0.276042" stop-color="#68ADB0"/>
<stop offset="0.640625" stop-color="#6FB482"/>
<stop offset="1" stop-color="#92B661"/>
</linearGradient>
</defs>
</svg>
