<svg width="18" height="22" viewBox="0 0 18 22" fill="none" xmlns="http://www.w3.org/2000/svg">
<path d="M5.15918 5.03672C5.15918 3.96612 5.55367 2.93933 6.25588 2.1823C6.95808 1.42528 7.91047 1 8.90354 1C9.89661 1 10.849 1.42528 11.5512 2.1823C12.2534 2.93933 12.6479 3.96612 12.6479 5.03672C12.6479 7.26586 10.9712 9.69524 8.90354 9.69524C6.83583 9.69524 5.15918 7.26586 5.15918 5.03672Z" stroke="#B8B8C0" stroke-width="1.5" stroke-miterlimit="10"/>
<path d="M8.90476 20.7619C11.1691 20.764 13.3654 20.052 15.2209 18.7425C16.2911 17.9871 16.7371 16.5609 16.0179 15.466C14.6923 13.4477 12.0069 12.0667 8.90476 12.0667C5.8007 12.0667 3.11084 13.4494 1.78706 15.4698C1.07071 16.563 1.51668 17.9855 2.58406 18.74C4.44022 20.0519 6.63845 20.7649 8.90476 20.7619Z" stroke="#B8B8C0" stroke-width="1.5" stroke-miterlimit="10"/>
</svg>
