<svg width="400" height="300" viewBox="0 0 400 300" fill="none" xmlns="http://www.w3.org/2000/svg">
<rect width="400" height="300" fill="url(#paint0_linear_30_36)"/>
<g clip-path="url(#clip0_30_36)">
<path d="M172.13 64.7451L165.061 59.0829C164.833 58.9004 164.557 58.8135 164.289 58.8454C164.021 58.8773 163.771 59.0192 163.59 59.2509C163.218 59.7201 163.293 60.337 163.765 60.7164L166.501 62.9059L163.782 66.338L161.047 64.1484C160.819 63.966 160.546 63.882 160.275 63.9109C160.007 63.9428 159.757 64.0847 159.576 64.3164C159.204 64.7856 159.276 65.4025 159.751 65.7848L166.82 71.447C167.025 71.6092 167.255 71.6903 167.483 71.6903C167.782 71.6903 168.076 71.5513 168.292 71.279C168.663 70.8098 168.588 70.19 168.113 69.8106L165.231 67.5023L167.949 64.0702L170.831 66.3786C171.306 66.758 171.926 66.6884 172.303 66.2106C172.487 65.9789 172.568 65.7037 172.533 65.4344C172.499 65.1708 172.355 64.9246 172.127 64.7422L172.13 64.7451Z" fill="white"/>
<path d="M178.358 54.1419L178.341 54.1187C177.353 52.7604 176.196 51.877 174.995 51.57C173.719 51.2427 172.386 51.5526 171.139 52.4708C169.893 53.3889 169.193 54.5705 169.118 55.8912C169.046 57.1366 169.53 58.5123 170.518 59.8707L170.538 59.8967C171.603 61.3651 172.804 62.2514 174.105 62.5323C174.393 62.5932 174.681 62.625 174.969 62.625C175.928 62.625 176.89 62.2862 177.794 61.6229C180.244 59.8214 180.455 57.0266 178.358 54.1419V54.1419ZM177.915 58.2546C177.88 58.9584 177.489 59.5753 176.714 60.1429C175.942 60.7106 175.237 60.8989 174.56 60.7193C173.846 60.5281 173.135 59.9373 172.386 58.9091L171.9 58.2401C170.65 56.5197 170.765 55.0919 172.248 54.0029C172.821 53.58 173.38 53.3715 173.924 53.3715C174.785 53.3715 175.603 53.9015 176.369 54.9557L176.855 55.6248C177.604 56.6529 177.949 57.5131 177.912 58.2546H177.915Z" fill="white"/>
<path d="M182.312 57.0613C182.41 57.3481 182.6 57.5711 182.845 57.6898C182.974 57.7535 183.115 57.7854 183.259 57.7854C183.371 57.7854 183.487 57.7651 183.599 57.7275C184.137 57.5392 184.382 56.9831 184.181 56.4068L182.185 50.649L186.185 55.8536C186.576 56.3633 187.046 56.5139 187.619 56.3141L187.843 56.2359C188.387 56.0447 188.661 55.6248 188.652 54.9876L188.555 48.3262L190.579 54.1622C190.674 54.4402 190.861 54.6574 191.106 54.7762C191.35 54.8949 191.636 54.9065 191.912 54.808C192.188 54.7125 192.404 54.5213 192.517 54.2751C192.626 54.0347 192.635 53.7509 192.54 53.4729L189.718 45.3402C189.591 44.9753 189.346 44.6885 189.03 44.5379C188.713 44.3873 188.336 44.3757 187.967 44.5032L187.728 44.5872C186.896 44.8797 186.735 45.3373 186.738 46.0353L186.87 53.6553L182.303 47.5964C181.837 46.965 181.353 46.8231 180.584 47.0953L180.345 47.1793C179.579 47.4487 179.228 48.1698 179.493 48.9315L182.315 57.0642L182.312 57.0613Z" fill="white"/>
<path d="M196.197 54.1361C196.231 54.1361 196.269 54.1361 196.303 54.1332L200.916 53.8552C201.161 53.8407 201.377 53.7393 201.529 53.5655C201.685 53.386 201.763 53.1427 201.748 52.8762C201.717 52.3404 201.331 51.99 200.807 52.0218L196.735 52.2651L196.58 49.6324L200.32 49.4094C200.835 49.3776 201.198 48.9518 201.167 48.416C201.135 47.8802 200.729 47.5153 200.208 47.5471L196.467 47.7701L196.312 45.1374L200.355 44.8942C200.887 44.8623 201.25 44.4366 201.216 43.8834C201.184 43.3389 200.775 42.9682 200.242 43L195.661 43.2752C194.771 43.3273 194.167 44.0166 194.218 44.9115L194.679 52.6822C194.731 53.5395 195.362 54.1361 196.197 54.1361V54.1361Z" fill="white"/>
<path d="M205.817 53.3975L206.304 50.5274L207.879 50.7967C210.309 51.2138 211.916 50.1856 212.29 47.9816C212.474 46.8984 212.316 45.9889 211.824 45.2765C211.311 44.5408 210.47 44.0658 209.324 43.8718L206.951 43.4663C206.528 43.3939 206.116 43.4808 205.791 43.7125C205.469 43.9442 205.25 44.3062 205.178 44.732L203.77 53.05C203.669 53.6524 204.029 54.1622 204.625 54.2635C204.691 54.2751 204.754 54.2809 204.818 54.2809C205.322 54.2809 205.728 53.9334 205.817 53.4004V53.3975ZM206.606 48.7346L207.167 45.4126L208.849 45.7022C209.485 45.8123 209.903 46.0266 210.122 46.3568C210.318 46.6551 210.367 47.0692 210.274 47.6224C210.125 48.5029 209.75 49.2762 208.026 48.9808L206.606 48.7375V48.7346Z" fill="white"/>
<path d="M213.874 56.3141L218.037 58.0605C218.17 58.1155 218.299 58.1445 218.426 58.1445C218.538 58.1445 218.648 58.1242 218.749 58.0808C218.965 57.991 219.134 57.8143 219.232 57.5797C219.437 57.0845 219.232 56.5747 218.737 56.3691L215.072 54.8312L218.19 47.3096C218.423 46.7449 218.187 46.1685 217.626 45.9339C217.361 45.8238 217.079 45.8181 216.834 45.9194C216.586 46.0237 216.385 46.2322 216.272 46.5074L213.044 54.2954C212.702 55.1237 213.05 55.9723 213.874 56.317V56.3141Z" fill="white"/>
<path d="M230.333 52.9515L229.953 52.6648C229.377 52.2304 228.775 52.242 228.113 52.6967L220.577 57.9273C220.278 58.1387 220.093 58.4544 220.088 58.7701C220.082 59.0655 220.226 59.3349 220.491 59.5347C220.871 59.8186 221.303 59.7983 221.784 59.471L223.796 58.0634L226.88 60.3804L226.1 62.8133C225.942 63.297 226.065 63.7227 226.454 64.0123C226.65 64.16 226.863 64.2353 227.076 64.2353C227.171 64.2353 227.266 64.2209 227.361 64.189C227.672 64.0847 227.925 63.8183 228.021 63.4939L230.828 54.7327C231.07 53.9681 230.909 53.3831 230.333 52.9515V52.9515ZM228.763 54.5676L227.494 58.5094L225.394 56.9339L228.763 54.5676Z" fill="white"/>
<path d="M241.436 64.5134C241.272 64.3048 241.044 64.1716 240.794 64.1426C240.526 64.1108 240.244 64.2006 240.005 64.3917L234.669 68.6492L237.753 61.9038C238.03 61.3275 238.312 60.7309 237.73 59.9923L237.436 59.6187C237.416 59.5926 237.396 59.5695 237.376 59.5463H237.373C236.866 58.9728 236.115 58.9062 235.51 59.387L228.838 64.7074C228.363 65.0868 228.28 65.6921 228.64 66.1497C228.815 66.3728 229.06 66.506 229.328 66.5234C229.584 66.5407 229.846 66.451 230.071 66.2714L235.548 61.9038L232.374 68.9678C232.13 69.5123 231.873 70.0771 232.423 70.7722L232.7 71.1226C232.965 71.4586 233.319 71.6324 233.685 71.6324C233.967 71.6324 234.255 71.531 234.514 71.3225L241.235 65.9615C241.459 65.7819 241.606 65.5386 241.643 65.2809C241.684 65.0144 241.609 64.7422 241.433 64.5221L241.436 64.5134Z" fill="white"/>
<path d="M200.499 68.8346C200.167 68.8346 199.842 68.9359 199.569 69.1242L183.158 80.3414C182.937 80.492 182.755 80.6976 182.629 80.9351C182.502 81.1726 182.439 81.4391 182.439 81.7084V108.432C182.439 108.869 182.614 109.289 182.922 109.599C183.23 109.909 183.651 110.083 184.088 110.083H216.909C217.346 110.083 217.764 109.909 218.075 109.599C218.383 109.289 218.559 108.869 218.559 108.432V81.7055C218.559 81.4362 218.492 81.1697 218.369 80.9322C218.242 80.6947 218.06 80.4891 217.839 80.3385L201.429 69.1242C201.155 68.9359 200.833 68.8346 200.501 68.8346M216.912 113.99H184.088C182.617 113.99 181.209 113.402 180.17 112.359C179.13 111.317 178.545 109.903 178.543 108.429V81.7055C178.543 80.799 178.761 79.9069 179.185 79.1076C179.605 78.3053 180.218 77.6218 180.964 77.1121L197.374 65.8949C198.296 65.2664 199.384 64.9275 200.499 64.9275C201.613 64.9275 202.701 65.2635 203.623 65.8949L220.033 77.1121C220.779 77.6218 221.389 78.3082 221.812 79.1076C222.233 79.9069 222.455 80.799 222.455 81.7055V108.429C222.455 109.903 221.867 111.317 220.828 112.359C219.788 113.402 218.377 113.987 216.909 113.99" fill="white"/>
<path d="M197.02 100.027C196.292 100.027 195.569 99.8853 194.895 99.6073C194.221 99.3263 193.611 98.9179 193.095 98.3995L189.436 94.73C189.082 94.3621 188.886 93.8669 188.889 93.3571C188.891 92.8445 189.099 92.355 189.459 91.993C189.819 91.631 190.308 91.4253 190.821 91.4195C191.333 91.4167 191.823 91.6107 192.191 91.9669L195.851 95.6365C196.159 95.9464 196.58 96.1202 197.017 96.1202C197.455 96.1202 197.875 95.9464 198.184 95.6365L208.766 85.0275C208.947 84.8422 209.16 84.6973 209.399 84.596C209.638 84.4946 209.891 84.4425 210.148 84.4425C210.404 84.4425 210.66 84.4917 210.896 84.5902C211.135 84.6887 211.351 84.8335 211.533 85.0159C211.714 85.1984 211.858 85.4156 211.956 85.6531C212.054 85.8906 212.103 86.1484 212.103 86.4061C212.103 86.6639 212.051 86.9188 211.95 87.1563C211.85 87.3938 211.706 87.6081 211.521 87.7905L200.939 98.3995C200.427 98.9179 199.813 99.3292 199.142 99.6073C198.469 99.8853 197.749 100.03 197.02 100.027" fill="white"/>
<path d="M200.499 138C175.41 138 155 117.468 155 92.2334C155 85.5286 156.408 79.0699 159.187 73.0341C159.521 72.3072 160.376 71.9915 161.099 72.3274C161.821 72.6634 162.135 73.5236 161.801 74.2506C159.201 79.904 157.882 85.9543 157.882 92.2334C157.882 115.873 177.002 135.101 200.501 135.101C224.001 135.101 243.121 115.87 243.121 92.2334C243.121 85.9051 241.782 79.8114 239.141 74.1231C238.804 73.3991 239.115 72.536 239.838 72.1971C240.558 71.8583 241.416 72.171 241.753 72.898C244.572 78.9715 246.003 85.4793 246.003 92.2334C246.003 117.468 225.593 137.997 200.504 137.997L200.499 138Z" fill="white"/>
</g>
<defs>
<linearGradient id="paint0_linear_30_36" x1="-7.45058e-07" y1="150" x2="400" y2="150" gradientUnits="userSpaceOnUse">
<stop stop-color="#84BCC3"/>
<stop offset="0.276042" stop-color="#68ADB0"/>
<stop offset="0.640625" stop-color="#6FB482"/>
<stop offset="1" stop-color="#92B661"/>
</linearGradient>
<clipPath id="clip0_30_36">
<rect width="91" height="95" fill="white" transform="translate(155 43)"/>
</clipPath>
</defs>
</svg>
