<svg width="232" height="125" viewBox="0 0 232 125" fill="none" xmlns="http://www.w3.org/2000/svg">
<path fill-rule="evenodd" clip-rule="evenodd" d="M55.7612 95.464H84.3046C80.4903 92.143 75.4981 90.1317 70.0329 90.1317C64.5676 90.1317 59.5754 92.143 55.7612 95.464ZM53.1003 95.721C57.3529 91.2629 63.3672 88.4813 70.0329 88.4813C76.6986 88.4813 82.7129 91.2629 86.9655 95.721C87.1937 95.9603 87.2568 96.3118 87.126 96.6149C86.9952 96.918 86.6956 97.1144 86.3641 97.1144H53.7016C53.3702 97.1144 53.0706 96.918 52.9398 96.6149C52.8089 96.3118 52.8721 95.9603 53.1003 95.721Z" fill="#D24C4C"/>
<path fill-rule="evenodd" clip-rule="evenodd" d="M72.5811 82.3873C72.1936 82.3873 71.8795 82.6999 71.8795 83.0856V89.1796C71.8795 89.6353 71.5083 90.0048 71.0503 90.0048C70.5924 90.0048 70.2212 89.6353 70.2212 89.1796V83.0856C70.2212 81.7884 71.2777 80.7369 72.5811 80.7369H82.276C82.7339 80.7369 83.1051 81.1063 83.1051 81.5621C83.1051 82.0178 82.7339 82.3873 82.276 82.3873H72.5811Z" fill="#D24C4C"/>
<path fill-rule="evenodd" clip-rule="evenodd" d="M72.4535 79.4673C70.4457 79.4673 68.818 81.0873 68.818 83.0856V89.1796C68.818 89.6353 68.4467 90.0048 67.9888 90.0048C67.5309 90.0048 67.1596 89.6353 67.1596 89.1796V83.0856C67.1596 80.1757 69.5298 77.8168 72.4535 77.8168H82.276C82.7339 77.8168 83.1051 78.1863 83.1051 78.6421C83.1051 79.0978 82.7339 79.4673 82.276 79.4673H72.4535Z" fill="#D24C4C"/>
<path fill-rule="evenodd" clip-rule="evenodd" d="M48.918 96.2892C48.918 95.8334 49.2892 95.464 49.7471 95.464H89.5471C90.005 95.464 90.3763 95.8334 90.3763 96.2892C90.3763 96.745 90.005 97.1144 89.5471 97.1144H49.7471C49.2892 97.1144 48.918 96.745 48.918 96.2892Z" fill="#D24C4C"/>
<path fill-rule="evenodd" clip-rule="evenodd" d="M57.401 99.7805C57.8589 99.7805 58.2301 100.15 58.2301 100.606V104.414C58.2301 104.87 57.8589 105.24 57.401 105.24C56.943 105.24 56.5718 104.87 56.5718 104.414V100.606C56.5718 100.15 56.943 99.7805 57.401 99.7805Z" fill="#D24C4C"/>
<path fill-rule="evenodd" clip-rule="evenodd" d="M57.401 107.271C57.8589 107.271 58.2301 107.641 58.2301 108.096V111.905C58.2301 112.361 57.8589 112.73 57.401 112.73C56.943 112.73 56.5718 112.361 56.5718 111.905V108.096C56.5718 107.641 56.943 107.271 57.401 107.271Z" fill="#D24C4C"/>
<path fill-rule="evenodd" clip-rule="evenodd" d="M57.401 114.762C57.8589 114.762 58.2301 115.131 58.2301 115.587V119.396C58.2301 119.851 57.8589 120.221 57.401 120.221C56.943 120.221 56.5718 119.851 56.5718 119.396V115.587C56.5718 115.131 56.943 114.762 57.401 114.762Z" fill="#D24C4C"/>
<path fill-rule="evenodd" clip-rule="evenodd" d="M69.6471 99.7805C70.1051 99.7805 70.4763 100.15 70.4763 100.606V104.414C70.4763 104.87 70.1051 105.24 69.6471 105.24C69.1892 105.24 68.818 104.87 68.818 104.414V100.606C68.818 100.15 69.1892 99.7805 69.6471 99.7805Z" fill="#D24C4C"/>
<path fill-rule="evenodd" clip-rule="evenodd" d="M69.6471 107.271C70.1051 107.271 70.4763 107.641 70.4763 108.096V111.905C70.4763 112.361 70.1051 112.73 69.6471 112.73C69.1892 112.73 68.818 112.361 68.818 111.905V108.096C68.818 107.641 69.1892 107.271 69.6471 107.271Z" fill="#D24C4C"/>
<path fill-rule="evenodd" clip-rule="evenodd" d="M69.6471 114.762C70.1051 114.762 70.4763 115.131 70.4763 115.587V119.396C70.4763 119.851 70.1051 120.221 69.6471 120.221C69.1892 120.221 68.818 119.851 68.818 119.396V115.587C68.818 115.131 69.1892 114.762 69.6471 114.762Z" fill="#D24C4C"/>
<path fill-rule="evenodd" clip-rule="evenodd" d="M81.8933 99.7805C82.3512 99.7805 82.7224 100.15 82.7224 100.606V104.414C82.7224 104.87 82.3512 105.24 81.8933 105.24C81.4353 105.24 81.0641 104.87 81.0641 104.414V100.606C81.0641 100.15 81.4353 99.7805 81.8933 99.7805Z" fill="#D24C4C"/>
<path fill-rule="evenodd" clip-rule="evenodd" d="M81.8933 107.271C82.3512 107.271 82.7224 107.641 82.7224 108.096V111.905C82.7224 112.361 82.3512 112.73 81.8933 112.73C81.4353 112.73 81.0641 112.361 81.0641 111.905V108.096C81.0641 107.641 81.4353 107.271 81.8933 107.271Z" fill="#D24C4C"/>
<path fill-rule="evenodd" clip-rule="evenodd" d="M81.8933 114.762C82.3512 114.762 82.7224 115.131 82.7224 115.587V119.396C82.7224 119.851 82.3512 120.221 81.8933 120.221C81.4353 120.221 81.0641 119.851 81.0641 119.396V115.587C81.0641 115.131 81.4353 114.762 81.8933 114.762Z" fill="#D24C4C"/>
<path fill-rule="evenodd" clip-rule="evenodd" d="M63.524 99.9075C63.982 99.9075 64.3532 100.277 64.3532 100.733V101.685C64.3532 102.141 63.982 102.51 63.524 102.51C63.0661 102.51 62.6949 102.141 62.6949 101.685V100.733C62.6949 100.277 63.0661 99.9075 63.524 99.9075Z" fill="#D24C4C"/>
<path fill-rule="evenodd" clip-rule="evenodd" d="M63.524 119.522C63.982 119.522 64.3532 119.892 64.3532 120.348V124.156C64.3532 124.612 63.982 124.982 63.524 124.982C63.0661 124.982 62.6949 124.612 62.6949 124.156V120.348C62.6949 119.892 63.0661 119.522 63.524 119.522Z" fill="#D24C4C"/>
<path fill-rule="evenodd" clip-rule="evenodd" d="M63.524 104.541C63.982 104.541 64.3532 104.911 64.3532 105.367V109.175C64.3532 109.631 63.982 110.001 63.524 110.001C63.0661 110.001 62.6949 109.631 62.6949 109.175V105.367C62.6949 104.911 63.0661 104.541 63.524 104.541Z" fill="#D24C4C"/>
<path fill-rule="evenodd" clip-rule="evenodd" d="M63.524 112.032C63.982 112.032 64.3532 112.401 64.3532 112.857V116.666C64.3532 117.122 63.982 117.491 63.524 117.491C63.0661 117.491 62.6949 117.122 62.6949 116.666V112.857C62.6949 112.401 63.0661 112.032 63.524 112.032Z" fill="#D24C4C"/>
<path fill-rule="evenodd" clip-rule="evenodd" d="M75.7702 99.9075C76.2281 99.9075 76.5994 100.277 76.5994 100.733V101.685C76.5994 102.141 76.2281 102.51 75.7702 102.51C75.3123 102.51 74.941 102.141 74.941 101.685V100.733C74.941 100.277 75.3123 99.9075 75.7702 99.9075Z" fill="#D24C4C"/>
<path fill-rule="evenodd" clip-rule="evenodd" d="M75.7702 119.522C76.2281 119.522 76.5994 119.892 76.5994 120.348V124.156C76.5994 124.612 76.2281 124.982 75.7702 124.982C75.3123 124.982 74.941 124.612 74.941 124.156V120.348C74.941 119.892 75.3123 119.522 75.7702 119.522Z" fill="#D24C4C"/>
<path fill-rule="evenodd" clip-rule="evenodd" d="M75.7702 104.541C76.2281 104.541 76.5994 104.911 76.5994 105.367V109.175C76.5994 109.631 76.2281 110.001 75.7702 110.001C75.3123 110.001 74.941 109.631 74.941 109.175V105.367C74.941 104.911 75.3123 104.541 75.7702 104.541Z" fill="#D24C4C"/>
<path fill-rule="evenodd" clip-rule="evenodd" d="M75.7702 112.032C76.2281 112.032 76.5994 112.401 76.5994 112.857V116.666C76.5994 117.122 76.2281 117.491 75.7702 117.491C75.3123 117.491 74.941 117.122 74.941 116.666V112.857C74.941 112.401 75.3123 112.032 75.7702 112.032Z" fill="#D24C4C"/>
<path fill-rule="evenodd" clip-rule="evenodd" d="M116.551 47.8498C127.533 47.8498 136.436 39.0301 136.436 28.1506C136.436 17.271 127.533 8.4514 116.551 8.4514C105.568 8.4514 96.6655 17.271 96.6655 28.1506C96.6655 39.0301 105.568 47.8498 116.551 47.8498ZM116.551 49.3412C128.365 49.3412 137.942 39.8538 137.942 28.1506C137.942 16.4473 128.365 6.95998 116.551 6.95998C104.737 6.95998 95.16 16.4473 95.16 28.1506C95.16 39.8538 104.737 49.3412 116.551 49.3412Z" fill="#70B483"/>
<path fill-rule="evenodd" clip-rule="evenodd" d="M117.514 1.50854C110.722 1.2674 104.088 3.58154 98.9473 7.98608C98.6328 8.25548 98.1574 8.22135 97.8855 7.90983C97.6136 7.59832 97.648 7.1274 97.9625 6.858C103.391 2.20705 110.396 -0.236557 117.568 0.018074C123.737 0.237075 129.638 2.43806 134.4 6.24603C134.723 6.50473 134.774 6.97422 134.512 7.29468C134.251 7.61514 133.777 7.66521 133.454 7.40652C128.944 3.8003 123.357 1.71594 117.514 1.50854Z" fill="#70B483"/>
<path fill-rule="evenodd" clip-rule="evenodd" d="M99.2167 2.12015C99.6284 2.17766 99.915 2.55488 99.857 2.96269L99.2793 7.02086L103.558 7.33485C103.973 7.36528 104.284 7.72289 104.253 8.13361C104.223 8.54433 103.862 8.85262 103.447 8.8222L98.366 8.44934C98.1582 8.4341 97.9662 8.33428 97.8355 8.17363C97.7048 8.01297 97.6471 7.80585 97.6762 7.60154L98.3662 2.75442C98.4243 2.34661 98.805 2.06264 99.2167 2.12015Z" fill="#70B483"/>
<path d="M108.064 37.7501C109.121 37.7501 109.782 37.0172 109.782 36.0488V22.6743C109.782 21.2609 109.227 20.371 107.668 20.371C106.294 20.371 105.634 21.0254 104.577 22.0461L102.463 24.297C101.565 25.1346 101.935 26.4956 103.124 26.4956C103.573 26.4956 103.863 26.3124 104.207 25.9721L106.373 23.6427V36.0488C106.373 37.0172 107.007 37.7501 108.064 37.7501Z" fill="#70B483"/>
<path d="M119.136 29.4532C116.916 29.4532 116.097 28.1183 116.097 26.3647V26.0506C116.097 23.9306 117.022 22.6481 119.109 22.6481C121.223 22.6481 122.517 23.8521 122.517 26.3909V26.6264C122.517 28.4324 121.144 29.4532 119.136 29.4532ZM118.449 37.8024C123.046 37.8024 126.058 35.2898 126.058 29.1914V27.9089C126.058 22.9884 123.31 20.3187 119.109 20.3187C115.067 20.3187 112.636 22.6481 112.636 26.1292V26.26C112.636 29.2438 114.565 31.6517 118.211 31.6517C120.562 31.6517 121.883 30.5786 122.517 29.1129V29.7672C122.517 33.6932 120.879 35.1589 118.317 35.1589C117.445 35.1589 116.837 35.028 116.362 34.8187C115.622 34.5046 115.331 34.1382 114.644 34.1382C113.852 34.1382 113.429 34.6355 113.429 35.316C113.429 36.6246 115.199 37.8024 118.449 37.8024Z" fill="#70B483"/>
<path d="M130.255 26.1225C131.739 26.1225 133.122 25.3039 133.122 23.1823V23.1656C133.122 21.3947 131.907 20.3422 130.255 20.3422C128.585 20.3422 127.371 21.378 127.371 23.1656V23.199C127.371 25.2872 128.754 26.1225 130.255 26.1225ZM130.255 25.0199C129.614 25.0199 129.125 24.6691 129.125 23.3827V22.915C129.125 21.946 129.563 21.4782 130.255 21.4782C130.929 21.4782 131.368 21.946 131.368 22.915V23.3827C131.368 24.6691 130.879 25.0199 130.255 25.0199Z" fill="#70B483"/>
<path fill-rule="evenodd" clip-rule="evenodd" d="M89.0789 6.4623C89.3563 6.15558 89.8322 6.12975 90.1418 6.4046L99.8022 14.9803C100.112 15.2551 100.138 15.7266 99.8605 16.0333C99.583 16.34 99.1071 16.3658 98.7975 16.091L89.1371 7.51531C88.8275 7.24046 88.8014 6.76901 89.0789 6.4623Z" fill="#70B483"/>
<path fill-rule="evenodd" clip-rule="evenodd" d="M160.799 110.446C160.437 110.061 160.457 109.457 160.843 109.097L164.89 105.325L160.843 101.553C160.457 101.193 160.437 100.59 160.799 100.205C161.161 99.8206 161.767 99.8008 162.153 100.161L166.947 104.629C167.14 104.809 167.25 105.061 167.25 105.325C167.25 105.589 167.14 105.841 166.947 106.022L162.153 110.49C161.767 110.85 161.161 110.83 160.799 110.446Z" fill="white"/>
<path fill-rule="evenodd" clip-rule="evenodd" d="M177.236 95.2027C177.765 95.2027 178.194 95.6298 178.194 96.1566V120.664C178.194 121.19 177.765 121.617 177.236 121.617H150.601C150.072 121.617 149.643 121.19 149.643 120.664V114.815C149.643 114.288 150.072 113.861 150.601 113.861C151.13 113.861 151.559 114.288 151.559 114.815V119.71H176.277V96.1566C176.277 95.6298 176.706 95.2027 177.236 95.2027Z" fill="white"/>
<path fill-rule="evenodd" clip-rule="evenodd" d="M125.01 110.942C128.012 109.999 130.886 109.201 134.695 109.497C137.39 109.707 138.994 110.475 140.494 111.287C140.633 111.363 140.771 111.438 140.909 111.514C142.209 112.225 143.457 112.908 145.474 113.336C145.992 113.446 146.322 113.953 146.211 114.468C146.101 114.983 145.592 115.312 145.074 115.202C142.771 114.714 141.299 113.906 139.989 113.188C139.85 113.112 139.713 113.036 139.577 112.963C138.198 112.216 136.865 111.58 134.546 111.399C131.119 111.133 128.538 111.834 125.587 112.762C125.082 112.92 124.544 112.642 124.385 112.139C124.225 111.637 124.505 111.101 125.01 110.942Z" fill="white"/>
<path fill-rule="evenodd" clip-rule="evenodd" d="M130.109 99.7808C135.871 98.5392 139.718 99.6904 144.049 101.793C144.525 102.024 144.722 102.595 144.49 103.069C144.258 103.542 143.685 103.739 143.209 103.508C139.117 101.521 135.72 100.524 130.515 101.645C129.997 101.757 129.487 101.43 129.375 100.915C129.263 100.4 129.592 99.8923 130.109 99.7808Z" fill="white"/>
<path fill-rule="evenodd" clip-rule="evenodd" d="M150.601 94.7625C151.13 94.7625 151.559 95.1896 151.559 95.7164V104.054C151.559 104.581 151.13 105.008 150.601 105.008C150.072 105.008 149.643 104.581 149.643 104.054V95.7164C149.643 95.1896 150.072 94.7625 150.601 94.7625Z" fill="white"/>
<path fill-rule="evenodd" clip-rule="evenodd" d="M133.819 105.289C133.819 104.762 134.248 104.335 134.777 104.335C138.408 104.335 140.672 105.473 142.784 106.535L142.813 106.549C144.892 107.595 146.825 108.559 150.014 108.559C152.389 108.559 154.129 107.725 156.206 106.73C156.336 106.667 156.468 106.604 156.601 106.541C158.853 105.466 161.429 104.335 165.25 104.335C165.779 104.335 166.208 104.762 166.208 105.289C166.208 105.816 165.779 106.243 165.25 106.243C161.865 106.243 159.603 107.224 157.429 108.261C157.279 108.333 157.129 108.405 156.979 108.477C154.95 109.453 152.841 110.467 150.014 110.467C146.353 110.467 144.078 109.323 141.959 108.258L141.949 108.252C139.868 107.206 137.945 106.243 134.777 106.243C134.248 106.243 133.819 105.816 133.819 105.289Z" fill="white"/>
<path fill-rule="evenodd" clip-rule="evenodd" d="M163.164 81.6862C163.538 81.3158 164.142 81.3158 164.516 81.6862L181.358 98.3735C181.734 98.7451 181.735 99.3491 181.362 99.7225C180.988 100.096 180.381 100.097 180.006 99.7256L163.84 83.7081L147.674 99.7256C147.299 100.097 146.692 100.096 146.318 99.7225C145.945 99.3491 145.947 98.7451 146.322 98.3735L163.164 81.6862Z" fill="white"/>
<path fill-rule="evenodd" clip-rule="evenodd" d="M13.3281 25.1128C13.3281 24.6248 13.6715 24.2291 14.095 24.2291H20.9327C21.3562 24.2291 21.6995 24.6248 21.6995 25.1128C21.6995 25.6008 21.3562 25.9964 20.9327 25.9964H14.095C13.6715 25.9964 13.3281 25.6008 13.3281 25.1128Z" fill="#67B4B8"/>
<path d="M2.16689 35.6801C2.73029 35.6801 3.18437 35.2361 3.36864 34.7037C3.50748 34.3025 3.70258 33.9495 3.91645 33.6711C4.66619 32.7241 5.61778 32.5806 6.39635 32.5806C8.76092 32.5806 9.68367 34.159 9.68367 35.8523C9.68367 37.5742 8.67441 38.3778 8.06885 38.6935C7.71655 38.8771 7.28618 39.0025 6.84018 39.064C6.32436 39.135 5.8773 39.5397 5.8773 40.0604V40.0604C5.8773 40.5676 6.30142 40.9677 6.80393 41.0366C7.26282 41.0995 7.70702 41.2197 8.06885 41.3912C9.53949 42.0513 9.97204 43.5149 9.97204 44.6055C9.97204 46.7292 8.32838 48.4799 6.1945 48.4799C4.98338 48.4799 3.85877 47.9633 3.22438 47.0449C3.02318 46.7677 2.86352 46.4325 2.74539 46.075C2.57006 45.5445 2.11312 45.1221 1.55432 45.1221V45.1221C0.923919 45.1221 0.403737 45.6528 0.548369 46.2664C0.615237 46.5501 0.707158 46.8353 0.83098 47.131C1.86908 49.5991 4.20481 50.4314 6.1945 50.4314C9.48182 50.4314 12.1059 48.2503 12.1059 44.6629C12.1059 41.3625 10.0009 40.3006 9.33764 40.0423C11.2985 39.0666 11.8175 37.1724 11.8175 35.7949C11.8175 33.1546 10.0297 30.629 6.39635 30.629C5.24291 30.629 3.19554 30.8873 1.92675 32.8676C1.61492 33.3605 1.36142 33.9347 1.20339 34.5606C1.05256 35.158 1.55077 35.6801 2.16689 35.6801V35.6801Z" fill="#67B4B8"/>
<path d="M24.3716 50.4314C29.937 50.4314 34.3778 46.2126 34.3778 40.5302C34.3778 34.8191 29.9082 30.629 24.3716 30.629C18.8351 30.629 14.3655 34.8191 14.3655 40.5302C14.3655 46.2126 18.8063 50.4314 24.3716 50.4314ZM24.3716 32.638C28.6971 32.638 32.1862 36.1393 32.1862 40.5302C32.1862 44.9212 28.6971 48.4225 24.3716 48.4225C20.0462 48.4225 16.557 44.9212 16.557 40.5302C16.557 36.1393 20.0462 32.638 24.3716 32.638Z" fill="#67B4B8"/>
<path fill-rule="evenodd" clip-rule="evenodd" d="M33.7474 27.2758C34.4839 27.2758 35.0809 26.6816 35.0809 25.9486C35.0809 25.2156 34.4839 24.6214 33.7474 24.6214C33.011 24.6214 32.4139 25.2156 32.4139 25.9486C32.4139 26.6816 33.011 27.2758 33.7474 27.2758ZM33.7474 29.1223C35.5086 29.1223 36.9363 27.7014 36.9363 25.9486C36.9363 24.1958 35.5086 22.7749 33.7474 22.7749C31.9863 22.7749 30.5586 24.1958 30.5586 25.9486C30.5586 27.7014 31.9863 29.1223 33.7474 29.1223Z" fill="#67B4B8"/>
<path fill-rule="evenodd" clip-rule="evenodd" d="M39.4725 18.0429H9.09158C7.55458 18.0429 6.30859 19.283 6.30859 20.8127V28.786C6.44681 28.7774 6.58619 28.7731 6.72659 28.7731C7.22024 28.7731 7.70123 28.827 8.16392 28.9294V20.8127C8.16392 20.3028 8.57924 19.8894 9.09158 19.8894H39.4725C39.9848 19.8894 40.4001 20.3028 40.4001 20.8127V58.3198C40.4001 58.8297 39.9848 59.2431 39.4725 59.2431H9.09158C8.57925 59.2431 8.16392 58.8297 8.16392 58.3198V52.1476C7.77991 52.2169 7.38433 52.2531 6.98027 52.2531C6.75352 52.2531 6.52945 52.2417 6.30859 52.2194V58.3198C6.30859 59.8495 7.55458 61.0896 9.09158 61.0896H39.4725C41.0095 61.0896 42.2555 59.8495 42.2555 58.3198V20.8127C42.2555 19.283 41.0095 18.0429 39.4725 18.0429Z" fill="#67B4B8"/>
<path fill-rule="evenodd" clip-rule="evenodd" d="M195.551 15.7399C194.919 15.7399 194.313 15.9897 193.866 16.4345C193.419 16.8793 193.168 17.4825 193.168 18.1114C193.168 18.5827 192.784 18.9647 192.31 18.9647C191.837 18.9647 191.453 18.5827 191.453 18.1114C191.453 17.0299 191.885 15.9926 192.653 15.2278C193.422 14.4631 194.464 14.0334 195.551 14.0334C196.024 14.0334 196.408 14.4154 196.408 14.8867C196.408 15.3579 196.024 15.7399 195.551 15.7399Z" fill="#EAC95E"/>
<path fill-rule="evenodd" clip-rule="evenodd" d="M217.379 14.8867C217.379 14.4154 217.763 14.0334 218.236 14.0334C219.323 14.0334 220.365 14.4631 221.134 15.2278C221.902 15.9926 222.334 17.0299 222.334 18.1114C222.334 18.5827 221.95 18.9647 221.476 18.9647C221.003 18.9647 220.619 18.5827 220.619 18.1114C220.619 17.4825 220.368 16.8793 219.921 16.4345C219.474 15.9897 218.868 15.7399 218.236 15.7399C217.763 15.7399 217.379 15.3579 217.379 14.8867Z" fill="#EAC95E"/>
<path fill-rule="evenodd" clip-rule="evenodd" d="M194.695 14.8867C194.695 14.4154 195.079 14.0334 195.553 14.0334H218.234C218.707 14.0334 219.091 14.4154 219.091 14.8867C219.091 15.3579 218.707 15.7399 218.234 15.7399H195.553C195.079 15.7399 194.695 15.3579 194.695 14.8867Z" fill="#EAC95E"/>
<path fill-rule="evenodd" clip-rule="evenodd" d="M221.476 52.7305C221.95 52.7305 222.334 53.1125 222.334 53.5837C222.334 54.6653 221.902 55.7025 221.134 56.4673C220.365 57.2321 219.323 57.6617 218.236 57.6617C217.763 57.6617 217.379 57.2797 217.379 56.8085C217.379 56.3373 217.763 55.9553 218.236 55.9553C218.868 55.9553 219.474 55.7054 219.921 55.2606C220.368 54.8159 220.619 54.2127 220.619 53.5837C220.619 53.1125 221.003 52.7305 221.476 52.7305Z" fill="#EAC95E"/>
<path fill-rule="evenodd" clip-rule="evenodd" d="M192.31 52.7305C192.784 52.7305 193.168 53.1125 193.168 53.5837C193.168 54.2127 193.419 54.8159 193.866 55.2606C194.313 55.7054 194.919 55.9553 195.551 55.9553C196.024 55.9553 196.408 56.3373 196.408 56.8085C196.408 57.2797 196.024 57.6617 195.551 57.6617C194.464 57.6617 193.422 57.2321 192.653 56.4673C191.885 55.7025 191.453 54.6653 191.453 53.5837C191.453 53.1125 191.837 52.7305 192.31 52.7305Z" fill="#EAC95E"/>
<path fill-rule="evenodd" clip-rule="evenodd" d="M194.703 56.8089C194.703 56.3376 195.087 55.9556 195.56 55.9556H218.242C218.715 55.9556 219.099 56.3376 219.099 56.8089C219.099 57.2801 218.715 57.6621 218.242 57.6621H195.56C195.087 57.6621 194.703 57.2801 194.703 56.8089Z" fill="#EAC95E"/>
<path fill-rule="evenodd" clip-rule="evenodd" d="M192.31 17.2581C192.784 17.2581 193.168 17.6401 193.168 18.1113V53.584C193.168 54.0552 192.784 54.4372 192.31 54.4372C191.837 54.4372 191.453 54.0552 191.453 53.584V18.1113C191.453 17.6401 191.837 17.2581 192.31 17.2581Z" fill="#EAC95E"/>
<path fill-rule="evenodd" clip-rule="evenodd" d="M221.463 17.3148C221.936 17.3148 222.32 17.6969 222.32 18.1681L222.32 38.1206C222.32 38.5919 221.936 38.9739 221.463 38.9739C220.989 38.9739 220.605 38.5919 220.605 38.1206L220.605 18.1681C220.605 17.6969 220.989 17.3148 221.463 17.3148Z" fill="#EAC95E"/>
<path fill-rule="evenodd" clip-rule="evenodd" d="M221.463 47.5065C221.936 47.5065 222.32 47.8885 222.32 48.3598L222.32 53.6104C222.32 54.0817 221.936 54.4637 221.463 54.4637C220.989 54.4637 220.605 54.0817 220.605 53.6104L220.605 48.3598C220.605 47.8885 220.989 47.5065 221.463 47.5065Z" fill="#EAC95E"/>
<path fill-rule="evenodd" clip-rule="evenodd" d="M195.56 55.9556C196.034 55.9556 196.418 56.3376 196.418 56.8089C196.418 58.2931 197.01 59.7166 198.065 60.7661C199.119 61.8156 200.549 62.4052 202.041 62.4052C202.514 62.4052 202.898 62.7872 202.898 63.2584C202.898 63.7297 202.514 64.1117 202.041 64.1117C200.095 64.1117 198.228 63.3423 196.852 61.9727C195.476 60.6032 194.703 58.7457 194.703 56.8089C194.703 56.3376 195.087 55.9556 195.56 55.9556Z" fill="#EAC95E"/>
<path fill-rule="evenodd" clip-rule="evenodd" d="M218.24 55.9556C218.713 55.9556 219.097 56.3376 219.097 56.8088C219.097 58.7456 218.324 60.6031 216.948 61.9727C215.572 63.3422 213.706 64.1116 211.76 64.1116C211.286 64.1116 210.902 63.7296 210.902 63.2584C210.902 62.7871 211.286 62.4051 211.76 62.4051C213.251 62.4051 214.681 61.8155 215.736 60.766C216.79 59.7165 217.383 58.293 217.383 56.8088C217.383 56.3376 217.767 55.9556 218.24 55.9556Z" fill="#EAC95E"/>
<path fill-rule="evenodd" clip-rule="evenodd" d="M201.176 63.2582C201.176 62.787 201.56 62.405 202.033 62.405H211.754C212.227 62.405 212.611 62.787 212.611 63.2582C212.611 63.7294 212.227 64.1114 211.754 64.1114H202.033C201.56 64.1114 201.176 63.7294 201.176 63.2582Z" fill="#EAC95E"/>
<path fill-rule="evenodd" clip-rule="evenodd" d="M206.893 25.414C204.683 25.414 202.89 27.1976 202.89 29.3979C202.89 31.5982 204.683 33.3818 206.893 33.3818C209.104 33.3818 210.896 31.5982 210.896 29.3979C210.896 27.1976 209.104 25.414 206.893 25.414ZM201.176 29.3979C201.176 26.2552 203.736 23.7075 206.893 23.7075C210.051 23.7075 212.611 26.2552 212.611 29.3979C212.611 32.5406 210.051 35.0883 206.893 35.0883C203.736 35.0883 201.176 32.5406 201.176 29.3979Z" fill="#EAC95E"/>
<path fill-rule="evenodd" clip-rule="evenodd" d="M206.896 23.7075C207.37 23.7075 207.754 24.0895 207.754 24.5607V27.7855C207.754 28.2567 207.37 28.6387 206.896 28.6387C206.423 28.6387 206.039 28.2567 206.039 27.7855V24.5607C206.039 24.0895 206.423 23.7075 206.896 23.7075Z" fill="#EAC95E"/>
<path fill-rule="evenodd" clip-rule="evenodd" d="M227.913 38.5989L226.207 38.467L226.083 36.7614L228.067 36.6167L227.913 38.5989ZM224.471 38.6654C225.487 38.5196 226.207 38.467 226.207 38.467C226.207 38.467 226.152 39.1874 226.001 40.2021C225.722 42.0917 225.114 45.002 223.928 46.1822C222.105 47.9963 217.903 46.7318 217.903 46.7318C217.903 46.7318 216.656 42.5261 218.479 40.712C219.665 39.5317 222.579 38.9369 224.471 38.6654ZM217.903 46.7318C216.263 47.2177 216.263 47.2173 216.263 47.2168L216.262 47.2136L216.26 47.208L216.255 47.192C216.252 47.1793 216.247 47.1626 216.241 47.142C216.23 47.1009 216.214 47.0444 216.196 46.974C216.16 46.8334 216.112 46.6364 216.062 46.3964C215.963 45.9203 215.849 45.2553 215.8 44.5141C215.713 43.1771 215.79 40.9755 217.272 39.5001C217.992 38.7837 218.982 38.3131 219.869 37.9893C220.793 37.6521 221.797 37.4077 222.697 37.2311C223.604 37.0531 224.444 36.9365 225.056 36.8643C225.362 36.8281 225.614 36.8027 225.792 36.7862C225.881 36.778 225.951 36.772 226 36.7679C226.025 36.7659 226.044 36.7643 226.058 36.7633L226.075 36.762L226.082 36.7615L226.082 36.7614C226.083 36.7614 226.083 36.7614 226.207 38.467C227.913 38.5989 227.913 38.5992 227.913 38.5995L227.913 38.607L227.911 38.6236C227.91 38.6375 227.908 38.6569 227.906 38.6815C227.902 38.7308 227.896 38.801 227.887 38.8897C227.87 39.067 227.843 39.3188 227.806 39.6254C227.731 40.2363 227.611 41.0757 227.429 41.9811C227.248 42.8801 226.999 43.8822 226.658 44.8047C226.33 45.6905 225.855 46.6778 225.135 47.3941C223.653 48.8696 221.45 48.9368 220.113 48.8433C219.371 48.7915 218.707 48.6751 218.231 48.5735C217.991 48.5223 217.794 48.4737 217.653 48.4369C217.583 48.4185 217.527 48.4029 217.486 48.3913C217.465 48.3855 217.448 48.3807 217.436 48.377L217.42 48.3723L217.414 48.3706L217.411 48.3697C217.41 48.3695 217.41 48.3694 217.903 46.7318ZM216.263 47.2177L217.903 46.7318L217.41 48.3694L216.525 48.1032L216.263 47.2177Z" fill="#EAC95E"/>
<path fill-rule="evenodd" clip-rule="evenodd" d="M219.916 40.5492C220.389 40.5492 220.773 40.9312 220.773 41.4025V43.6996H223.213C223.687 43.6996 224.071 44.0816 224.071 44.5529C224.071 45.0241 223.687 45.4061 223.213 45.4061H219.059V41.4025C219.059 40.9312 219.442 40.5492 219.916 40.5492Z" fill="#EAC95E"/>
<path fill-rule="evenodd" clip-rule="evenodd" d="M216.673 47.7899C216.338 47.4567 216.338 46.9165 216.673 46.5833L223.333 39.9543C223.668 39.6211 224.211 39.6211 224.546 39.9543C224.88 40.2875 224.88 40.8278 224.546 41.161L217.885 47.7899C217.55 48.1232 217.007 48.1232 216.673 47.7899Z" fill="#EAC95E"/>
</svg>
