<svg width="1512" height="118" viewBox="0 0 1512 118" fill="none" xmlns="http://www.w3.org/2000/svg">
<mask id="mask0_5767_540" style="mask-type:alpha" maskUnits="userSpaceOnUse" x="0" y="0" width="1512" height="118">
<rect width="1512" height="118" fill="url(#paint0_linear_5767_540)"/>
</mask>
<g mask="url(#mask0_5767_540)">
<rect width="1512" height="300" fill="url(#paint1_linear_5767_540)"/>
<g style="mix-blend-mode:multiply" opacity="0.37">
<path d="M1402.35 -487.012C1364.87 -439.588 1319.97 -397.974 1269.22 -363.636C1217.83 -327.011 1161.63 -293.545 1105.73 -256.345C1047.11 -219.226 993.464 -175.381 945.999 -125.788C921.686 -99.451 900.609 -70.5367 883.186 -39.6114C865.458 -7.33191 853.379 27.5043 847.425 63.5141C835.888 135.274 847.032 208.692 879.43 274.359C895.516 307.203 916.806 337.481 942.544 364.126C968.158 390.323 997.493 412.951 1029.69 431.345C1045.64 440.389 1062.21 448.403 1079.28 455.331C1085.48 458.22 1091.98 460.482 1098.67 462.081L1105.28 463.23C1108.23 463.376 1111.19 463.376 1114.14 463.23C1121.1 462.873 1127.9 461.163 1134.13 458.203C1140.71 454.994 1146.66 450.717 1151.71 445.564C1158.98 437.88 1165.61 429.669 1171.55 421.004C1182.07 405.205 1188.67 395.294 1198.74 381.363L1226.69 341.721L1338.34 183.731L1363.44 148.255L1326.02 124.7L1227.14 62.5078C1279.29 -20.2219 1328.27 -103.094 1380.86 -184.531C1296.87 -107.834 1215.57 -26.5408 1133.23 48.8638L1097.46 81.3239L1142.54 110.91L1239.32 171.666L1152.61 294.611L1125.11 334.252C1117 345.455 1106.93 360.392 1099.72 371.308C1091.29 367.541 1083.06 363.37 1075.07 358.812C1049.94 344.566 1027.07 326.961 1007.15 306.531C987.62 286.351 971.5 263.382 959.371 238.452C934.525 188.184 925.946 131.972 934.73 77.0143C939.165 50.0325 948.201 23.9286 961.477 -0.257568C975.664 -25.3573 992.803 -48.8242 1012.57 -70.2033C1055.25 -114.559 1103.45 -153.772 1156.07 -186.973C1209.56 -222.449 1266.51 -256.345 1321.36 -295.843C1359.13 -322.414 1394.33 -352.168 1426.55 -384.749C1458.68 -320.677 1486.78 -254.826 1510.69 -187.548C1541.39 -104.335 1554.37 -16.0914 1548.86 71.9877C1541.26 158.797 1511.83 242.564 1463.06 316.155C1413.38 394.95 1336.48 454.691 1245.63 485.061C1297.53 485.291 1348.73 473.67 1394.99 451.165C1442.43 427.936 1485.01 396.584 1520.61 358.668C1556.55 320.552 1586.23 277.455 1608.66 230.841C1632.18 183.706 1647.17 133.102 1652.99 81.1801C1654.95 63.3702 1655.85 45.5609 1656 27.8947V23.0101C1654.02 -59.5894 1637.98 -141.329 1608.51 -219.002C1573.74 -310.783 1529.39 -398.984 1476.13 -482.272L1441.42 -540.584L1402.35 -487.012Z" fill="#70B483"/>
</g>
</g>
<defs>
<linearGradient id="paint0_linear_5767_540" x1="-2.81632e-06" y1="59" x2="1512" y2="58.9999" gradientUnits="userSpaceOnUse">
<stop stop-color="#84BCC3"/>
<stop offset="0.276042" stop-color="#68ADB0"/>
<stop offset="0.640625" stop-color="#6FB482"/>
<stop offset="1" stop-color="#92B661"/>
</linearGradient>
<linearGradient id="paint1_linear_5767_540" x1="-2.81632e-06" y1="150" x2="1512" y2="150" gradientUnits="userSpaceOnUse">
<stop stop-color="#84BCC3"/>
<stop offset="0.276042" stop-color="#68ADB0"/>
<stop offset="0.640625" stop-color="#6FB482"/>
<stop offset="1" stop-color="#92B661"/>
</linearGradient>
</defs>
</svg>
