<svg width="767" height="556" viewBox="0 0 767 556" fill="none" xmlns="http://www.w3.org/2000/svg">
<mask id="mask0_1_4" style="mask-type:alpha" maskUnits="userSpaceOnUse" x="0" y="0" width="767" height="556">
<rect width="767" height="555.797" fill="url(#paint0_linear_1_4)"/>
</mask>
<g mask="url(#mask0_1_4)">
<rect width="767" height="555.797" fill="url(#paint1_linear_1_4)"/>
<g style="mix-blend-mode:multiply" opacity="0.37">
<path d="M683.076 -477.785C638.922 -421.847 586.019 -372.762 526.228 -332.259C465.683 -289.059 399.471 -249.585 333.615 -205.707C264.548 -161.924 201.351 -110.207 145.432 -51.7107C116.788 -20.6453 91.9559 13.4601 71.4292 49.9373C50.5433 88.012 36.3127 129.102 29.2977 171.577C15.7062 256.22 28.8343 342.819 67.0034 420.275C85.9554 459.016 111.038 494.73 141.36 526.158C171.537 557.059 206.098 583.749 244.035 605.445C262.827 616.113 282.345 625.566 302.457 633.738C309.759 637.145 317.413 639.813 325.295 641.699L333.083 643.054C336.562 643.226 340.05 643.226 343.53 643.054C351.718 642.633 359.732 640.616 367.076 637.125C374.83 633.339 381.836 628.295 387.788 622.216C396.348 613.153 404.162 603.468 411.157 593.247C423.549 574.612 431.335 562.922 443.197 546.489L476.126 499.731L607.66 313.376L637.227 271.531L593.147 243.747L476.658 170.39C538.088 72.8079 595.8 -24.9428 657.761 -121C558.801 -30.5335 463.027 65.3545 366.013 154.297L323.877 192.584L376.987 227.482L490.999 299.146L388.851 444.163L356.453 490.921C346.893 504.135 335.033 521.754 326.535 534.629C316.605 530.186 306.912 525.267 297.5 519.89C267.893 503.087 240.948 482.321 217.481 458.223C194.467 434.42 175.474 407.327 161.186 377.922C131.914 318.63 121.806 252.325 132.154 187.501C137.38 155.675 148.026 124.885 163.667 96.3565C180.38 66.7505 200.573 39.0706 223.856 13.8532C274.149 -38.4655 330.924 -84.7182 392.922 -123.88C455.946 -165.725 523.041 -205.707 587.657 -252.296C632.157 -283.637 673.631 -318.733 711.58 -357.163C749.443 -281.589 782.545 -203.915 810.715 -124.558C846.888 -26.4058 862.177 77.68 855.682 181.572C846.733 283.966 812.054 382.772 754.597 469.575C696.071 562.516 605.468 632.982 498.433 668.805C559.579 669.076 619.908 655.369 674.401 628.824C730.292 601.424 780.457 564.444 822.402 519.721C864.739 474.761 899.713 423.927 926.141 368.944C953.844 313.347 971.502 253.658 978.364 192.415C980.666 171.407 981.731 150.401 981.908 129.563V123.801C979.573 26.3728 960.675 -70.0418 925.963 -161.66C884.997 -269.918 832.749 -373.954 770.001 -472.194L729.106 -540.976L683.076 -477.785Z" fill="#70B483"/>
</g>
</g>
<defs>
<linearGradient id="paint0_linear_1_4" x1="-1.42865e-06" y1="277.898" x2="767" y2="277.898" gradientUnits="userSpaceOnUse">
<stop stop-color="#84BCC3"/>
<stop offset="0.276042" stop-color="#68ADB0"/>
<stop offset="0.640625" stop-color="#6FB482"/>
<stop offset="1" stop-color="#92B661"/>
</linearGradient>
<linearGradient id="paint1_linear_1_4" x1="-1.42865e-06" y1="277.898" x2="767" y2="277.898" gradientUnits="userSpaceOnUse">
<stop stop-color="#84BCC3"/>
<stop offset="0.276042" stop-color="#68ADB0"/>
<stop offset="0.640625" stop-color="#6FB482"/>
<stop offset="1" stop-color="#92B661"/>
</linearGradient>
</defs>
</svg>
